<svg width="315" height="204" viewBox="0 0 315 204" fill="none" xmlns="http://www.w3.org/2000/svg">
<rect y="0.468018" width="22" height="21.841" fill="#9BC53F"/>
<rect y="56.0632" width="22" height="21.841" fill="#4C9869"/>
<rect y="111.658" width="22" height="21.841" fill="#305C93"/>
<rect y="167.254" width="22" height="21.841" fill="#84367E"/>
<path d="M67.109 15.96C67.8437 16.1754 68.458 16.2387 68.952 16.15C69.4587 16.0487 69.9083 15.694 70.301 15.086L70.947 14.117L71.232 13.794L75.64 5.16802H78.661L72.999 15.694C72.4923 16.644 71.8907 17.3724 71.194 17.879C70.51 18.3857 69.7563 18.6707 68.933 18.734C68.1097 18.81 67.2547 18.6644 66.368 18.297L67.109 15.96ZM71.175 16.359L65.171 5.16802H68.458L72.866 14.098L71.175 16.359ZM86.0027 18.468V15.067L86.4207 15.542H83.5897C82.1204 15.542 80.9677 15.238 80.1317 14.63C79.2957 14.022 78.8777 13.148 78.8777 12.008C78.8777 10.792 79.3147 9.86102 80.1887 9.21502C81.0754 8.56902 82.2661 8.24602 83.7607 8.24602H88.6437V18.468H86.0027ZM78.7257 18.468L81.4427 14.573H84.4637L81.8797 18.468H78.7257ZM86.0027 14.155V9.89902L86.4207 10.659H83.8177C83.2097 10.659 82.7347 10.773 82.3927 11.001C82.0634 11.229 81.8987 11.5964 81.8987 12.103C81.8987 13.0784 82.5257 13.566 83.7797 13.566H86.4207L86.0027 14.155ZM94.8576 18.658C95.8203 18.658 96.6816 18.5314 97.4416 18.278C98.2143 18.012 98.8223 17.6384 99.2656 17.157C99.7216 16.663 99.9496 16.0867 99.9496 15.428C99.9496 14.6554 99.6266 14.0474 98.9806 13.604C98.3346 13.148 97.4479 12.92 96.3206 12.92L96.2446 13.509C96.8906 13.509 97.4733 13.4014 97.9926 13.186C98.5119 12.958 98.9173 12.6477 99.2086 12.255C99.5126 11.8624 99.6646 11.419 99.6646 10.925C99.6646 10.3044 99.4429 9.77868 98.9996 9.34802C98.5689 8.91735 97.9736 8.58802 97.2136 8.36002C96.4536 8.13202 95.5986 8.03068 94.6486 8.05602C94.0026 8.06868 93.3503 8.15735 92.6916 8.32202C92.0329 8.48668 91.3679 8.70835 90.6966 8.98702L91.4186 11.039C91.9886 10.811 92.5459 10.64 93.0906 10.526C93.6353 10.3994 94.1609 10.336 94.6676 10.336C95.1109 10.336 95.4783 10.3804 95.7696 10.469C96.0609 10.545 96.2826 10.659 96.4346 10.811C96.5866 10.963 96.6626 11.1467 96.6626 11.362C96.6626 11.5647 96.5993 11.742 96.4726 11.894C96.3586 12.0334 96.1813 12.141 95.9406 12.217C95.6999 12.293 95.4086 12.331 95.0666 12.331H93.2236V14.174H95.3136C95.8456 14.174 96.2509 14.2627 96.5296 14.44C96.8083 14.6047 96.9476 14.8517 96.9476 15.181C96.9476 15.4344 96.8589 15.6497 96.6816 15.827C96.5043 16.0044 96.2446 16.1437 95.9026 16.245C95.5733 16.3337 95.1806 16.378 94.7246 16.378C94.0913 16.378 93.4643 16.3147 92.8436 16.188C92.2356 16.0487 91.6719 15.8524 91.1526 15.599L90.3546 17.67C91.0133 17.9994 91.7289 18.2464 92.5016 18.411C93.2869 18.5757 94.0723 18.658 94.8576 18.658ZM102.069 18.468V8.24602H107.294C108.573 8.24602 109.574 8.48035 110.296 8.94902C111.018 9.40502 111.379 10.051 111.379 10.887C111.379 11.723 111.037 12.3817 110.353 12.863C109.681 13.3317 108.788 13.566 107.674 13.566L107.978 12.882C109.219 12.882 110.144 13.11 110.752 13.566C111.372 14.022 111.683 14.687 111.683 15.561C111.683 16.4604 111.341 17.1697 110.657 17.689C109.973 18.2084 108.928 18.468 107.522 18.468H102.069ZM104.786 16.454H107.275C107.819 16.454 108.225 16.3654 108.491 16.188C108.769 15.998 108.909 15.713 108.909 15.333C108.909 14.9404 108.782 14.6554 108.529 14.478C108.275 14.288 107.876 14.193 107.332 14.193H104.786V16.454ZM104.786 12.445H107.028C107.547 12.445 107.933 12.35 108.187 12.16C108.453 11.97 108.586 11.6977 108.586 11.343C108.586 10.9757 108.453 10.7034 108.187 10.526C107.933 10.3487 107.547 10.26 107.028 10.26H104.786V12.445ZM113.888 18.468V8.24602H116.833V14.326L121.811 8.24602H124.528V18.468H121.583V12.388L116.624 18.468H113.888ZM127.377 18.468V8.24602H130.474L134.331 15.238H133.096L137.219 8.24602H139.993L140.031 18.468H137.352V11.286L137.808 11.59L134.293 17.48H133.039L129.505 11.381L130.056 11.248V18.468H127.377ZM153.396 18.468V8.24602H156.341V18.468H153.396ZM148.247 11.514C149.59 11.5267 150.597 11.8307 151.268 12.426C151.952 13.0087 152.294 13.8384 152.294 14.915C152.294 16.0424 151.908 16.9227 151.135 17.556C150.363 18.1767 149.267 18.487 147.848 18.487L142.87 18.468V8.24602H145.815V11.514H148.247ZM147.582 16.378C148.152 16.3907 148.589 16.2704 148.893 16.017C149.197 15.7637 149.349 15.3837 149.349 14.877C149.349 14.3704 149.197 14.0094 148.893 13.794C148.589 13.566 148.152 13.4457 147.582 13.433L145.815 13.414V16.378H147.582ZM164.195 18.62C163.03 18.62 162.004 18.392 161.117 17.936C160.243 17.48 159.566 16.8594 159.084 16.074C158.603 15.276 158.362 14.3704 158.362 13.357C158.362 12.331 158.597 11.4254 159.065 10.64C159.547 9.84202 160.199 9.22135 161.022 8.77802C161.846 8.32202 162.777 8.09402 163.815 8.09402C164.816 8.09402 165.715 8.30935 166.513 8.74002C167.324 9.15802 167.964 9.76602 168.432 10.564C168.901 11.3494 169.135 12.293 169.135 13.395C169.135 13.509 169.129 13.642 169.116 13.794C169.104 13.9334 169.091 14.0664 169.078 14.193H160.775V12.464H167.52L166.38 12.977C166.38 12.445 166.273 11.9827 166.057 11.59C165.842 11.1974 165.544 10.8934 165.164 10.678C164.784 10.45 164.341 10.336 163.834 10.336C163.328 10.336 162.878 10.45 162.485 10.678C162.105 10.8934 161.808 11.2037 161.592 11.609C161.377 12.0017 161.269 12.4704 161.269 13.015V13.471C161.269 14.0284 161.39 14.5224 161.63 14.953C161.884 15.371 162.232 15.694 162.675 15.922C163.131 16.1374 163.663 16.245 164.271 16.245C164.816 16.245 165.291 16.1627 165.696 15.998C166.114 15.8334 166.494 15.5864 166.836 15.257L168.413 16.967C167.945 17.499 167.356 17.9107 166.646 18.202C165.937 18.4807 165.12 18.62 164.195 18.62ZM175.496 18.449L175.648 16.017C175.724 16.0297 175.8 16.0424 175.876 16.055C175.952 16.055 176.022 16.055 176.085 16.055C176.44 16.055 176.719 15.9537 176.921 15.751C177.124 15.5484 177.276 15.276 177.377 14.934C177.479 14.5794 177.548 14.1804 177.586 13.737C177.637 13.2937 177.675 12.8314 177.7 12.35L177.852 8.24602H186.592V18.468H183.628V9.95602L184.293 10.678H179.809L180.436 9.91802L180.303 12.483C180.265 13.395 180.189 14.231 180.075 14.991C179.974 15.751 179.803 16.4097 179.562 16.967C179.322 17.5117 178.999 17.936 178.593 18.24C178.188 18.5314 177.669 18.677 177.035 18.677C176.807 18.677 176.567 18.658 176.313 18.62C176.06 18.582 175.788 18.525 175.496 18.449ZM189.443 18.468V8.24602H192.388V14.326L197.366 8.24602H200.083V18.468H197.138V12.388L192.179 18.468H189.443ZM202.932 18.468V8.24602H205.877V16.036H210V8.24602H212.964V18.468H202.932ZM211.691 20.672V18.43L212.375 18.468H210V16.036H214.446V20.672H211.691ZM222.428 18.468V16.473L222.238 16.036V12.464C222.238 11.8307 222.041 11.3367 221.649 10.982C221.269 10.6274 220.68 10.45 219.882 10.45C219.337 10.45 218.799 10.5387 218.267 10.716C217.747 10.8807 217.304 11.1087 216.937 11.4L215.873 9.32902C216.43 8.93635 217.101 8.63235 217.887 8.41702C218.672 8.20168 219.47 8.09402 220.281 8.09402C221.839 8.09402 223.048 8.46135 223.91 9.19602C224.771 9.93068 225.202 11.077 225.202 12.635V18.468H222.428ZM219.312 18.62C218.514 18.62 217.83 18.487 217.26 18.221C216.69 17.9424 216.253 17.5687 215.949 17.1C215.645 16.6314 215.493 16.1057 215.493 15.523C215.493 14.915 215.638 14.383 215.93 13.927C216.234 13.471 216.709 13.1164 217.355 12.863C218.001 12.597 218.843 12.464 219.882 12.464H222.599V14.193H220.205C219.508 14.193 219.027 14.307 218.761 14.535C218.507 14.763 218.381 15.048 218.381 15.39C218.381 15.77 218.526 16.074 218.818 16.302C219.122 16.5174 219.533 16.625 220.053 16.625C220.547 16.625 220.99 16.511 221.383 16.283C221.775 16.0424 222.06 15.694 222.238 15.238L222.694 16.606C222.478 17.2647 222.086 17.765 221.516 18.107C220.946 18.449 220.211 18.62 219.312 18.62Z" fill="white"/>
<path d="M67.109 64.492C67.8437 64.7073 68.458 64.7707 68.952 64.682C69.4587 64.5807 69.9083 64.226 70.301 63.618L70.947 62.649L71.232 62.326L75.64 53.7H78.661L72.999 64.226C72.4923 65.176 71.8907 65.9043 71.194 66.411C70.51 66.9177 69.7563 67.2027 68.933 67.266C68.1097 67.342 67.2547 67.1963 66.368 66.829L67.109 64.492ZM71.175 64.891L65.171 53.7H68.458L72.866 62.63L71.175 64.891ZM86.0027 67V63.599L86.4207 64.074H83.5897C82.1204 64.074 80.9677 63.77 80.1317 63.162C79.2957 62.554 78.8777 61.68 78.8777 60.54C78.8777 59.324 79.3147 58.393 80.1887 57.747C81.0754 57.101 82.2661 56.778 83.7607 56.778H88.6437V67H86.0027ZM78.7257 67L81.4427 63.105H84.4637L81.8797 67H78.7257ZM86.0027 62.687V58.431L86.4207 59.191H83.8177C83.2097 59.191 82.7347 59.305 82.3927 59.533C82.0634 59.761 81.8987 60.1283 81.8987 60.635C81.8987 61.6103 82.5257 62.098 83.7797 62.098H86.4207L86.0027 62.687ZM94.8576 67.19C95.8203 67.19 96.6816 67.0633 97.4416 66.81C98.2143 66.544 98.8223 66.1703 99.2656 65.689C99.7216 65.195 99.9496 64.6187 99.9496 63.96C99.9496 63.1873 99.6266 62.5793 98.9806 62.136C98.3346 61.68 97.4479 61.452 96.3206 61.452L96.2446 62.041C96.8906 62.041 97.4733 61.9333 97.9926 61.718C98.5119 61.49 98.9173 61.1797 99.2086 60.787C99.5126 60.3943 99.6646 59.951 99.6646 59.457C99.6646 58.8363 99.4429 58.3107 98.9996 57.88C98.5689 57.4493 97.9736 57.12 97.2136 56.892C96.4536 56.664 95.5986 56.5627 94.6486 56.588C94.0026 56.6007 93.3503 56.6893 92.6916 56.854C92.0329 57.0187 91.3679 57.2403 90.6966 57.519L91.4186 59.571C91.9886 59.343 92.5459 59.172 93.0906 59.058C93.6353 58.9313 94.1609 58.868 94.6676 58.868C95.1109 58.868 95.4783 58.9123 95.7696 59.001C96.0609 59.077 96.2826 59.191 96.4346 59.343C96.5866 59.495 96.6626 59.6787 96.6626 59.894C96.6626 60.0967 96.5993 60.274 96.4726 60.426C96.3586 60.5653 96.1813 60.673 95.9406 60.749C95.6999 60.825 95.4086 60.863 95.0666 60.863H93.2236V62.706H95.3136C95.8456 62.706 96.2509 62.7947 96.5296 62.972C96.8083 63.1367 96.9476 63.3837 96.9476 63.713C96.9476 63.9663 96.8589 64.1817 96.6816 64.359C96.5043 64.5363 96.2446 64.6757 95.9026 64.777C95.5733 64.8657 95.1806 64.91 94.7246 64.91C94.0913 64.91 93.4643 64.8467 92.8436 64.72C92.2356 64.5807 91.6719 64.3843 91.1526 64.131L90.3546 66.202C91.0133 66.5313 91.7289 66.7783 92.5016 66.943C93.2869 67.1077 94.0723 67.19 94.8576 67.19ZM102.069 67V56.778H107.294C108.573 56.778 109.574 57.0123 110.296 57.481C111.018 57.937 111.379 58.583 111.379 59.419C111.379 60.255 111.037 60.9137 110.353 61.395C109.681 61.8637 108.788 62.098 107.674 62.098L107.978 61.414C109.219 61.414 110.144 61.642 110.752 62.098C111.372 62.554 111.683 63.219 111.683 64.093C111.683 64.9923 111.341 65.7017 110.657 66.221C109.973 66.7403 108.928 67 107.522 67H102.069ZM104.786 64.986H107.275C107.819 64.986 108.225 64.8973 108.491 64.72C108.769 64.53 108.909 64.245 108.909 63.865C108.909 63.4723 108.782 63.1873 108.529 63.01C108.275 62.82 107.876 62.725 107.332 62.725H104.786V64.986ZM104.786 60.977H107.028C107.547 60.977 107.933 60.882 108.187 60.692C108.453 60.502 108.586 60.2297 108.586 59.875C108.586 59.5077 108.453 59.2353 108.187 59.058C107.933 58.8807 107.547 58.792 107.028 58.792H104.786V60.977ZM113.888 67V56.778H116.833V62.858L121.811 56.778H124.528V67H121.583V60.92L116.624 67H113.888ZM127.377 67V56.778H130.474L134.331 63.77H133.096L137.219 56.778H139.993L140.031 67H137.352V59.818L137.808 60.122L134.293 66.012H133.039L129.505 59.913L130.056 59.78V67H127.377ZM153.396 67V56.778H156.341V67H153.396ZM148.247 60.046C149.59 60.0587 150.597 60.3627 151.268 60.958C151.952 61.5407 152.294 62.3703 152.294 63.447C152.294 64.5743 151.908 65.4547 151.135 66.088C150.363 66.7087 149.267 67.019 147.848 67.019L142.87 67V56.778H145.815V60.046H148.247ZM147.582 64.91C148.152 64.9227 148.589 64.8023 148.893 64.549C149.197 64.2957 149.349 63.9157 149.349 63.409C149.349 62.9023 149.197 62.5413 148.893 62.326C148.589 62.098 148.152 61.9777 147.582 61.965L145.815 61.946V64.91H147.582ZM164.195 67.152C163.03 67.152 162.004 66.924 161.117 66.468C160.243 66.012 159.566 65.3913 159.084 64.606C158.603 63.808 158.362 62.9023 158.362 61.889C158.362 60.863 158.597 59.9573 159.065 59.172C159.547 58.374 160.199 57.7533 161.022 57.31C161.846 56.854 162.777 56.626 163.815 56.626C164.816 56.626 165.715 56.8413 166.513 57.272C167.324 57.69 167.964 58.298 168.432 59.096C168.901 59.8813 169.135 60.825 169.135 61.927C169.135 62.041 169.129 62.174 169.116 62.326C169.104 62.4653 169.091 62.5983 169.078 62.725H160.775V60.996H167.52L166.38 61.509C166.38 60.977 166.273 60.5147 166.057 60.122C165.842 59.7293 165.544 59.4253 165.164 59.21C164.784 58.982 164.341 58.868 163.834 58.868C163.328 58.868 162.878 58.982 162.485 59.21C162.105 59.4253 161.808 59.7357 161.592 60.141C161.377 60.5337 161.269 61.0023 161.269 61.547V62.003C161.269 62.5603 161.39 63.0543 161.63 63.485C161.884 63.903 162.232 64.226 162.675 64.454C163.131 64.6693 163.663 64.777 164.271 64.777C164.816 64.777 165.291 64.6947 165.696 64.53C166.114 64.3653 166.494 64.1183 166.836 63.789L168.413 65.499C167.945 66.031 167.356 66.4427 166.646 66.734C165.937 67.0127 165.12 67.152 164.195 67.152ZM176.788 67V56.778H182.013C183.293 56.778 184.293 57.0123 185.015 57.481C185.737 57.937 186.098 58.583 186.098 59.419C186.098 60.255 185.756 60.9137 185.072 61.395C184.401 61.8637 183.508 62.098 182.393 62.098L182.697 61.414C183.939 61.414 184.863 61.642 185.471 62.098C186.092 62.554 186.402 63.219 186.402 64.093C186.402 64.9923 186.06 65.7017 185.376 66.221C184.692 66.7403 183.647 67 182.241 67H176.788ZM179.505 64.986H181.994C182.539 64.986 182.944 64.8973 183.21 64.72C183.489 64.53 183.628 64.245 183.628 63.865C183.628 63.4723 183.502 63.1873 183.248 63.01C182.995 62.82 182.596 62.725 182.051 62.725H179.505V64.986ZM179.505 60.977H181.747C182.267 60.977 182.653 60.882 182.906 60.692C183.172 60.502 183.305 60.2297 183.305 59.875C183.305 59.5077 183.172 59.2353 182.906 59.058C182.653 58.8807 182.267 58.792 181.747 58.792H179.505V60.977ZM193.396 67.152C192.306 67.152 191.337 66.924 190.489 66.468C189.653 66.012 188.988 65.3913 188.494 64.606C188.012 63.808 187.772 62.9023 187.772 61.889C187.772 60.863 188.012 59.9573 188.494 59.172C188.988 58.374 189.653 57.7533 190.489 57.31C191.337 56.854 192.306 56.626 193.396 56.626C194.472 56.626 195.435 56.854 196.284 57.31C197.132 57.7533 197.797 58.3677 198.279 59.153C198.76 59.9383 199.001 60.8503 199.001 61.889C199.001 62.9023 198.76 63.808 198.279 64.606C197.797 65.3913 197.132 66.012 196.284 66.468C195.435 66.924 194.472 67.152 193.396 67.152ZM193.396 64.72C193.89 64.72 194.333 64.606 194.726 64.378C195.118 64.15 195.429 63.827 195.657 63.409C195.885 62.9783 195.999 62.4717 195.999 61.889C195.999 61.2937 195.885 60.787 195.657 60.369C195.429 59.951 195.118 59.628 194.726 59.4C194.333 59.172 193.89 59.058 193.396 59.058C192.902 59.058 192.458 59.172 192.066 59.4C191.673 59.628 191.356 59.951 191.116 60.369C190.888 60.787 190.774 61.2937 190.774 61.889C190.774 62.4717 190.888 62.9783 191.116 63.409C191.356 63.827 191.673 64.15 192.066 64.378C192.458 64.606 192.902 64.72 193.396 64.72ZM204.312 67.19C205.274 67.19 206.136 67.0633 206.896 66.81C207.668 66.544 208.276 66.1703 208.72 65.689C209.176 65.195 209.404 64.6187 209.404 63.96C209.404 63.1873 209.081 62.5793 208.435 62.136C207.789 61.68 206.902 61.452 205.775 61.452L205.699 62.041C206.345 62.041 206.927 61.9333 207.447 61.718C207.966 61.49 208.371 61.1797 208.663 60.787C208.967 60.3943 209.119 59.951 209.119 59.457C209.119 58.8363 208.897 58.3107 208.454 57.88C208.023 57.4493 207.428 57.12 206.668 56.892C205.908 56.664 205.053 56.5627 204.103 56.588C203.457 56.6007 202.804 56.6893 202.146 56.854C201.487 57.0187 200.822 57.2403 200.151 57.519L200.873 59.571C201.443 59.343 202 59.172 202.545 59.058C203.089 58.9313 203.615 58.868 204.122 58.868C204.565 58.868 204.932 58.9123 205.224 59.001C205.515 59.077 205.737 59.191 205.889 59.343C206.041 59.495 206.117 59.6787 206.117 59.894C206.117 60.0967 206.053 60.274 205.927 60.426C205.813 60.5653 205.635 60.673 205.395 60.749C205.154 60.825 204.863 60.863 204.521 60.863H202.678V62.706H204.768C205.3 62.706 205.705 62.7947 205.984 62.972C206.262 63.1367 206.402 63.3837 206.402 63.713C206.402 63.9663 206.313 64.1817 206.136 64.359C205.958 64.5363 205.699 64.6757 205.357 64.777C205.027 64.8657 204.635 64.91 204.179 64.91C203.545 64.91 202.918 64.8467 202.298 64.72C201.69 64.5807 201.126 64.3843 200.607 64.131L199.809 66.202C200.467 66.5313 201.183 66.7783 201.956 66.943C202.741 67.1077 203.526 67.19 204.312 67.19ZM217.546 67.152C216.684 67.152 215.931 66.962 215.285 66.582C214.639 66.202 214.132 65.6257 213.765 64.853C213.41 64.0677 213.233 63.0797 213.233 61.889C213.233 60.6857 213.404 59.6977 213.746 58.925C214.088 58.1523 214.582 57.576 215.228 57.196C215.874 56.816 216.646 56.626 217.546 56.626C218.508 56.626 219.37 56.8477 220.13 57.291C220.902 57.7217 221.51 58.3297 221.954 59.115C222.41 59.9003 222.638 60.825 222.638 61.889C222.638 62.9657 222.41 63.8967 221.954 64.682C221.51 65.4673 220.902 66.0753 220.13 66.506C219.37 66.9367 218.508 67.152 217.546 67.152ZM211.504 70.686V56.778H214.335V58.868L214.278 61.908L214.468 64.929V70.686H211.504ZM217.033 64.72C217.527 64.72 217.964 64.606 218.344 64.378C218.736 64.15 219.047 63.827 219.275 63.409C219.515 62.9783 219.636 62.4717 219.636 61.889C219.636 61.2937 219.515 60.787 219.275 60.369C219.047 59.951 218.736 59.628 218.344 59.4C217.964 59.172 217.527 59.058 217.033 59.058C216.539 59.058 216.095 59.172 215.703 59.4C215.31 59.628 215 59.951 214.772 60.369C214.544 60.787 214.43 61.2937 214.43 61.889C214.43 62.4717 214.544 62.9783 214.772 63.409C215 63.827 215.31 64.15 215.703 64.378C216.095 64.606 216.539 64.72 217.033 64.72ZM230.666 67V65.005L230.476 64.568V60.996C230.476 60.3627 230.28 59.8687 229.887 59.514C229.507 59.1593 228.918 58.982 228.12 58.982C227.575 58.982 227.037 59.0707 226.505 59.248C225.986 59.4127 225.542 59.6407 225.175 59.932L224.111 57.861C224.668 57.4683 225.34 57.1643 226.125 56.949C226.91 56.7337 227.708 56.626 228.519 56.626C230.077 56.626 231.287 56.9933 232.148 57.728C233.009 58.4627 233.44 59.609 233.44 61.167V67H230.666ZM227.55 67.152C226.752 67.152 226.068 67.019 225.498 66.753C224.928 66.4743 224.491 66.1007 224.187 65.632C223.883 65.1633 223.731 64.6377 223.731 64.055C223.731 63.447 223.877 62.915 224.168 62.459C224.472 62.003 224.947 61.6483 225.593 61.395C226.239 61.129 227.081 60.996 228.12 60.996H230.837V62.725H228.443C227.746 62.725 227.265 62.839 226.999 63.067C226.746 63.295 226.619 63.58 226.619 63.922C226.619 64.302 226.765 64.606 227.056 64.834C227.36 65.0493 227.772 65.157 228.291 65.157C228.785 65.157 229.228 65.043 229.621 64.815C230.014 64.5743 230.299 64.226 230.476 63.77L230.932 65.138C230.717 65.7967 230.324 66.297 229.754 66.639C229.184 66.981 228.449 67.152 227.55 67.152ZM240.879 67.152C239.777 67.152 238.795 66.9303 237.934 66.487C237.073 66.031 236.395 65.404 235.901 64.606C235.42 63.808 235.179 62.9023 235.179 61.889C235.179 60.863 235.42 59.9573 235.901 59.172C236.395 58.374 237.073 57.7533 237.934 57.31C238.795 56.854 239.777 56.626 240.879 56.626C241.956 56.626 242.893 56.854 243.691 57.31C244.489 57.7533 245.078 58.393 245.458 59.229L243.159 60.464C242.893 59.9827 242.557 59.628 242.152 59.4C241.759 59.172 241.329 59.058 240.86 59.058C240.353 59.058 239.897 59.172 239.492 59.4C239.087 59.628 238.764 59.951 238.523 60.369C238.295 60.787 238.181 61.2937 238.181 61.889C238.181 62.4843 238.295 62.991 238.523 63.409C238.764 63.827 239.087 64.15 239.492 64.378C239.897 64.606 240.353 64.72 240.86 64.72C241.329 64.72 241.759 64.6123 242.152 64.397C242.557 64.169 242.893 63.808 243.159 63.314L245.458 64.568C245.078 65.3913 244.489 66.031 243.691 66.487C242.893 66.9303 241.956 67.152 240.879 67.152ZM249.425 67V58.526L250.09 59.21H245.967V56.778H255.828V59.21H251.705L252.37 58.526V67H249.425ZM257.408 67V56.778H260.353V60.768H264.799V56.778H267.763V67H264.799V63.181H260.353V67H257.408ZM281.127 67V56.778H284.072V67H281.127ZM275.978 60.046C277.32 60.0587 278.327 60.3627 278.999 60.958C279.683 61.5407 280.025 62.3703 280.025 63.447C280.025 64.5743 279.638 65.4547 278.866 66.088C278.093 66.7087 276.997 67.019 275.579 67.019L270.601 67V56.778H273.546V60.046H275.978ZM275.313 64.91C275.883 64.9227 276.32 64.8023 276.624 64.549C276.928 64.2957 277.08 63.9157 277.08 63.409C277.08 62.9023 276.928 62.5413 276.624 62.326C276.32 62.098 275.883 61.9777 275.313 61.965L273.546 61.946V64.91H275.313ZM291.926 67.152C290.761 67.152 289.735 66.924 288.848 66.468C287.974 66.012 287.296 65.3913 286.815 64.606C286.334 63.808 286.093 62.9023 286.093 61.889C286.093 60.863 286.327 59.9573 286.796 59.172C287.277 58.374 287.93 57.7533 288.753 57.31C289.576 56.854 290.507 56.626 291.546 56.626C292.547 56.626 293.446 56.8413 294.244 57.272C295.055 57.69 295.694 58.298 296.163 59.096C296.632 59.8813 296.866 60.825 296.866 61.927C296.866 62.041 296.86 62.174 296.847 62.326C296.834 62.4653 296.822 62.5983 296.809 62.725H288.506V60.996H295.251L294.111 61.509C294.111 60.977 294.003 60.5147 293.788 60.122C293.573 59.7293 293.275 59.4253 292.895 59.21C292.515 58.982 292.072 58.868 291.565 58.868C291.058 58.868 290.609 58.982 290.216 59.21C289.836 59.4253 289.538 59.7357 289.323 60.141C289.108 60.5337 289 61.0023 289 61.547V62.003C289 62.5603 289.12 63.0543 289.361 63.485C289.614 63.903 289.963 64.226 290.406 64.454C290.862 64.6693 291.394 64.777 292.002 64.777C292.547 64.777 293.022 64.6947 293.427 64.53C293.845 64.3653 294.225 64.1183 294.567 63.789L296.144 65.499C295.675 66.031 295.086 66.4427 294.377 66.734C293.668 67.0127 292.851 67.152 291.926 67.152ZM66.425 90V79.778H74.614V82.21H68.705L69.37 81.564V90H66.425ZM82.2078 90.152C81.3464 90.152 80.5928 89.962 79.9468 89.582C79.3008 89.202 78.7941 88.6257 78.4268 87.853C78.0721 87.0677 77.8948 86.0797 77.8948 84.889C77.8948 83.6857 78.0658 82.6977 78.4078 81.925C78.7498 81.1523 79.2438 80.576 79.8898 80.196C80.5358 79.816 81.3084 79.626 82.2078 79.626C83.1704 79.626 84.0318 79.8477 84.7918 80.291C85.5644 80.7217 86.1724 81.3297 86.6158 82.115C87.0718 82.9003 87.2998 83.825 87.2998 84.889C87.2998 85.9657 87.0718 86.8967 86.6158 87.682C86.1724 88.4673 85.5644 89.0753 84.7918 89.506C84.0318 89.9367 83.1704 90.152 82.2078 90.152ZM76.1658 93.686V79.778H78.9968V81.868L78.9398 84.908L79.1298 87.929V93.686H76.1658ZM81.6948 87.72C82.1888 87.72 82.6258 87.606 83.0058 87.378C83.3984 87.15 83.7088 86.827 83.9368 86.409C84.1774 85.9783 84.2978 85.4717 84.2978 84.889C84.2978 84.2937 84.1774 83.787 83.9368 83.369C83.7088 82.951 83.3984 82.628 83.0058 82.4C82.6258 82.172 82.1888 82.058 81.6948 82.058C81.2008 82.058 80.7574 82.172 80.3648 82.4C79.9721 82.628 79.6618 82.951 79.4338 83.369C79.2058 83.787 79.0918 84.2937 79.0918 84.889C79.0918 85.4717 79.2058 85.9783 79.4338 86.409C79.6618 86.827 79.9721 87.15 80.3648 87.378C80.7574 87.606 81.2008 87.72 81.6948 87.72ZM90.4858 93.838C89.9538 93.838 89.4282 93.7557 88.9088 93.591C88.3895 93.4263 87.9652 93.1983 87.6358 92.907L88.7188 90.798C88.9468 91.0007 89.2065 91.159 89.4978 91.273C89.8018 91.387 90.0995 91.444 90.3908 91.444C90.8088 91.444 91.1382 91.3427 91.3788 91.14C91.6322 90.95 91.8602 90.627 92.0628 90.171L92.5948 88.917L92.8228 88.594L96.4898 79.778H99.3398L94.7228 90.627C94.3935 91.4503 94.0135 92.0963 93.5828 92.565C93.1648 93.0337 92.6962 93.363 92.1768 93.553C91.6702 93.743 91.1065 93.838 90.4858 93.838ZM92.2338 90.399L87.6738 79.778H90.7328L94.2668 88.328L92.2338 90.399ZM100.77 90V79.778H110.935V90H107.971V81.545L108.636 82.21H103.05L103.715 81.545V90H100.77ZM113.777 90V79.778H123.942V90H120.978V81.545L121.643 82.21H116.057L116.722 81.545V90H113.777ZM137.309 90V79.778H140.254V90H137.309ZM132.16 83.046C133.503 83.0587 134.51 83.3627 135.181 83.958C135.865 84.5407 136.207 85.3703 136.207 86.447C136.207 87.5743 135.821 88.4547 135.048 89.088C134.276 89.7087 133.18 90.019 131.761 90.019L126.783 90V79.778H129.728V83.046H132.16ZM131.495 87.91C132.065 87.9227 132.502 87.8023 132.806 87.549C133.11 87.2957 133.262 86.9157 133.262 86.409C133.262 85.9023 133.11 85.5413 132.806 85.326C132.502 85.098 132.065 84.9777 131.495 84.965L129.728 84.946V87.91H131.495Z" fill="white"/>
<path d="M67.109 127.15C67.8437 127.366 68.458 127.429 68.952 127.34C69.4587 127.239 69.9083 126.884 70.301 126.276L70.947 125.307L71.232 124.984L75.64 116.358H78.661L72.999 126.884C72.4923 127.834 71.8907 128.563 71.194 129.069C70.51 129.576 69.7563 129.861 68.933 129.924C68.1097 130 67.2547 129.855 66.368 129.487L67.109 127.15ZM71.175 127.549L65.171 116.358H68.458L72.866 125.288L71.175 127.549ZM86.0027 129.658V126.257L86.4207 126.732H83.5897C82.1204 126.732 80.9677 126.428 80.1317 125.82C79.2957 125.212 78.8777 124.338 78.8777 123.198C78.8777 121.982 79.3147 121.051 80.1887 120.405C81.0754 119.759 82.2661 119.436 83.7607 119.436H88.6437V129.658H86.0027ZM78.7257 129.658L81.4427 125.763H84.4637L81.8797 129.658H78.7257ZM86.0027 125.345V121.089L86.4207 121.849H83.8177C83.2097 121.849 82.7347 121.963 82.3927 122.191C82.0634 122.419 81.8987 122.787 81.8987 123.293C81.8987 124.269 82.5257 124.756 83.7797 124.756H86.4207L86.0027 125.345ZM94.8576 129.848C95.8203 129.848 96.6816 129.722 97.4416 129.468C98.2143 129.202 98.8223 128.829 99.2656 128.347C99.7216 127.853 99.9496 127.277 99.9496 126.618C99.9496 125.846 99.6266 125.238 98.9806 124.794C98.3346 124.338 97.4479 124.11 96.3206 124.11L96.2446 124.699C96.8906 124.699 97.4733 124.592 97.9926 124.376C98.5119 124.148 98.9173 123.838 99.2086 123.445C99.5126 123.053 99.6646 122.609 99.6646 122.115C99.6646 121.495 99.4429 120.969 98.9996 120.538C98.5689 120.108 97.9736 119.778 97.2136 119.55C96.4536 119.322 95.5986 119.221 94.6486 119.246C94.0026 119.259 93.3503 119.348 92.6916 119.512C92.0329 119.677 91.3679 119.899 90.6966 120.177L91.4186 122.229C91.9886 122.001 92.5459 121.83 93.0906 121.716C93.6353 121.59 94.1609 121.526 94.6676 121.526C95.1109 121.526 95.4783 121.571 95.7696 121.659C96.0609 121.735 96.2826 121.849 96.4346 122.001C96.5866 122.153 96.6626 122.337 96.6626 122.552C96.6626 122.755 96.5993 122.932 96.4726 123.084C96.3586 123.224 96.1813 123.331 95.9406 123.407C95.6999 123.483 95.4086 123.521 95.0666 123.521H93.2236V125.364H95.3136C95.8456 125.364 96.2509 125.453 96.5296 125.63C96.8083 125.795 96.9476 126.042 96.9476 126.371C96.9476 126.625 96.8589 126.84 96.6816 127.017C96.5043 127.195 96.2446 127.334 95.9026 127.435C95.5733 127.524 95.1806 127.568 94.7246 127.568C94.0913 127.568 93.4643 127.505 92.8436 127.378C92.2356 127.239 91.6719 127.043 91.1526 126.789L90.3546 128.86C91.0133 129.19 91.7289 129.437 92.5016 129.601C93.2869 129.766 94.0723 129.848 94.8576 129.848ZM102.069 129.658V119.436H107.294C108.573 119.436 109.574 119.671 110.296 120.139C111.018 120.595 111.379 121.241 111.379 122.077C111.379 122.913 111.037 123.572 110.353 124.053C109.681 124.522 108.788 124.756 107.674 124.756L107.978 124.072C109.219 124.072 110.144 124.3 110.752 124.756C111.372 125.212 111.683 125.877 111.683 126.751C111.683 127.651 111.341 128.36 110.657 128.879C109.973 129.399 108.928 129.658 107.522 129.658H102.069ZM104.786 127.644H107.275C107.819 127.644 108.225 127.556 108.491 127.378C108.769 127.188 108.909 126.903 108.909 126.523C108.909 126.131 108.782 125.846 108.529 125.668C108.275 125.478 107.876 125.383 107.332 125.383H104.786V127.644ZM104.786 123.635H107.028C107.547 123.635 107.933 123.54 108.187 123.35C108.453 123.16 108.586 122.888 108.586 122.533C108.586 122.166 108.453 121.894 108.187 121.716C107.933 121.539 107.547 121.45 107.028 121.45H104.786V123.635ZM113.888 129.658V119.436H116.833V125.516L121.811 119.436H124.528V129.658H121.583V123.578L116.624 129.658H113.888ZM127.377 129.658V119.436H130.474L134.331 126.428H133.096L137.219 119.436H139.993L140.031 129.658H137.352V122.476L137.808 122.78L134.293 128.67H133.039L129.505 122.571L130.056 122.438V129.658H127.377ZM153.396 129.658V119.436H156.341V129.658H153.396ZM148.247 122.704C149.59 122.717 150.597 123.021 151.268 123.616C151.952 124.199 152.294 125.029 152.294 126.105C152.294 127.233 151.908 128.113 151.135 128.746C150.363 129.367 149.267 129.677 147.848 129.677L142.87 129.658V119.436H145.815V122.704H148.247ZM147.582 127.568C148.152 127.581 148.589 127.461 148.893 127.207C149.197 126.954 149.349 126.574 149.349 126.067C149.349 125.561 149.197 125.2 148.893 124.984C148.589 124.756 148.152 124.636 147.582 124.623L145.815 124.604V127.568H147.582ZM164.195 129.81C163.03 129.81 162.004 129.582 161.117 129.126C160.243 128.67 159.566 128.05 159.084 127.264C158.603 126.466 158.362 125.561 158.362 124.547C158.362 123.521 158.597 122.616 159.065 121.83C159.547 121.032 160.199 120.412 161.022 119.968C161.846 119.512 162.777 119.284 163.815 119.284C164.816 119.284 165.715 119.5 166.513 119.93C167.324 120.348 167.964 120.956 168.432 121.754C168.901 122.54 169.135 123.483 169.135 124.585C169.135 124.699 169.129 124.832 169.116 124.984C169.104 125.124 169.091 125.257 169.078 125.383H160.775V123.654H167.52L166.38 124.167C166.38 123.635 166.273 123.173 166.057 122.78C165.842 122.388 165.544 122.084 165.164 121.868C164.784 121.64 164.341 121.526 163.834 121.526C163.328 121.526 162.878 121.64 162.485 121.868C162.105 122.084 161.808 122.394 161.592 122.799C161.377 123.192 161.269 123.661 161.269 124.205V124.661C161.269 125.219 161.39 125.713 161.63 126.143C161.884 126.561 162.232 126.884 162.675 127.112C163.131 127.328 163.663 127.435 164.271 127.435C164.816 127.435 165.291 127.353 165.696 127.188C166.114 127.024 166.494 126.777 166.836 126.447L168.413 128.157C167.945 128.689 167.356 129.101 166.646 129.392C165.937 129.671 165.12 129.81 164.195 129.81ZM181.652 129.81C180.55 129.81 179.569 129.589 178.707 129.145C177.846 128.689 177.168 128.062 176.674 127.264C176.193 126.466 175.952 125.561 175.952 124.547C175.952 123.521 176.193 122.616 176.674 121.83C177.168 121.032 177.846 120.412 178.707 119.968C179.569 119.512 180.55 119.284 181.652 119.284C182.729 119.284 183.666 119.512 184.464 119.968C185.262 120.412 185.851 121.051 186.231 121.887L183.932 123.122C183.666 122.641 183.331 122.286 182.925 122.058C182.533 121.83 182.102 121.716 181.633 121.716C181.127 121.716 180.671 121.83 180.265 122.058C179.86 122.286 179.537 122.609 179.296 123.027C179.068 123.445 178.954 123.952 178.954 124.547C178.954 125.143 179.068 125.649 179.296 126.067C179.537 126.485 179.86 126.808 180.265 127.036C180.671 127.264 181.127 127.378 181.633 127.378C182.102 127.378 182.533 127.271 182.925 127.055C183.331 126.827 183.666 126.466 183.932 125.972L186.231 127.226C185.851 128.05 185.262 128.689 184.464 129.145C183.666 129.589 182.729 129.81 181.652 129.81ZM192.9 129.81C191.734 129.81 190.708 129.582 189.822 129.126C188.948 128.67 188.27 128.05 187.789 127.264C187.307 126.466 187.067 125.561 187.067 124.547C187.067 123.521 187.301 122.616 187.77 121.83C188.251 121.032 188.903 120.412 189.727 119.968C190.55 119.512 191.481 119.284 192.52 119.284C193.52 119.284 194.42 119.5 195.218 119.93C196.028 120.348 196.668 120.956 197.137 121.754C197.605 122.54 197.84 123.483 197.84 124.585C197.84 124.699 197.833 124.832 197.821 124.984C197.808 125.124 197.795 125.257 197.783 125.383H189.48V123.654H196.225L195.085 124.167C195.085 123.635 194.977 123.173 194.762 122.78C194.546 122.388 194.249 122.084 193.869 121.868C193.489 121.64 193.045 121.526 192.539 121.526C192.032 121.526 191.582 121.64 191.19 121.868C190.81 122.084 190.512 122.394 190.297 122.799C190.081 123.192 189.974 123.661 189.974 124.205V124.661C189.974 125.219 190.094 125.713 190.335 126.143C190.588 126.561 190.936 126.884 191.38 127.112C191.836 127.328 192.368 127.435 192.976 127.435C193.52 127.435 193.995 127.353 194.401 127.188C194.819 127.024 195.199 126.777 195.541 126.447L197.118 128.157C196.649 128.689 196.06 129.101 195.351 129.392C194.641 129.671 193.824 129.81 192.9 129.81ZM200.112 129.658V119.436H203.209L207.066 126.428H205.831L209.954 119.436H212.728L212.766 129.658H210.087V122.476L210.543 122.78L207.028 128.67H205.774L202.24 122.571L202.791 122.438V129.658H200.112ZM221.134 122.704C222.476 122.717 223.496 123.021 224.193 123.616C224.902 124.199 225.257 125.029 225.257 126.105C225.257 127.233 224.858 128.113 224.06 128.746C223.262 129.367 222.153 129.677 220.735 129.677L215.605 129.658V119.436H218.55V122.704H221.134ZM220.469 127.568C221.039 127.581 221.476 127.461 221.78 127.207C222.084 126.954 222.236 126.574 222.236 126.067C222.236 125.561 222.084 125.2 221.78 124.984C221.476 124.756 221.039 124.636 220.469 124.623L218.55 124.604V127.568H220.469ZM227.109 129.658V119.436H230.054V125.516L235.032 119.436H237.749V129.658H234.804V123.578L229.845 129.658H227.109Z" fill="white"/>
<path d="M67.109 182.746C67.8437 182.961 68.458 183.025 68.952 182.936C69.4587 182.835 69.9083 182.48 70.301 181.872L70.947 180.903L71.232 180.58L75.64 171.954H78.661L72.999 182.48C72.4923 183.43 71.8907 184.158 71.194 184.665C70.51 185.172 69.7563 185.457 68.933 185.52C68.1097 185.596 67.2547 185.45 66.368 185.083L67.109 182.746ZM71.175 183.145L65.171 171.954H68.458L72.866 180.884L71.175 183.145ZM86.0027 185.254V181.853L86.4207 182.328H83.5897C82.1204 182.328 80.9677 182.024 80.1317 181.416C79.2957 180.808 78.8777 179.934 78.8777 178.794C78.8777 177.578 79.3147 176.647 80.1887 176.001C81.0754 175.355 82.2661 175.032 83.7607 175.032H88.6437V185.254H86.0027ZM78.7257 185.254L81.4427 181.359H84.4637L81.8797 185.254H78.7257ZM86.0027 180.941V176.685L86.4207 177.445H83.8177C83.2097 177.445 82.7347 177.559 82.3927 177.787C82.0634 178.015 81.8987 178.382 81.8987 178.889C81.8987 179.864 82.5257 180.352 83.7797 180.352H86.4207L86.0027 180.941ZM94.8576 185.444C95.8203 185.444 96.6816 185.317 97.4416 185.064C98.2143 184.798 98.8223 184.424 99.2656 183.943C99.7216 183.449 99.9496 182.873 99.9496 182.214C99.9496 181.441 99.6266 180.833 98.9806 180.39C98.3346 179.934 97.4479 179.706 96.3206 179.706L96.2446 180.295C96.8906 180.295 97.4733 180.187 97.9926 179.972C98.5119 179.744 98.9173 179.434 99.2086 179.041C99.5126 178.648 99.6646 178.205 99.6646 177.711C99.6646 177.09 99.4429 176.565 98.9996 176.134C98.5689 175.703 97.9736 175.374 97.2136 175.146C96.4536 174.918 95.5986 174.817 94.6486 174.842C94.0026 174.855 93.3503 174.943 92.6916 175.108C92.0329 175.273 91.3679 175.494 90.6966 175.773L91.4186 177.825C91.9886 177.597 92.5459 177.426 93.0906 177.312C93.6353 177.185 94.1609 177.122 94.6676 177.122C95.1109 177.122 95.4783 177.166 95.7696 177.255C96.0609 177.331 96.2826 177.445 96.4346 177.597C96.5866 177.749 96.6626 177.933 96.6626 178.148C96.6626 178.351 96.5993 178.528 96.4726 178.68C96.3586 178.819 96.1813 178.927 95.9406 179.003C95.6999 179.079 95.4086 179.117 95.0666 179.117H93.2236V180.96H95.3136C95.8456 180.96 96.2509 181.049 96.5296 181.226C96.8083 181.391 96.9476 181.638 96.9476 181.967C96.9476 182.22 96.8589 182.436 96.6816 182.613C96.5043 182.79 96.2446 182.93 95.9026 183.031C95.5733 183.12 95.1806 183.164 94.7246 183.164C94.0913 183.164 93.4643 183.101 92.8436 182.974C92.2356 182.835 91.6719 182.638 91.1526 182.385L90.3546 184.456C91.0133 184.785 91.7289 185.032 92.5016 185.197C93.2869 185.362 94.0723 185.444 94.8576 185.444ZM102.069 185.254V175.032H107.294C108.573 175.032 109.574 175.266 110.296 175.735C111.018 176.191 111.379 176.837 111.379 177.673C111.379 178.509 111.037 179.168 110.353 179.649C109.681 180.118 108.788 180.352 107.674 180.352L107.978 179.668C109.219 179.668 110.144 179.896 110.752 180.352C111.372 180.808 111.683 181.473 111.683 182.347C111.683 183.246 111.341 183.956 110.657 184.475C109.973 184.994 108.928 185.254 107.522 185.254H102.069ZM104.786 183.24H107.275C107.819 183.24 108.225 183.151 108.491 182.974C108.769 182.784 108.909 182.499 108.909 182.119C108.909 181.726 108.782 181.441 108.529 181.264C108.275 181.074 107.876 180.979 107.332 180.979H104.786V183.24ZM104.786 179.231H107.028C107.547 179.231 107.933 179.136 108.187 178.946C108.453 178.756 108.586 178.484 108.586 178.129C108.586 177.762 108.453 177.489 108.187 177.312C107.933 177.135 107.547 177.046 107.028 177.046H104.786V179.231ZM113.888 185.254V175.032H116.833V181.112L121.811 175.032H124.528V185.254H121.583V179.174L116.624 185.254H113.888ZM127.377 185.254V175.032H130.474L134.331 182.024H133.096L137.219 175.032H139.993L140.031 185.254H137.352V178.072L137.808 178.376L134.293 184.266H133.039L129.505 178.167L130.056 178.034V185.254H127.377ZM153.396 185.254V175.032H156.341V185.254H153.396ZM148.247 178.3C149.59 178.313 150.597 178.617 151.268 179.212C151.952 179.795 152.294 180.624 152.294 181.701C152.294 182.828 151.908 183.709 151.135 184.342C150.363 184.963 149.267 185.273 147.848 185.273L142.87 185.254V175.032H145.815V178.3H148.247ZM147.582 183.164C148.152 183.177 148.589 183.056 148.893 182.803C149.197 182.55 149.349 182.17 149.349 181.663C149.349 181.156 149.197 180.795 148.893 180.58C148.589 180.352 148.152 180.232 147.582 180.219L145.815 180.2V183.164H147.582ZM164.195 185.406C163.03 185.406 162.004 185.178 161.117 184.722C160.243 184.266 159.566 183.645 159.084 182.86C158.603 182.062 158.362 181.156 158.362 180.143C158.362 179.117 158.597 178.211 159.065 177.426C159.547 176.628 160.199 176.007 161.022 175.564C161.846 175.108 162.777 174.88 163.815 174.88C164.816 174.88 165.715 175.095 166.513 175.526C167.324 175.944 167.964 176.552 168.432 177.35C168.901 178.135 169.135 179.079 169.135 180.181C169.135 180.295 169.129 180.428 169.116 180.58C169.104 180.719 169.091 180.852 169.078 180.979H160.775V179.25H167.52L166.38 179.763C166.38 179.231 166.273 178.769 166.057 178.376C165.842 177.983 165.544 177.679 165.164 177.464C164.784 177.236 164.341 177.122 163.834 177.122C163.328 177.122 162.878 177.236 162.485 177.464C162.105 177.679 161.808 177.99 161.592 178.395C161.377 178.788 161.269 179.256 161.269 179.801V180.257C161.269 180.814 161.39 181.308 161.63 181.739C161.884 182.157 162.232 182.48 162.675 182.708C163.131 182.923 163.663 183.031 164.271 183.031C164.816 183.031 165.291 182.949 165.696 182.784C166.114 182.619 166.494 182.372 166.836 182.043L168.413 183.753C167.945 184.285 167.356 184.697 166.646 184.988C165.937 185.267 165.12 185.406 164.195 185.406ZM181.652 185.406C180.55 185.406 179.569 185.184 178.707 184.741C177.846 184.285 177.168 183.658 176.674 182.86C176.193 182.062 175.952 181.156 175.952 180.143C175.952 179.117 176.193 178.211 176.674 177.426C177.168 176.628 177.846 176.007 178.707 175.564C179.569 175.108 180.55 174.88 181.652 174.88C182.729 174.88 183.666 175.108 184.464 175.564C185.262 176.007 185.851 176.647 186.231 177.483L183.932 178.718C183.666 178.237 183.331 177.882 182.925 177.654C182.533 177.426 182.102 177.312 181.633 177.312C181.127 177.312 180.671 177.426 180.265 177.654C179.86 177.882 179.537 178.205 179.296 178.623C179.068 179.041 178.954 179.548 178.954 180.143C178.954 180.738 179.068 181.245 179.296 181.663C179.537 182.081 179.86 182.404 180.265 182.632C180.671 182.86 181.127 182.974 181.633 182.974C182.102 182.974 182.533 182.866 182.925 182.651C183.331 182.423 183.666 182.062 183.932 181.568L186.231 182.822C185.851 183.645 185.262 184.285 184.464 184.741C183.666 185.184 182.729 185.406 181.652 185.406ZM192.691 185.406C191.601 185.406 190.632 185.178 189.784 184.722C188.948 184.266 188.283 183.645 187.789 182.86C187.307 182.062 187.067 181.156 187.067 180.143C187.067 179.117 187.307 178.211 187.789 177.426C188.283 176.628 188.948 176.007 189.784 175.564C190.632 175.108 191.601 174.88 192.691 174.88C193.767 174.88 194.73 175.108 195.579 175.564C196.427 176.007 197.092 176.622 197.574 177.407C198.055 178.192 198.296 179.104 198.296 180.143C198.296 181.156 198.055 182.062 197.574 182.86C197.092 183.645 196.427 184.266 195.579 184.722C194.73 185.178 193.767 185.406 192.691 185.406ZM192.691 182.974C193.185 182.974 193.628 182.86 194.021 182.632C194.413 182.404 194.724 182.081 194.952 181.663C195.18 181.232 195.294 180.726 195.294 180.143C195.294 179.548 195.18 179.041 194.952 178.623C194.724 178.205 194.413 177.882 194.021 177.654C193.628 177.426 193.185 177.312 192.691 177.312C192.197 177.312 191.753 177.426 191.361 177.654C190.968 177.882 190.651 178.205 190.411 178.623C190.183 179.041 190.069 179.548 190.069 180.143C190.069 180.726 190.183 181.232 190.411 181.663C190.651 182.081 190.968 182.404 191.361 182.632C191.753 182.86 192.197 182.974 192.691 182.974ZM205.122 185.406C204.033 185.406 203.064 185.178 202.215 184.722C201.379 184.266 200.714 183.645 200.22 182.86C199.739 182.062 199.498 181.156 199.498 180.143C199.498 179.117 199.739 178.211 200.22 177.426C200.714 176.628 201.379 176.007 202.215 175.564C203.064 175.108 204.033 174.88 205.122 174.88C206.199 174.88 207.162 175.108 208.01 175.564C208.859 176.007 209.524 176.622 210.005 177.407C210.487 178.192 210.727 179.104 210.727 180.143C210.727 181.156 210.487 182.062 210.005 182.86C209.524 183.645 208.859 184.266 208.01 184.722C207.162 185.178 206.199 185.406 205.122 185.406ZM205.122 182.974C205.616 182.974 206.06 182.86 206.452 182.632C206.845 182.404 207.155 182.081 207.383 181.663C207.611 181.232 207.725 180.726 207.725 180.143C207.725 179.548 207.611 179.041 207.383 178.623C207.155 178.205 206.845 177.882 206.452 177.654C206.06 177.426 205.616 177.312 205.122 177.312C204.628 177.312 204.185 177.426 203.792 177.654C203.4 177.882 203.083 178.205 202.842 178.623C202.614 179.041 202.5 179.548 202.5 180.143C202.5 180.726 202.614 181.232 202.842 181.663C203.083 182.081 203.4 182.404 203.792 182.632C204.185 182.86 204.628 182.974 205.122 182.974ZM217.839 185.482C217.003 185.482 216.243 185.362 215.559 185.121C214.875 184.868 214.279 184.481 213.773 183.962C213.279 183.43 212.892 182.752 212.614 181.929C212.348 181.106 212.215 180.124 212.215 178.984C212.215 178.173 212.284 177.432 212.424 176.761C212.563 176.09 212.772 175.482 213.051 174.937C213.329 174.38 213.684 173.892 214.115 173.474C214.558 173.043 215.071 172.689 215.654 172.41C216.249 172.119 216.92 171.897 217.668 171.745L222.532 170.776L222.931 173.322L218.637 174.177C218.383 174.228 218.092 174.297 217.763 174.386C217.446 174.462 217.123 174.582 216.794 174.747C216.477 174.912 216.179 175.146 215.901 175.45C215.635 175.741 215.419 176.128 215.255 176.609C215.09 177.078 215.008 177.66 215.008 178.357C215.008 178.572 215.014 178.737 215.027 178.851C215.052 178.965 215.071 179.085 215.084 179.212C215.109 179.339 215.122 179.535 215.122 179.801L214.172 178.87C214.45 178.275 214.805 177.768 215.236 177.35C215.679 176.932 216.186 176.615 216.756 176.4C217.338 176.172 217.984 176.058 218.694 176.058C219.656 176.058 220.499 176.254 221.221 176.647C221.955 177.027 222.525 177.565 222.931 178.262C223.336 178.959 223.539 179.75 223.539 180.637C223.539 181.6 223.298 182.448 222.817 183.183C222.335 183.905 221.664 184.469 220.803 184.874C219.954 185.279 218.966 185.482 217.839 185.482ZM217.991 183.183C218.485 183.183 218.922 183.075 219.302 182.86C219.682 182.632 219.973 182.334 220.176 181.967C220.391 181.587 220.499 181.163 220.499 180.694C220.499 180.238 220.391 179.833 220.176 179.478C219.973 179.123 219.682 178.845 219.302 178.642C218.922 178.439 218.478 178.338 217.972 178.338C217.478 178.338 217.034 178.439 216.642 178.642C216.249 178.832 215.945 179.098 215.73 179.44C215.514 179.782 215.407 180.181 215.407 180.637C215.407 181.106 215.514 181.536 215.73 181.929C215.958 182.309 216.262 182.613 216.642 182.841C217.034 183.069 217.484 183.183 217.991 183.183ZM232.523 182.822L231.877 183.506V175.032H234.841V183.506L234.157 182.822H238.869L238.204 183.506V175.032H241.149V185.254H225.55V175.032H228.495V183.506L227.83 182.822H232.523ZM239.819 187.287V184.57L240.484 185.254H238.128V182.822H242.574V187.287H239.819ZM248.99 185.406C247.825 185.406 246.799 185.178 245.912 184.722C245.038 184.266 244.361 183.645 243.879 182.86C243.398 182.062 243.157 181.156 243.157 180.143C243.157 179.117 243.392 178.211 243.86 177.426C244.342 176.628 244.994 176.007 245.817 175.564C246.641 175.108 247.572 174.88 248.61 174.88C249.611 174.88 250.51 175.095 251.308 175.526C252.119 175.944 252.759 176.552 253.227 177.35C253.696 178.135 253.93 179.079 253.93 180.181C253.93 180.295 253.924 180.428 253.911 180.58C253.899 180.719 253.886 180.852 253.873 180.979H245.57V179.25H252.315L251.175 179.763C251.175 179.231 251.068 178.769 250.852 178.376C250.637 177.983 250.339 177.679 249.959 177.464C249.579 177.236 249.136 177.122 248.629 177.122C248.123 177.122 247.673 177.236 247.28 177.464C246.9 177.679 246.603 177.99 246.387 178.395C246.172 178.788 246.064 179.256 246.064 179.801V180.257C246.064 180.814 246.185 181.308 246.425 181.739C246.679 182.157 247.027 182.48 247.47 182.708C247.926 182.923 248.458 183.031 249.066 183.031C249.611 183.031 250.086 182.949 250.491 182.784C250.909 182.619 251.289 182.372 251.631 182.043L253.208 183.753C252.74 184.285 252.151 184.697 251.441 184.988C250.732 185.267 249.915 185.406 248.99 185.406ZM261.066 185.406C259.964 185.406 258.983 185.184 258.121 184.741C257.26 184.285 256.582 183.658 256.088 182.86C255.607 182.062 255.366 181.156 255.366 180.143C255.366 179.117 255.607 178.211 256.088 177.426C256.582 176.628 257.26 176.007 258.121 175.564C258.983 175.108 259.964 174.88 261.066 174.88C262.143 174.88 263.08 175.108 263.878 175.564C264.676 176.007 265.265 176.647 265.645 177.483L263.346 178.718C263.08 178.237 262.745 177.882 262.339 177.654C261.947 177.426 261.516 177.312 261.047 177.312C260.541 177.312 260.085 177.426 259.679 177.654C259.274 177.882 258.951 178.205 258.71 178.623C258.482 179.041 258.368 179.548 258.368 180.143C258.368 180.738 258.482 181.245 258.71 181.663C258.951 182.081 259.274 182.404 259.679 182.632C260.085 182.86 260.541 182.974 261.047 182.974C261.516 182.974 261.947 182.866 262.339 182.651C262.745 182.423 263.08 182.062 263.346 181.568L265.645 182.822C265.265 183.645 264.676 184.285 263.878 184.741C263.08 185.184 262.143 185.406 261.066 185.406ZM269.613 185.254V176.78L270.278 177.464H266.155V175.032H276.016V177.464H271.893L272.558 176.78V185.254H269.613ZM277.596 185.254V175.032H282.821C284.1 175.032 285.101 175.266 285.823 175.735C286.545 176.191 286.906 176.837 286.906 177.673C286.906 178.509 286.564 179.168 285.88 179.649C285.209 180.118 284.316 180.352 283.201 180.352L283.505 179.668C284.746 179.668 285.671 179.896 286.279 180.352C286.9 180.808 287.21 181.473 287.21 182.347C287.21 183.246 286.868 183.956 286.184 184.475C285.5 184.994 284.455 185.254 283.049 185.254H277.596ZM280.313 183.24H282.802C283.347 183.24 283.752 183.151 284.018 182.974C284.297 182.784 284.436 182.499 284.436 182.119C284.436 181.726 284.309 181.441 284.056 181.264C283.803 181.074 283.404 180.979 282.859 180.979H280.313V183.24ZM280.313 179.231H282.555C283.074 179.231 283.461 179.136 283.714 178.946C283.98 178.756 284.113 178.484 284.113 178.129C284.113 177.762 283.98 177.489 283.714 177.312C283.461 177.135 283.074 177.046 282.555 177.046H280.313V179.231ZM295.533 185.254V183.259L295.343 182.822V179.25C295.343 178.617 295.147 178.123 294.754 177.768C294.374 177.413 293.785 177.236 292.987 177.236C292.443 177.236 291.904 177.325 291.372 177.502C290.853 177.667 290.41 177.895 290.042 178.186L288.978 176.115C289.536 175.722 290.207 175.418 290.992 175.203C291.778 174.988 292.576 174.88 293.386 174.88C294.944 174.88 296.154 175.247 297.015 175.982C297.877 176.717 298.307 177.863 298.307 179.421V185.254H295.533ZM292.417 185.406C291.619 185.406 290.935 185.273 290.365 185.007C289.795 184.728 289.358 184.355 289.054 183.886C288.75 183.417 288.598 182.892 288.598 182.309C288.598 181.701 288.744 181.169 289.035 180.713C289.339 180.257 289.814 179.902 290.46 179.649C291.106 179.383 291.949 179.25 292.987 179.25H295.704V180.979H293.31C292.614 180.979 292.132 181.093 291.866 181.321C291.613 181.549 291.486 181.834 291.486 182.176C291.486 182.556 291.632 182.86 291.923 183.088C292.227 183.303 292.639 183.411 293.158 183.411C293.652 183.411 294.096 183.297 294.488 183.069C294.881 182.828 295.166 182.48 295.343 182.024L295.799 183.392C295.584 184.051 295.191 184.551 294.621 184.893C294.051 185.235 293.317 185.406 292.417 185.406Z" fill="white"/>
</svg>
