<svg width="315" height="204" viewBox="0 0 315 204" fill="none" xmlns="http://www.w3.org/2000/svg">
<rect y="0.468018" width="22" height="21.841" fill="#9BC53F"/>
<rect y="56.0632" width="22" height="21.841" fill="#4C9869"/>
<rect y="111.658" width="22" height="21.841" fill="#305C93"/>
<rect y="167.254" width="22" height="21.841" fill="#84367E"/>
<path d="M66.577 18.468V5.16802H72.334C73.5247 5.16802 74.5507 5.36435 75.412 5.75702C76.2733 6.13702 76.9383 6.68802 77.407 7.41002C77.8757 8.13202 78.11 8.99335 78.11 9.99402C78.11 10.982 77.8757 11.837 77.407 12.559C76.9383 13.281 76.2733 13.8384 75.412 14.231C74.5507 14.611 73.5247 14.801 72.334 14.801H68.287L69.655 13.414V18.468H66.577ZM69.655 13.756L68.287 12.293H72.163C73.113 12.293 73.8223 12.0904 74.291 11.685C74.7597 11.2797 74.994 10.716 74.994 9.99402C74.994 9.25935 74.7597 8.68935 74.291 8.28402C73.8223 7.87868 73.113 7.67602 72.163 7.67602H68.287L69.655 6.21302V13.756ZM85.1529 18.62C83.9876 18.62 82.9616 18.392 82.0749 17.936C81.2009 17.48 80.5232 16.8594 80.0419 16.074C79.5606 15.276 79.3199 14.3704 79.3199 13.357C79.3199 12.331 79.5542 11.4254 80.0229 10.64C80.5042 9.84202 81.1566 9.22135 81.9799 8.77802C82.8032 8.32202 83.7342 8.09402 84.7729 8.09402C85.7736 8.09402 86.6729 8.30935 87.4709 8.74002C88.2816 9.15802 88.9212 9.76602 89.3899 10.564C89.8586 11.3494 90.0929 12.293 90.0929 13.395C90.0929 13.509 90.0866 13.642 90.0739 13.794C90.0612 13.9334 90.0486 14.0664 90.0359 14.193H81.7329V12.464H88.4779L87.3379 12.977C87.3379 12.445 87.2302 11.9827 87.0149 11.59C86.7996 11.1974 86.5019 10.8934 86.1219 10.678C85.7419 10.45 85.2986 10.336 84.7919 10.336C84.2852 10.336 83.8356 10.45 83.4429 10.678C83.0629 10.8934 82.7652 11.2037 82.5499 11.609C82.3346 12.0017 82.2269 12.4704 82.2269 13.015V13.471C82.2269 14.0284 82.3472 14.5224 82.5879 14.953C82.8412 15.371 83.1896 15.694 83.6329 15.922C84.0889 16.1374 84.6209 16.245 85.2289 16.245C85.7736 16.245 86.2486 16.1627 86.6539 15.998C87.0719 15.8334 87.4519 15.5864 87.7939 15.257L89.3709 16.967C88.9022 17.499 88.3132 17.9107 87.6039 18.202C86.8946 18.4807 86.0776 18.62 85.1529 18.62ZM92.0662 18.468V8.24602H94.8972V11.134L94.4982 10.298C94.8022 9.57602 95.2899 9.03135 95.9612 8.66402C96.6326 8.28402 97.4496 8.09402 98.4122 8.09402V10.83C98.2856 10.8174 98.1716 10.811 98.0702 10.811C97.9689 10.7984 97.8612 10.792 97.7472 10.792C96.9366 10.792 96.2779 11.0264 95.7712 11.495C95.2772 11.951 95.0302 12.6667 95.0302 13.642V18.468H92.0662ZM103.688 18.62C102.814 18.62 101.972 18.5187 101.161 18.316C100.363 18.1007 99.7295 17.8347 99.2609 17.518L100.249 15.39C100.718 15.6814 101.269 15.922 101.902 16.112C102.548 16.2894 103.181 16.378 103.802 16.378C104.486 16.378 104.967 16.2957 105.246 16.131C105.537 15.9664 105.683 15.7384 105.683 15.447C105.683 15.2064 105.569 15.029 105.341 14.915C105.126 14.7884 104.834 14.6934 104.467 14.63C104.1 14.5667 103.694 14.5034 103.251 14.44C102.82 14.3767 102.383 14.2944 101.94 14.193C101.497 14.079 101.091 13.9144 100.724 13.699C100.357 13.4837 100.059 13.1924 99.8309 12.825C99.6155 12.4577 99.5079 11.9827 99.5079 11.4C99.5079 10.754 99.6915 10.184 100.059 9.69002C100.439 9.19602 100.984 8.80968 101.693 8.53102C102.402 8.23968 103.251 8.09402 104.239 8.09402C104.936 8.09402 105.645 8.17002 106.367 8.32202C107.089 8.47402 107.691 8.69568 108.172 8.98702L107.184 11.096C106.69 10.8047 106.19 10.6084 105.683 10.507C105.189 10.393 104.708 10.336 104.239 10.336C103.58 10.336 103.099 10.4247 102.795 10.602C102.491 10.7794 102.339 11.0074 102.339 11.286C102.339 11.5394 102.447 11.7294 102.662 11.856C102.89 11.9827 103.188 12.084 103.555 12.16C103.922 12.236 104.321 12.3057 104.752 12.369C105.195 12.4197 105.639 12.502 106.082 12.616C106.525 12.73 106.924 12.8947 107.279 13.11C107.646 13.3127 107.944 13.5977 108.172 13.965C108.4 14.3197 108.514 14.7884 108.514 15.371C108.514 16.0044 108.324 16.568 107.944 17.062C107.564 17.5434 107.013 17.9234 106.291 18.202C105.582 18.4807 104.714 18.62 103.688 18.62ZM115.207 18.62C114.117 18.62 113.148 18.392 112.3 17.936C111.464 17.48 110.799 16.8594 110.305 16.074C109.823 15.276 109.583 14.3704 109.583 13.357C109.583 12.331 109.823 11.4254 110.305 10.64C110.799 9.84202 111.464 9.22135 112.3 8.77802C113.148 8.32202 114.117 8.09402 115.207 8.09402C116.283 8.09402 117.246 8.32202 118.095 8.77802C118.943 9.22135 119.608 9.83568 120.09 10.621C120.571 11.4064 120.812 12.3184 120.812 13.357C120.812 14.3704 120.571 15.276 120.09 16.074C119.608 16.8594 118.943 17.48 118.095 17.936C117.246 18.392 116.283 18.62 115.207 18.62ZM115.207 16.188C115.701 16.188 116.144 16.074 116.537 15.846C116.929 15.618 117.24 15.295 117.468 14.877C117.696 14.4464 117.81 13.9397 117.81 13.357C117.81 12.7617 117.696 12.255 117.468 11.837C117.24 11.419 116.929 11.096 116.537 10.868C116.144 10.64 115.701 10.526 115.207 10.526C114.713 10.526 114.269 10.64 113.877 10.868C113.484 11.096 113.167 11.419 112.927 11.837C112.699 12.255 112.585 12.7617 112.585 13.357C112.585 13.9397 112.699 14.4464 112.927 14.877C113.167 15.295 113.484 15.618 113.877 15.846C114.269 16.074 114.713 16.188 115.207 16.188ZM128.896 18.468V16.473L128.706 16.036V12.464C128.706 11.8307 128.509 11.3367 128.117 10.982C127.737 10.6274 127.148 10.45 126.35 10.45C125.805 10.45 125.267 10.5387 124.735 10.716C124.215 10.8807 123.772 11.1087 123.405 11.4L122.341 9.32902C122.898 8.93635 123.569 8.63235 124.355 8.41702C125.14 8.20168 125.938 8.09402 126.749 8.09402C128.307 8.09402 129.516 8.46135 130.378 9.19602C131.239 9.93068 131.67 11.077 131.67 12.635V18.468H128.896ZM125.78 18.62C124.982 18.62 124.298 18.487 123.728 18.221C123.158 17.9424 122.721 17.5687 122.417 17.1C122.113 16.6314 121.961 16.1057 121.961 15.523C121.961 14.915 122.106 14.383 122.398 13.927C122.702 13.471 123.177 13.1164 123.823 12.863C124.469 12.597 125.311 12.464 126.35 12.464H129.067V14.193H126.673C125.976 14.193 125.495 14.307 125.229 14.535C124.975 14.763 124.849 15.048 124.849 15.39C124.849 15.77 124.994 16.074 125.286 16.302C125.59 16.5174 126.001 16.625 126.521 16.625C127.015 16.625 127.458 16.511 127.851 16.283C128.243 16.0424 128.528 15.694 128.706 15.238L129.162 16.606C128.946 17.2647 128.554 17.765 127.984 18.107C127.414 18.449 126.679 18.62 125.78 18.62ZM140.565 8.09402C141.376 8.09402 142.098 8.25868 142.731 8.58802C143.377 8.90468 143.884 9.39868 144.251 10.07C144.619 10.7287 144.802 11.5774 144.802 12.616V18.468H141.838V13.072C141.838 12.2487 141.655 11.6407 141.287 11.248C140.933 10.8554 140.426 10.659 139.767 10.659C139.299 10.659 138.874 10.7604 138.494 10.963C138.127 11.153 137.836 11.4507 137.62 11.856C137.418 12.2614 137.316 12.7807 137.316 13.414V18.468H134.352V8.24602H137.183V11.077L136.651 10.222C137.019 9.53802 137.544 9.01235 138.228 8.64502C138.912 8.27768 139.691 8.09402 140.565 8.09402ZM152.636 18.62C151.471 18.62 150.445 18.392 149.558 17.936C148.684 17.48 148.007 16.8594 147.525 16.074C147.044 15.276 146.803 14.3704 146.803 13.357C146.803 12.331 147.038 11.4254 147.506 10.64C147.988 9.84202 148.64 9.22135 149.463 8.77802C150.287 8.32202 151.218 8.09402 152.256 8.09402C153.257 8.09402 154.156 8.30935 154.954 8.74002C155.765 9.15802 156.405 9.76602 156.873 10.564C157.342 11.3494 157.576 12.293 157.576 13.395C157.576 13.509 157.57 13.642 157.557 13.794C157.545 13.9334 157.532 14.0664 157.519 14.193H149.216V12.464H155.961L154.821 12.977C154.821 12.445 154.714 11.9827 154.498 11.59C154.283 11.1974 153.985 10.8934 153.605 10.678C153.225 10.45 152.782 10.336 152.275 10.336C151.769 10.336 151.319 10.45 150.926 10.678C150.546 10.8934 150.249 11.2037 150.033 11.609C149.818 12.0017 149.71 12.4704 149.71 13.015V13.471C149.71 14.0284 149.831 14.5224 150.071 14.953C150.325 15.371 150.673 15.694 151.116 15.922C151.572 16.1374 152.104 16.245 152.712 16.245C153.257 16.245 153.732 16.1627 154.137 15.998C154.555 15.8334 154.935 15.5864 155.277 15.257L156.854 16.967C156.386 17.499 155.797 17.9107 155.087 18.202C154.378 18.4807 153.561 18.62 152.636 18.62ZM167.705 18.468L163.41 8.24602H166.47L170.042 17.043H168.522L172.227 8.24602H175.077L170.764 18.468H167.705ZM180.599 18.62C179.75 18.62 178.99 18.4554 178.319 18.126C177.66 17.7967 177.147 17.2964 176.78 16.625C176.413 15.941 176.229 15.0734 176.229 14.022V8.24602H179.193V13.585C179.193 14.4337 179.37 15.0607 179.725 15.466C180.092 15.8587 180.605 16.055 181.264 16.055C181.72 16.055 182.125 15.96 182.48 15.77C182.835 15.5674 183.113 15.2634 183.316 14.858C183.519 14.44 183.62 13.9207 183.62 13.3V8.24602H186.584V18.468H183.772V15.656L184.285 16.473C183.943 17.1824 183.436 17.7207 182.765 18.088C182.106 18.4427 181.384 18.62 180.599 18.62ZM189.33 18.468V4.37002H192.294V18.468H189.33ZM201.258 8.09402C202.068 8.09402 202.79 8.25868 203.424 8.58802C204.07 8.90468 204.576 9.39868 204.944 10.07C205.311 10.7287 205.495 11.5774 205.495 12.616V18.468H202.531V13.072C202.531 12.2487 202.347 11.6407 201.98 11.248C201.625 10.8554 201.118 10.659 200.46 10.659C199.991 10.659 199.567 10.7604 199.187 10.963C198.819 11.153 198.528 11.4507 198.313 11.856C198.11 12.2614 198.009 12.7807 198.009 13.414V18.468H195.045V8.24602H197.876V11.077L197.344 10.222C197.711 9.53802 198.237 9.01235 198.921 8.64502C199.605 8.27768 200.384 8.09402 201.258 8.09402ZM213.329 18.62C212.163 18.62 211.137 18.392 210.251 17.936C209.377 17.48 208.699 16.8594 208.218 16.074C207.736 15.276 207.496 14.3704 207.496 13.357C207.496 12.331 207.73 11.4254 208.199 10.64C208.68 9.84202 209.332 9.22135 210.156 8.77802C210.979 8.32202 211.91 8.09402 212.949 8.09402C213.949 8.09402 214.849 8.30935 215.647 8.74002C216.457 9.15802 217.097 9.76602 217.566 10.564C218.034 11.3494 218.269 12.293 218.269 13.395C218.269 13.509 218.262 13.642 218.25 13.794C218.237 13.9334 218.224 14.0664 218.212 14.193H209.909V12.464H216.654L215.514 12.977C215.514 12.445 215.406 11.9827 215.191 11.59C214.975 11.1974 214.678 10.8934 214.298 10.678C213.918 10.45 213.474 10.336 212.968 10.336C212.461 10.336 212.011 10.45 211.619 10.678C211.239 10.8934 210.941 11.2037 210.726 11.609C210.51 12.0017 210.403 12.4704 210.403 13.015V13.471C210.403 14.0284 210.523 14.5224 210.764 14.953C211.017 15.371 211.365 15.694 211.809 15.922C212.265 16.1374 212.797 16.245 213.405 16.245C213.949 16.245 214.424 16.1627 214.83 15.998C215.248 15.8334 215.628 15.5864 215.97 15.257L217.547 16.967C217.078 17.499 216.489 17.9107 215.78 18.202C215.07 18.4807 214.253 18.62 213.329 18.62ZM220.242 18.468V8.24602H223.073V11.134L222.674 10.298C222.978 9.57602 223.466 9.03135 224.137 8.66402C224.808 8.28402 225.625 8.09402 226.588 8.09402V10.83C226.461 10.8174 226.347 10.811 226.246 10.811C226.145 10.7984 226.037 10.792 225.923 10.792C225.112 10.792 224.454 11.0264 223.947 11.495C223.453 11.951 223.206 12.6667 223.206 13.642V18.468H220.242ZM233.952 18.468V16.473L233.762 16.036V12.464C233.762 11.8307 233.566 11.3367 233.173 10.982C232.793 10.6274 232.204 10.45 231.406 10.45C230.862 10.45 230.323 10.5387 229.791 10.716C229.272 10.8807 228.829 11.1087 228.461 11.4L227.397 9.32902C227.955 8.93635 228.626 8.63235 229.411 8.41702C230.197 8.20168 230.995 8.09402 231.805 8.09402C233.363 8.09402 234.573 8.46135 235.434 9.19602C236.296 9.93068 236.726 11.077 236.726 12.635V18.468H233.952ZM230.836 18.62C230.038 18.62 229.354 18.487 228.784 18.221C228.214 17.9424 227.777 17.5687 227.473 17.1C227.169 16.6314 227.017 16.1057 227.017 15.523C227.017 14.915 227.163 14.383 227.454 13.927C227.758 13.471 228.233 13.1164 228.879 12.863C229.525 12.597 230.368 12.464 231.406 12.464H234.123V14.193H231.729C231.033 14.193 230.551 14.307 230.285 14.535C230.032 14.763 229.905 15.048 229.905 15.39C229.905 15.77 230.051 16.074 230.342 16.302C230.646 16.5174 231.058 16.625 231.577 16.625C232.071 16.625 232.515 16.511 232.907 16.283C233.3 16.0424 233.585 15.694 233.762 15.238L234.218 16.606C234.003 17.2647 233.61 17.765 233.04 18.107C232.47 18.449 231.736 18.62 230.836 18.62ZM245.451 18.62C244.552 18.62 243.779 18.43 243.133 18.05C242.487 17.67 241.993 17.0937 241.651 16.321C241.309 15.5357 241.138 14.5477 241.138 13.357C241.138 12.1537 241.315 11.1657 241.67 10.393C242.037 9.62035 242.544 9.04402 243.19 8.66402C243.836 8.28402 244.59 8.09402 245.451 8.09402C246.414 8.09402 247.275 8.30935 248.035 8.74002C248.808 9.17068 249.416 9.77868 249.859 10.564C250.315 11.3494 250.543 12.2804 250.543 13.357C250.543 14.421 250.315 15.3457 249.859 16.131C249.416 16.9164 248.808 17.5307 248.035 17.974C247.275 18.4047 246.414 18.62 245.451 18.62ZM239.409 18.468V4.37002H242.373V10.317L242.183 13.338L242.24 16.378V18.468H239.409ZM244.938 16.188C245.432 16.188 245.869 16.074 246.249 15.846C246.642 15.618 246.952 15.295 247.18 14.877C247.421 14.4464 247.541 13.9397 247.541 13.357C247.541 12.7617 247.421 12.255 247.18 11.837C246.952 11.419 246.642 11.096 246.249 10.868C245.869 10.64 245.432 10.526 244.938 10.526C244.444 10.526 244.001 10.64 243.608 10.868C243.215 11.096 242.905 11.419 242.677 11.837C242.449 12.255 242.335 12.7617 242.335 13.357C242.335 13.9397 242.449 14.4464 242.677 14.877C242.905 15.295 243.215 15.618 243.608 15.846C244.001 16.074 244.444 16.188 244.938 16.188ZM252.527 18.468V8.24602H255.491V18.468H252.527ZM254.009 6.82102C253.465 6.82102 253.021 6.66268 252.679 6.34602C252.337 6.02935 252.166 5.63668 252.166 5.16802C252.166 4.69935 252.337 4.30668 252.679 3.99002C253.021 3.67335 253.465 3.51502 254.009 3.51502C254.554 3.51502 254.997 3.66702 255.339 3.97102C255.681 4.26235 255.852 4.64235 255.852 5.11102C255.852 5.60502 255.681 6.01668 255.339 6.34602C255.01 6.66268 254.567 6.82102 254.009 6.82102ZM258.242 18.468V4.37002H261.206V18.468H258.242ZM269.03 18.62C267.865 18.62 266.839 18.392 265.952 17.936C265.078 17.48 264.4 16.8594 263.919 16.074C263.438 15.276 263.197 14.3704 263.197 13.357C263.197 12.331 263.431 11.4254 263.9 10.64C264.381 9.84202 265.034 9.22135 265.857 8.77802C266.68 8.32202 267.611 8.09402 268.65 8.09402C269.651 8.09402 270.55 8.30935 271.348 8.74002C272.159 9.15802 272.798 9.76602 273.267 10.564C273.736 11.3494 273.97 12.293 273.97 13.395C273.97 13.509 273.964 13.642 273.951 13.794C273.938 13.9334 273.926 14.0664 273.913 14.193H265.61V12.464H272.355L271.215 12.977C271.215 12.445 271.107 11.9827 270.892 11.59C270.677 11.1974 270.379 10.8934 269.999 10.678C269.619 10.45 269.176 10.336 268.669 10.336C268.162 10.336 267.713 10.45 267.32 10.678C266.94 10.8934 266.642 11.2037 266.427 11.609C266.212 12.0017 266.104 12.4704 266.104 13.015V13.471C266.104 14.0284 266.224 14.5224 266.465 14.953C266.718 15.371 267.067 15.694 267.51 15.922C267.966 16.1374 268.498 16.245 269.106 16.245C269.651 16.245 270.126 16.1627 270.531 15.998C270.949 15.8334 271.329 15.5864 271.671 15.257L273.248 16.967C272.779 17.499 272.19 17.9107 271.481 18.202C270.772 18.4807 269.955 18.62 269.03 18.62Z" fill="white"/>
<path d="M72.999 67.228C71.9477 67.228 70.9787 67.0633 70.092 66.734C69.218 66.392 68.4517 65.9107 67.793 65.29C67.147 64.6693 66.6403 63.941 66.273 63.105C65.9183 62.269 65.741 61.3507 65.741 60.35C65.741 59.3493 65.9183 58.431 66.273 57.595C66.6403 56.759 67.1533 56.0307 67.812 55.41C68.4707 54.7893 69.2433 54.3143 70.13 53.985C71.0167 53.643 71.992 53.472 73.056 53.472C74.234 53.472 75.2917 53.6683 76.229 54.061C77.179 54.4537 77.977 55.0237 78.623 55.771L76.647 57.595C76.1657 57.0883 75.64 56.7147 75.07 56.474C74.5 56.2207 73.8793 56.094 73.208 56.094C72.562 56.094 71.973 56.1953 71.441 56.398C70.909 56.6007 70.4467 56.892 70.054 57.272C69.674 57.652 69.3763 58.1017 69.161 58.621C68.9583 59.1403 68.857 59.7167 68.857 60.35C68.857 60.9707 68.9583 61.5407 69.161 62.06C69.3763 62.5793 69.674 63.0353 70.054 63.428C70.4467 63.808 70.9027 64.0993 71.422 64.302C71.954 64.5047 72.5367 64.606 73.17 64.606C73.778 64.606 74.367 64.511 74.937 64.321C75.5197 64.1183 76.0833 63.7827 76.628 63.314L78.376 65.537C77.654 66.0817 76.8117 66.4997 75.849 66.791C74.899 67.0823 73.949 67.228 72.999 67.228ZM75.564 65.138V60.141H78.376V65.537L75.564 65.138ZM81.0262 67V56.778H83.8572V59.666L83.4582 58.83C83.7622 58.108 84.2499 57.5633 84.9212 57.196C85.5925 56.816 86.4095 56.626 87.3722 56.626V59.362C87.2455 59.3493 87.1315 59.343 87.0302 59.343C86.9289 59.3303 86.8212 59.324 86.7072 59.324C85.8965 59.324 85.2379 59.5583 84.7312 60.027C84.2372 60.483 83.9902 61.1987 83.9902 62.174V67H81.0262ZM93.5218 67.152C92.6732 67.152 91.9132 66.9873 91.2418 66.658C90.5832 66.3287 90.0702 65.8283 89.7028 65.157C89.3355 64.473 89.1518 63.6053 89.1518 62.554V56.778H92.1158V62.117C92.1158 62.9657 92.2932 63.5927 92.6478 63.998C93.0152 64.3907 93.5282 64.587 94.1868 64.587C94.6428 64.587 95.0482 64.492 95.4028 64.302C95.7575 64.0993 96.0362 63.7953 96.2388 63.39C96.4415 62.972 96.5428 62.4527 96.5428 61.832V56.778H99.5068V67H96.6948V64.188L97.2078 65.005C96.8658 65.7143 96.3592 66.2527 95.6878 66.62C95.0292 66.9747 94.3072 67.152 93.5218 67.152ZM108.295 67.152C107.433 67.152 106.68 66.962 106.034 66.582C105.388 66.202 104.881 65.6257 104.514 64.853C104.159 64.0677 103.982 63.0797 103.982 61.889C103.982 60.6857 104.153 59.6977 104.495 58.925C104.837 58.1523 105.331 57.576 105.977 57.196C106.623 56.816 107.395 56.626 108.295 56.626C109.257 56.626 110.119 56.8477 110.879 57.291C111.651 57.7217 112.259 58.3297 112.703 59.115C113.159 59.9003 113.387 60.825 113.387 61.889C113.387 62.9657 113.159 63.8967 112.703 64.682C112.259 65.4673 111.651 66.0753 110.879 66.506C110.119 66.9367 109.257 67.152 108.295 67.152ZM102.253 70.686V56.778H105.084V58.868L105.027 61.908L105.217 64.929V70.686H102.253ZM107.782 64.72C108.276 64.72 108.713 64.606 109.093 64.378C109.485 64.15 109.796 63.827 110.024 63.409C110.264 62.9783 110.385 62.4717 110.385 61.889C110.385 61.2937 110.264 60.787 110.024 60.369C109.796 59.951 109.485 59.628 109.093 59.4C108.713 59.172 108.276 59.058 107.782 59.058C107.288 59.058 106.844 59.172 106.452 59.4C106.059 59.628 105.749 59.951 105.521 60.369C105.293 60.787 105.179 61.2937 105.179 61.889C105.179 62.4717 105.293 62.9783 105.521 63.409C105.749 63.827 106.059 64.15 106.452 64.378C106.844 64.606 107.288 64.72 107.782 64.72ZM120.444 67.152C119.279 67.152 118.253 66.924 117.366 66.468C116.492 66.012 115.814 65.3913 115.333 64.606C114.852 63.808 114.611 62.9023 114.611 61.889C114.611 60.863 114.845 59.9573 115.314 59.172C115.795 58.374 116.448 57.7533 117.271 57.31C118.094 56.854 119.025 56.626 120.064 56.626C121.065 56.626 121.964 56.8413 122.762 57.272C123.573 57.69 124.212 58.298 124.681 59.096C125.15 59.8813 125.384 60.825 125.384 61.927C125.384 62.041 125.378 62.174 125.365 62.326C125.352 62.4653 125.34 62.5983 125.327 62.725H117.024V60.996H123.769L122.629 61.509C122.629 60.977 122.521 60.5147 122.306 60.122C122.091 59.7293 121.793 59.4253 121.413 59.21C121.033 58.982 120.59 58.868 120.083 58.868C119.576 58.868 119.127 58.982 118.734 59.21C118.354 59.4253 118.056 59.7357 117.841 60.141C117.626 60.5337 117.518 61.0023 117.518 61.547V62.003C117.518 62.5603 117.638 63.0543 117.879 63.485C118.132 63.903 118.481 64.226 118.924 64.454C119.38 64.6693 119.912 64.777 120.52 64.777C121.065 64.777 121.54 64.6947 121.945 64.53C122.363 64.3653 122.743 64.1183 123.085 63.789L124.662 65.499C124.193 66.031 123.604 66.4427 122.895 66.734C122.186 67.0127 121.369 67.152 120.444 67.152ZM137.127 67.152C136.164 67.152 135.297 66.9367 134.524 66.506C133.751 66.0627 133.137 65.4483 132.681 64.663C132.238 63.8777 132.016 62.953 132.016 61.889C132.016 60.8123 132.238 59.8813 132.681 59.096C133.137 58.3107 133.751 57.7027 134.524 57.272C135.297 56.8413 136.164 56.626 137.127 56.626C137.988 56.626 138.742 56.816 139.388 57.196C140.034 57.576 140.534 58.1523 140.889 58.925C141.244 59.6977 141.421 60.6857 141.421 61.889C141.421 63.0797 141.25 64.0677 140.908 64.853C140.566 65.6257 140.072 66.202 139.426 66.582C138.793 66.962 138.026 67.152 137.127 67.152ZM137.64 64.72C138.121 64.72 138.558 64.606 138.951 64.378C139.344 64.15 139.654 63.827 139.882 63.409C140.123 62.9783 140.243 62.4717 140.243 61.889C140.243 61.2937 140.123 60.787 139.882 60.369C139.654 59.951 139.344 59.628 138.951 59.4C138.558 59.172 138.121 59.058 137.64 59.058C137.146 59.058 136.703 59.172 136.31 59.4C135.917 59.628 135.601 59.951 135.36 60.369C135.132 60.787 135.018 61.2937 135.018 61.889C135.018 62.4717 135.132 62.9783 135.36 63.409C135.601 63.827 135.917 64.15 136.31 64.378C136.703 64.606 137.146 64.72 137.64 64.72ZM140.319 67V64.91L140.376 61.87L140.186 58.849V52.902H143.15V67H140.319ZM150.966 67.152C149.801 67.152 148.775 66.924 147.888 66.468C147.014 66.012 146.337 65.3913 145.855 64.606C145.374 63.808 145.133 62.9023 145.133 61.889C145.133 60.863 145.368 59.9573 145.836 59.172C146.318 58.374 146.97 57.7533 147.793 57.31C148.617 56.854 149.548 56.626 150.586 56.626C151.587 56.626 152.486 56.8413 153.284 57.272C154.095 57.69 154.735 58.298 155.203 59.096C155.672 59.8813 155.906 60.825 155.906 61.927C155.906 62.041 155.9 62.174 155.887 62.326C155.875 62.4653 155.862 62.5983 155.849 62.725H147.546V60.996H154.291L153.151 61.509C153.151 60.977 153.044 60.5147 152.828 60.122C152.613 59.7293 152.315 59.4253 151.935 59.21C151.555 58.982 151.112 58.868 150.605 58.868C150.099 58.868 149.649 58.982 149.256 59.21C148.876 59.4253 148.579 59.7357 148.363 60.141C148.148 60.5337 148.04 61.0023 148.04 61.547V62.003C148.04 62.5603 148.161 63.0543 148.401 63.485C148.655 63.903 149.003 64.226 149.446 64.454C149.902 64.6693 150.434 64.777 151.042 64.777C151.587 64.777 152.062 64.6947 152.467 64.53C152.885 64.3653 153.265 64.1183 153.607 63.789L155.184 65.499C154.716 66.031 154.127 66.4427 153.417 66.734C152.708 67.0127 151.891 67.152 150.966 67.152ZM166.035 67L161.741 56.778H164.8L168.372 65.575H166.852L170.557 56.778H173.407L169.094 67H166.035ZM180.552 67V65.005L180.362 64.568V60.996C180.362 60.3627 180.166 59.8687 179.773 59.514C179.393 59.1593 178.804 58.982 178.006 58.982C177.461 58.982 176.923 59.0707 176.391 59.248C175.872 59.4127 175.428 59.6407 175.061 59.932L173.997 57.861C174.554 57.4683 175.226 57.1643 176.011 56.949C176.796 56.7337 177.594 56.626 178.405 56.626C179.963 56.626 181.173 56.9933 182.034 57.728C182.895 58.4627 183.326 59.609 183.326 61.167V67H180.552ZM177.436 67.152C176.638 67.152 175.954 67.019 175.384 66.753C174.814 66.4743 174.377 66.1007 174.073 65.632C173.769 65.1633 173.617 64.6377 173.617 64.055C173.617 63.447 173.763 62.915 174.054 62.459C174.358 62.003 174.833 61.6483 175.479 61.395C176.125 61.129 176.967 60.996 178.006 60.996H180.723V62.725H178.329C177.632 62.725 177.151 62.839 176.885 63.067C176.632 63.295 176.505 63.58 176.505 63.922C176.505 64.302 176.651 64.606 176.942 64.834C177.246 65.0493 177.658 65.157 178.177 65.157C178.671 65.157 179.114 65.043 179.507 64.815C179.9 64.5743 180.185 64.226 180.362 63.77L180.818 65.138C180.603 65.7967 180.21 66.297 179.64 66.639C179.07 66.981 178.335 67.152 177.436 67.152ZM174.89 55.467L177.398 52.731H180.02L182.528 55.467H180.362L177.74 53.187H179.678L177.056 55.467H174.89ZM186.009 67V56.778H188.84V59.666L188.441 58.83C188.745 58.108 189.232 57.5633 189.904 57.196C190.575 56.816 191.392 56.626 192.355 56.626V59.362C192.228 59.3493 192.114 59.343 192.013 59.343C191.911 59.3303 191.804 59.324 191.69 59.324C190.879 59.324 190.22 59.5583 189.714 60.027C189.22 60.483 188.973 61.1987 188.973 62.174V67H186.009ZM197.63 67.152C196.756 67.152 195.914 67.0507 195.103 66.848C194.305 66.6327 193.672 66.3667 193.203 66.05L194.191 63.922C194.66 64.2133 195.211 64.454 195.844 64.644C196.49 64.8213 197.124 64.91 197.744 64.91C198.428 64.91 198.91 64.8277 199.188 64.663C199.48 64.4983 199.625 64.2703 199.625 63.979C199.625 63.7383 199.511 63.561 199.283 63.447C199.068 63.3203 198.777 63.2253 198.409 63.162C198.042 63.0987 197.637 63.0353 197.193 62.972C196.763 62.9087 196.326 62.8263 195.882 62.725C195.439 62.611 195.034 62.4463 194.666 62.231C194.299 62.0157 194.001 61.7243 193.773 61.357C193.558 60.9897 193.45 60.5147 193.45 59.932C193.45 59.286 193.634 58.716 194.001 58.222C194.381 57.728 194.926 57.3417 195.635 57.063C196.345 56.7717 197.193 56.626 198.181 56.626C198.878 56.626 199.587 56.702 200.309 56.854C201.031 57.006 201.633 57.2277 202.114 57.519L201.126 59.628C200.632 59.3367 200.132 59.1403 199.625 59.039C199.131 58.925 198.65 58.868 198.181 58.868C197.523 58.868 197.041 58.9567 196.737 59.134C196.433 59.3113 196.281 59.5393 196.281 59.818C196.281 60.0713 196.389 60.2613 196.604 60.388C196.832 60.5147 197.13 60.616 197.497 60.692C197.865 60.768 198.264 60.8377 198.694 60.901C199.138 60.9517 199.581 61.034 200.024 61.148C200.468 61.262 200.867 61.4267 201.221 61.642C201.589 61.8447 201.886 62.1297 202.114 62.497C202.342 62.8517 202.456 63.3203 202.456 63.903C202.456 64.5363 202.266 65.1 201.886 65.594C201.506 66.0753 200.955 66.4553 200.233 66.734C199.524 67.0127 198.656 67.152 197.63 67.152ZM208.465 67.152C207.262 67.152 206.324 66.848 205.653 66.24C204.982 65.6193 204.646 64.701 204.646 63.485V54.517H207.61V63.447C207.61 63.8777 207.724 64.2133 207.952 64.454C208.18 64.682 208.49 64.796 208.883 64.796C209.352 64.796 209.751 64.6693 210.08 64.416L210.878 66.506C210.574 66.7213 210.207 66.886 209.776 67C209.358 67.1013 208.921 67.152 208.465 67.152ZM203.069 59.286V57.006H210.156V59.286H203.069ZM218.812 67V65.005L218.622 64.568V60.996C218.622 60.3627 218.425 59.8687 218.033 59.514C217.653 59.1593 217.064 58.982 216.266 58.982C215.721 58.982 215.183 59.0707 214.651 59.248C214.131 59.4127 213.688 59.6407 213.321 59.932L212.257 57.861C212.814 57.4683 213.485 57.1643 214.271 56.949C215.056 56.7337 215.854 56.626 216.665 56.626C218.223 56.626 219.432 56.9933 220.294 57.728C221.155 58.4627 221.586 59.609 221.586 61.167V67H218.812ZM215.696 67.152C214.898 67.152 214.214 67.019 213.644 66.753C213.074 66.4743 212.637 66.1007 212.333 65.632C212.029 65.1633 211.877 64.6377 211.877 64.055C211.877 63.447 212.022 62.915 212.314 62.459C212.618 62.003 213.093 61.6483 213.739 61.395C214.385 61.129 215.227 60.996 216.266 60.996H218.983V62.725H216.589C215.892 62.725 215.411 62.839 215.145 63.067C214.891 63.295 214.765 63.58 214.765 63.922C214.765 64.302 214.91 64.606 215.202 64.834C215.506 65.0493 215.917 65.157 216.437 65.157C216.931 65.157 217.374 65.043 217.767 64.815C218.159 64.5743 218.444 64.226 218.622 63.77L219.078 65.138C218.862 65.7967 218.47 66.297 217.9 66.639C217.33 66.981 216.595 67.152 215.696 67.152ZM216.969 55.619C215.981 55.619 215.157 55.3593 214.499 54.84C213.853 54.3207 213.511 53.6177 213.473 52.731H215.335C215.36 53.149 215.525 53.4783 215.829 53.719C216.145 53.9597 216.525 54.08 216.969 54.08C217.412 54.08 217.792 53.9597 218.109 53.719C218.425 53.4783 218.59 53.149 218.603 52.731H220.465C220.427 53.6177 220.078 54.3207 219.42 54.84C218.774 55.3593 217.957 55.619 216.969 55.619ZM69.142 90L64.848 79.778H67.907L71.479 88.575H69.959L73.664 79.778H76.514L72.201 90H69.142ZM82.0365 90.152C81.1878 90.152 80.4278 89.9873 79.7565 89.658C79.0978 89.3287 78.5848 88.8283 78.2175 88.157C77.8501 87.473 77.6665 86.6053 77.6665 85.554V79.778H80.6305V85.117C80.6305 85.9657 80.8078 86.5927 81.1625 86.998C81.5298 87.3907 82.0428 87.587 82.7015 87.587C83.1575 87.587 83.5628 87.492 83.9175 87.302C84.2721 87.0993 84.5508 86.7953 84.7535 86.39C84.9561 85.972 85.0575 85.4527 85.0575 84.832V79.778H88.0215V90H85.2095V87.188L85.7225 88.005C85.3805 88.7143 84.8738 89.2527 84.2025 89.62C83.5438 89.9747 82.8218 90.152 82.0365 90.152ZM90.7674 90V75.902H93.7314V90H90.7674ZM102.695 79.626C103.506 79.626 104.228 79.7907 104.861 80.12C105.507 80.4367 106.014 80.9307 106.381 81.602C106.749 82.2607 106.932 83.1093 106.932 84.148V90H103.968V84.604C103.968 83.7807 103.785 83.1727 103.417 82.78C103.063 82.3873 102.556 82.191 101.897 82.191C101.429 82.191 101.004 82.2923 100.624 82.495C100.257 82.685 99.9656 82.9827 99.7503 83.388C99.5476 83.7933 99.4463 84.3127 99.4463 84.946V90H96.4823V79.778H99.3133V82.609L98.7813 81.754C99.1486 81.07 99.6743 80.5443 100.358 80.177C101.042 79.8097 101.821 79.626 102.695 79.626ZM114.766 90.152C113.601 90.152 112.575 89.924 111.688 89.468C110.814 89.012 110.137 88.3913 109.655 87.606C109.174 86.808 108.933 85.9023 108.933 84.889C108.933 83.863 109.168 82.9573 109.636 82.172C110.118 81.374 110.77 80.7533 111.593 80.31C112.417 79.854 113.348 79.626 114.386 79.626C115.387 79.626 116.286 79.8413 117.084 80.272C117.895 80.69 118.535 81.298 119.003 82.096C119.472 82.8813 119.706 83.825 119.706 84.927C119.706 85.041 119.7 85.174 119.687 85.326C119.675 85.4653 119.662 85.5983 119.649 85.725H111.346V83.996H118.091L116.951 84.509C116.951 83.977 116.844 83.5147 116.628 83.122C116.413 82.7293 116.115 82.4253 115.735 82.21C115.355 81.982 114.912 81.868 114.405 81.868C113.899 81.868 113.449 81.982 113.056 82.21C112.676 82.4253 112.379 82.7357 112.163 83.141C111.948 83.5337 111.84 84.0023 111.84 84.547V85.003C111.84 85.5603 111.961 86.0543 112.201 86.485C112.455 86.903 112.803 87.226 113.246 87.454C113.702 87.6693 114.234 87.777 114.842 87.777C115.387 87.777 115.862 87.6947 116.267 87.53C116.685 87.3653 117.065 87.1183 117.407 86.789L118.984 88.499C118.516 89.031 117.927 89.4427 117.217 89.734C116.508 90.0127 115.691 90.152 114.766 90.152ZM121.68 90V79.778H124.511V82.666L124.112 81.83C124.416 81.108 124.903 80.5633 125.575 80.196C126.246 79.816 127.063 79.626 128.026 79.626V82.362C127.899 82.3493 127.785 82.343 127.684 82.343C127.582 82.3303 127.475 82.324 127.361 82.324C126.55 82.324 125.891 82.5583 125.385 83.027C124.891 83.483 124.644 84.1987 124.644 85.174V90H121.68ZM135.39 90V88.005L135.2 87.568V83.996C135.2 83.3627 135.004 82.8687 134.611 82.514C134.231 82.1593 133.642 81.982 132.844 81.982C132.299 81.982 131.761 82.0707 131.229 82.248C130.71 82.4127 130.266 82.6407 129.899 82.932L128.835 80.861C129.392 80.4683 130.064 80.1643 130.849 79.949C131.634 79.7337 132.432 79.626 133.243 79.626C134.801 79.626 136.011 79.9933 136.872 80.728C137.733 81.4627 138.164 82.609 138.164 84.167V90H135.39ZM132.274 90.152C131.476 90.152 130.792 90.019 130.222 89.753C129.652 89.4743 129.215 89.1007 128.911 88.632C128.607 88.1633 128.455 87.6377 128.455 87.055C128.455 86.447 128.601 85.915 128.892 85.459C129.196 85.003 129.671 84.6483 130.317 84.395C130.963 84.129 131.805 83.996 132.844 83.996H135.561V85.725H133.167C132.47 85.725 131.989 85.839 131.723 86.067C131.47 86.295 131.343 86.58 131.343 86.922C131.343 87.302 131.489 87.606 131.78 87.834C132.084 88.0493 132.496 88.157 133.015 88.157C133.509 88.157 133.952 88.043 134.345 87.815C134.738 87.5743 135.023 87.226 135.2 86.77L135.656 88.138C135.441 88.7967 135.048 89.297 134.478 89.639C133.908 89.981 133.173 90.152 132.274 90.152ZM146.889 90.152C145.989 90.152 145.217 89.962 144.571 89.582C143.925 89.202 143.431 88.6257 143.089 87.853C142.747 87.0677 142.576 86.0797 142.576 84.889C142.576 83.6857 142.753 82.6977 143.108 81.925C143.475 81.1523 143.982 80.576 144.628 80.196C145.274 79.816 146.027 79.626 146.889 79.626C147.851 79.626 148.713 79.8413 149.473 80.272C150.245 80.7027 150.853 81.3107 151.297 82.096C151.753 82.8813 151.981 83.8123 151.981 84.889C151.981 85.953 151.753 86.8777 151.297 87.663C150.853 88.4483 150.245 89.0627 149.473 89.506C148.713 89.9367 147.851 90.152 146.889 90.152ZM140.847 90V75.902H143.811V81.849L143.621 84.87L143.678 87.91V90H140.847ZM146.376 87.72C146.87 87.72 147.307 87.606 147.687 87.378C148.079 87.15 148.39 86.827 148.618 86.409C148.858 85.9783 148.979 85.4717 148.979 84.889C148.979 84.2937 148.858 83.787 148.618 83.369C148.39 82.951 148.079 82.628 147.687 82.4C147.307 82.172 146.87 82.058 146.376 82.058C145.882 82.058 145.438 82.172 145.046 82.4C144.653 82.628 144.343 82.951 144.115 83.369C143.887 83.787 143.773 84.2937 143.773 84.889C143.773 85.4717 143.887 85.9783 144.115 86.409C144.343 86.827 144.653 87.15 145.046 87.378C145.438 87.606 145.882 87.72 146.376 87.72ZM153.965 90V79.778H156.929V90H153.965ZM155.447 78.353C154.902 78.353 154.459 78.1947 154.117 77.878C153.775 77.5613 153.604 77.1687 153.604 76.7C153.604 76.2313 153.775 75.8387 154.117 75.522C154.459 75.2053 154.902 75.047 155.447 75.047C155.991 75.047 156.435 75.199 156.777 75.503C157.119 75.7943 157.29 76.1743 157.29 76.643C157.29 77.137 157.119 77.5487 156.777 77.878C156.447 78.1947 156.004 78.353 155.447 78.353ZM159.68 90V75.902H162.644V90H159.68ZM170.467 90.152C169.302 90.152 168.276 89.924 167.389 89.468C166.515 89.012 165.838 88.3913 165.356 87.606C164.875 86.808 164.634 85.9023 164.634 84.889C164.634 83.863 164.869 82.9573 165.337 82.172C165.819 81.374 166.471 80.7533 167.294 80.31C168.118 79.854 169.049 79.626 170.087 79.626C171.088 79.626 171.987 79.8413 172.785 80.272C173.596 80.69 174.236 81.298 174.704 82.096C175.173 82.8813 175.407 83.825 175.407 84.927C175.407 85.041 175.401 85.174 175.388 85.326C175.376 85.4653 175.363 85.5983 175.35 85.725H167.047V83.996H173.792L172.652 84.509C172.652 83.977 172.545 83.5147 172.329 83.122C172.114 82.7293 171.816 82.4253 171.436 82.21C171.056 81.982 170.613 81.868 170.106 81.868C169.6 81.868 169.15 81.982 168.757 82.21C168.377 82.4253 168.08 82.7357 167.864 83.141C167.649 83.5337 167.541 84.0023 167.541 84.547V85.003C167.541 85.5603 167.662 86.0543 167.902 86.485C168.156 86.903 168.504 87.226 168.947 87.454C169.403 87.6693 169.935 87.777 170.543 87.777C171.088 87.777 171.563 87.6947 171.968 87.53C172.386 87.3653 172.766 87.1183 173.108 86.789L174.685 88.499C174.217 89.031 173.628 89.4427 172.918 89.734C172.209 90.0127 171.392 90.152 170.467 90.152Z" fill="white"/>
<path d="M69.427 122.343H75.811V124.813H69.427V122.343ZM69.655 129.658H66.577V116.358H76.628V118.828H69.655V129.658ZM84.4759 129.658V127.663L84.2859 127.226V123.654C84.2859 123.021 84.0896 122.527 83.6969 122.172C83.3169 121.818 82.7279 121.64 81.9299 121.64C81.3852 121.64 80.8469 121.729 80.3149 121.906C79.7956 122.071 79.3522 122.299 78.9849 122.59L77.9209 120.519C78.4782 120.127 79.1496 119.823 79.9349 119.607C80.7202 119.392 81.5182 119.284 82.3289 119.284C83.8869 119.284 85.0966 119.652 85.9579 120.386C86.8192 121.121 87.2499 122.267 87.2499 123.825V129.658H84.4759ZM81.3599 129.81C80.5619 129.81 79.8779 129.677 79.3079 129.411C78.7379 129.133 78.3009 128.759 77.9969 128.29C77.6929 127.822 77.5409 127.296 77.5409 126.713C77.5409 126.105 77.6866 125.573 77.9779 125.117C78.2819 124.661 78.7569 124.307 79.4029 124.053C80.0489 123.787 80.8912 123.654 81.9299 123.654H84.6469V125.383H82.2529C81.5562 125.383 81.0749 125.497 80.8089 125.725C80.5556 125.953 80.4289 126.238 80.4289 126.58C80.4289 126.96 80.5746 127.264 80.8659 127.492C81.1699 127.708 81.5816 127.815 82.1009 127.815C82.5949 127.815 83.0382 127.701 83.4309 127.473C83.8236 127.233 84.1086 126.884 84.2859 126.428L84.7419 127.796C84.5266 128.455 84.1339 128.955 83.5639 129.297C82.9939 129.639 82.2592 129.81 81.3599 129.81ZM103.023 119.284C103.834 119.284 104.55 119.449 105.17 119.778C105.804 120.095 106.298 120.589 106.652 121.26C107.02 121.919 107.203 122.768 107.203 123.806V129.658H104.239V124.262C104.239 123.439 104.068 122.831 103.726 122.438C103.384 122.046 102.903 121.849 102.282 121.849C101.852 121.849 101.465 121.951 101.123 122.153C100.781 122.343 100.515 122.635 100.325 123.027C100.135 123.42 100.04 123.92 100.04 124.528V129.658H97.0765V124.262C97.0765 123.439 96.9055 122.831 96.5635 122.438C96.2341 122.046 95.7591 121.849 95.1385 121.849C94.7078 121.849 94.3215 121.951 93.9795 122.153C93.6375 122.343 93.3715 122.635 93.1815 123.027C92.9915 123.42 92.8965 123.92 92.8965 124.528V129.658H89.9325V119.436H92.7635V122.229L92.2315 121.412C92.5861 120.716 93.0865 120.19 93.7325 119.835C94.3911 119.468 95.1385 119.284 95.9745 119.284C96.9118 119.284 97.7288 119.525 98.4255 120.006C99.1348 120.475 99.6035 121.197 99.8315 122.172L98.7865 121.887C99.1285 121.089 99.6731 120.456 100.42 119.987C101.18 119.519 102.048 119.284 103.023 119.284ZM109.86 129.658V119.436H112.824V129.658H109.86ZM111.342 118.011C110.798 118.011 110.354 117.853 110.012 117.536C109.67 117.22 109.499 116.827 109.499 116.358C109.499 115.89 109.67 115.497 110.012 115.18C110.354 114.864 110.798 114.705 111.342 114.705C111.887 114.705 112.33 114.857 112.672 115.161C113.014 115.453 113.185 115.833 113.185 116.301C113.185 116.795 113.014 117.207 112.672 117.536C112.343 117.853 111.9 118.011 111.342 118.011ZM115.575 129.658V115.56H118.539V129.658H115.575ZM121.29 129.658V119.436H124.254V129.658H121.29ZM122.772 118.011C122.227 118.011 121.784 117.853 121.442 117.536C121.1 117.22 120.929 116.827 120.929 116.358C120.929 115.89 121.1 115.497 121.442 115.18C121.784 114.864 122.227 114.705 122.772 114.705C123.317 114.705 123.76 114.857 124.102 115.161C124.444 115.453 124.615 115.833 124.615 116.301C124.615 116.795 124.444 117.207 124.102 117.536C123.773 117.853 123.329 118.011 122.772 118.011ZM127.005 129.658V119.436H129.969V129.658H127.005ZM128.487 118.011C127.942 118.011 127.499 117.853 127.157 117.536C126.815 117.22 126.644 116.827 126.644 116.358C126.644 115.89 126.815 115.497 127.157 115.18C127.499 114.864 127.942 114.705 128.487 114.705C129.031 114.705 129.475 114.857 129.817 115.161C130.159 115.453 130.33 115.833 130.33 116.301C130.33 116.795 130.159 117.207 129.817 117.536C129.487 117.853 129.044 118.011 128.487 118.011ZM140.874 129.658L136.58 119.436H139.639L143.211 128.233H141.691L145.396 119.436H148.246L143.933 129.658H140.874ZM153.769 129.81C152.92 129.81 152.16 129.646 151.489 129.316C150.83 128.987 150.317 128.487 149.95 127.815C149.583 127.131 149.399 126.264 149.399 125.212V119.436H152.363V124.775C152.363 125.624 152.54 126.251 152.895 126.656C153.262 127.049 153.775 127.245 154.434 127.245C154.89 127.245 155.295 127.15 155.65 126.96C156.005 126.758 156.283 126.454 156.486 126.048C156.689 125.63 156.79 125.111 156.79 124.49V119.436H159.754V129.658H156.942V126.846L157.455 127.663C157.113 128.373 156.606 128.911 155.935 129.278C155.276 129.633 154.554 129.81 153.769 129.81ZM162.5 129.658V115.56H165.464V129.658H162.5ZM174.428 119.284C175.238 119.284 175.96 119.449 176.594 119.778C177.24 120.095 177.746 120.589 178.114 121.26C178.481 121.919 178.665 122.768 178.665 123.806V129.658H175.701V124.262C175.701 123.439 175.517 122.831 175.15 122.438C174.795 122.046 174.288 121.849 173.63 121.849C173.161 121.849 172.737 121.951 172.357 122.153C171.989 122.343 171.698 122.641 171.483 123.046C171.28 123.452 171.179 123.971 171.179 124.604V129.658H168.215V119.436H171.046V122.267L170.514 121.412C170.881 120.728 171.407 120.203 172.091 119.835C172.775 119.468 173.554 119.284 174.428 119.284ZM186.499 129.81C185.333 129.81 184.307 129.582 183.421 129.126C182.547 128.67 181.869 128.05 181.388 127.264C180.906 126.466 180.666 125.561 180.666 124.547C180.666 123.521 180.9 122.616 181.369 121.83C181.85 121.032 182.502 120.412 183.326 119.968C184.149 119.512 185.08 119.284 186.119 119.284C187.119 119.284 188.019 119.5 188.817 119.93C189.627 120.348 190.267 120.956 190.736 121.754C191.204 122.54 191.439 123.483 191.439 124.585C191.439 124.699 191.432 124.832 191.42 124.984C191.407 125.124 191.394 125.257 191.382 125.383H183.079V123.654H189.824L188.684 124.167C188.684 123.635 188.576 123.173 188.361 122.78C188.145 122.388 187.848 122.084 187.468 121.868C187.088 121.64 186.644 121.526 186.138 121.526C185.631 121.526 185.181 121.64 184.789 121.868C184.409 122.084 184.111 122.394 183.896 122.799C183.68 123.192 183.573 123.661 183.573 124.205V124.661C183.573 125.219 183.693 125.713 183.934 126.143C184.187 126.561 184.535 126.884 184.979 127.112C185.435 127.328 185.967 127.435 186.575 127.435C187.119 127.435 187.594 127.353 188 127.188C188.418 127.024 188.798 126.777 189.14 126.447L190.717 128.157C190.248 128.689 189.659 129.101 188.95 129.392C188.24 129.671 187.423 129.81 186.499 129.81ZM193.412 129.658V119.436H196.243V122.324L195.844 121.488C196.148 120.766 196.636 120.222 197.307 119.854C197.978 119.474 198.795 119.284 199.758 119.284V122.02C199.631 122.008 199.517 122.001 199.416 122.001C199.315 121.989 199.207 121.982 199.093 121.982C198.282 121.982 197.624 122.217 197.117 122.685C196.623 123.141 196.376 123.857 196.376 124.832V129.658H193.412ZM207.122 129.658V127.663L206.932 127.226V123.654C206.932 123.021 206.736 122.527 206.343 122.172C205.963 121.818 205.374 121.64 204.576 121.64C204.032 121.64 203.493 121.729 202.961 121.906C202.442 122.071 201.999 122.299 201.631 122.59L200.567 120.519C201.125 120.127 201.796 119.823 202.581 119.607C203.367 119.392 204.165 119.284 204.975 119.284C206.533 119.284 207.743 119.652 208.604 120.386C209.466 121.121 209.896 122.267 209.896 123.825V129.658H207.122ZM204.006 129.81C203.208 129.81 202.524 129.677 201.954 129.411C201.384 129.133 200.947 128.759 200.643 128.29C200.339 127.822 200.187 127.296 200.187 126.713C200.187 126.105 200.333 125.573 200.624 125.117C200.928 124.661 201.403 124.307 202.049 124.053C202.695 123.787 203.538 123.654 204.576 123.654H207.293V125.383H204.899C204.203 125.383 203.721 125.497 203.455 125.725C203.202 125.953 203.075 126.238 203.075 126.58C203.075 126.96 203.221 127.264 203.512 127.492C203.816 127.708 204.228 127.815 204.747 127.815C205.241 127.815 205.685 127.701 206.077 127.473C206.47 127.233 206.755 126.884 206.932 126.428L207.388 127.796C207.173 128.455 206.78 128.955 206.21 129.297C205.64 129.639 204.906 129.81 204.006 129.81ZM218.621 129.81C217.722 129.81 216.949 129.62 216.303 129.24C215.657 128.86 215.163 128.284 214.821 127.511C214.479 126.726 214.308 125.738 214.308 124.547C214.308 123.344 214.485 122.356 214.84 121.583C215.207 120.811 215.714 120.234 216.36 119.854C217.006 119.474 217.76 119.284 218.621 119.284C219.584 119.284 220.445 119.5 221.205 119.93C221.978 120.361 222.586 120.969 223.029 121.754C223.485 122.54 223.713 123.471 223.713 124.547C223.713 125.611 223.485 126.536 223.029 127.321C222.586 128.107 221.978 128.721 221.205 129.164C220.445 129.595 219.584 129.81 218.621 129.81ZM212.579 129.658V115.56H215.543V121.507L215.353 124.528L215.41 127.568V129.658H212.579ZM218.108 127.378C218.602 127.378 219.039 127.264 219.419 127.036C219.812 126.808 220.122 126.485 220.35 126.067C220.591 125.637 220.711 125.13 220.711 124.547C220.711 123.952 220.591 123.445 220.35 123.027C220.122 122.609 219.812 122.286 219.419 122.058C219.039 121.83 218.602 121.716 218.108 121.716C217.614 121.716 217.171 121.83 216.778 122.058C216.385 122.286 216.075 122.609 215.847 123.027C215.619 123.445 215.505 123.952 215.505 124.547C215.505 125.13 215.619 125.637 215.847 126.067C216.075 126.485 216.385 126.808 216.778 127.036C217.171 127.264 217.614 127.378 218.108 127.378ZM225.697 129.658V119.436H228.661V129.658H225.697ZM227.179 118.011C226.634 118.011 226.191 117.853 225.849 117.536C225.507 117.22 225.336 116.827 225.336 116.358C225.336 115.89 225.507 115.497 225.849 115.18C226.191 114.864 226.634 114.705 227.179 114.705C227.724 114.705 228.167 114.857 228.509 115.161C228.851 115.453 229.022 115.833 229.022 116.301C229.022 116.795 228.851 117.207 228.509 117.536C228.18 117.853 227.736 118.011 227.179 118.011ZM231.412 129.658V115.56H234.376V129.658H231.412ZM242.2 129.81C241.034 129.81 240.008 129.582 239.122 129.126C238.248 128.67 237.57 128.05 237.089 127.264C236.607 126.466 236.367 125.561 236.367 124.547C236.367 123.521 236.601 122.616 237.07 121.83C237.551 121.032 238.203 120.412 239.027 119.968C239.85 119.512 240.781 119.284 241.82 119.284C242.82 119.284 243.72 119.5 244.518 119.93C245.328 120.348 245.968 120.956 246.437 121.754C246.905 122.54 247.14 123.483 247.14 124.585C247.14 124.699 247.133 124.832 247.121 124.984C247.108 125.124 247.095 125.257 247.083 125.383H238.78V123.654H245.525L244.385 124.167C244.385 123.635 244.277 123.173 244.062 122.78C243.846 122.388 243.549 122.084 243.169 121.868C242.789 121.64 242.345 121.526 241.839 121.526C241.332 121.526 240.882 121.64 240.49 121.868C240.11 122.084 239.812 122.394 239.597 122.799C239.381 123.192 239.274 123.661 239.274 124.205V124.661C239.274 125.219 239.394 125.713 239.635 126.143C239.888 126.561 240.236 126.884 240.68 127.112C241.136 127.328 241.668 127.435 242.276 127.435C242.82 127.435 243.295 127.353 243.701 127.188C244.119 127.024 244.499 126.777 244.841 126.447L246.418 128.157C245.949 128.689 245.36 129.101 244.651 129.392C243.941 129.671 243.124 129.81 242.2 129.81Z" fill="white"/>
<path d="M72.942 185.482C71.916 185.482 70.9597 185.317 70.073 184.988C69.199 184.646 68.439 184.165 67.793 183.544C67.147 182.923 66.6403 182.195 66.273 181.359C65.9183 180.523 65.741 179.605 65.741 178.604C65.741 177.603 65.9183 176.685 66.273 175.849C66.6403 175.013 67.147 174.285 67.793 173.664C68.4517 173.043 69.218 172.568 70.092 172.239C70.966 171.897 71.9223 171.726 72.961 171.726C74.1137 171.726 75.1523 171.929 76.077 172.334C77.0143 172.727 77.7997 173.309 78.433 174.082L76.457 175.906C76.001 175.387 75.4943 175 74.937 174.747C74.3797 174.481 73.7717 174.348 73.113 174.348C72.4923 174.348 71.9223 174.449 71.403 174.652C70.8837 174.855 70.434 175.146 70.054 175.526C69.674 175.906 69.3763 176.356 69.161 176.875C68.9583 177.394 68.857 177.971 68.857 178.604C68.857 179.237 68.9583 179.814 69.161 180.333C69.3763 180.852 69.674 181.302 70.054 181.682C70.434 182.062 70.8837 182.353 71.403 182.556C71.9223 182.759 72.4923 182.86 73.113 182.86C73.7717 182.86 74.3797 182.733 74.937 182.48C75.4943 182.214 76.001 181.815 76.457 181.283L78.433 183.107C77.7997 183.88 77.0143 184.469 76.077 184.874C75.1523 185.279 74.1073 185.482 72.942 185.482ZM84.814 185.406C83.7247 185.406 82.7557 185.178 81.907 184.722C81.071 184.266 80.406 183.645 79.912 182.86C79.4307 182.062 79.19 181.156 79.19 180.143C79.19 179.117 79.4307 178.211 79.912 177.426C80.406 176.628 81.071 176.007 81.907 175.564C82.7557 175.108 83.7247 174.88 84.814 174.88C85.8907 174.88 86.8534 175.108 87.702 175.564C88.5507 176.007 89.2157 176.622 89.697 177.407C90.1784 178.192 90.419 179.104 90.419 180.143C90.419 181.156 90.1784 182.062 89.697 182.86C89.2157 183.645 88.5507 184.266 87.702 184.722C86.8534 185.178 85.8907 185.406 84.814 185.406ZM84.814 182.974C85.308 182.974 85.7514 182.86 86.144 182.632C86.5367 182.404 86.847 182.081 87.075 181.663C87.303 181.232 87.417 180.726 87.417 180.143C87.417 179.548 87.303 179.041 87.075 178.623C86.847 178.205 86.5367 177.882 86.144 177.654C85.7514 177.426 85.308 177.312 84.814 177.312C84.32 177.312 83.8767 177.426 83.484 177.654C83.0914 177.882 82.7747 178.205 82.534 178.623C82.306 179.041 82.192 179.548 82.192 180.143C82.192 180.726 82.306 181.232 82.534 181.663C82.7747 182.081 83.0914 182.404 83.484 182.632C83.8767 182.86 84.32 182.974 84.814 182.974ZM105.491 174.88C106.302 174.88 107.018 175.045 107.638 175.374C108.272 175.691 108.766 176.185 109.12 176.856C109.488 177.515 109.671 178.363 109.671 179.402V185.254H106.707V179.858C106.707 179.035 106.536 178.427 106.194 178.034C105.852 177.641 105.371 177.445 104.75 177.445C104.32 177.445 103.933 177.546 103.591 177.749C103.249 177.939 102.983 178.23 102.793 178.623C102.603 179.016 102.508 179.516 102.508 180.124V185.254H99.5442V179.858C99.5442 179.035 99.3732 178.427 99.0312 178.034C98.7019 177.641 98.2269 177.445 97.6062 177.445C97.1756 177.445 96.7892 177.546 96.4472 177.749C96.1052 177.939 95.8392 178.23 95.6492 178.623C95.4592 179.016 95.3642 179.516 95.3642 180.124V185.254H92.4002V175.032H95.2312V177.825L94.6992 177.008C95.0539 176.311 95.5542 175.786 96.2002 175.431C96.8589 175.064 97.6062 174.88 98.4422 174.88C99.3796 174.88 100.197 175.121 100.893 175.602C101.603 176.071 102.071 176.793 102.299 177.768L101.254 177.483C101.596 176.685 102.141 176.052 102.888 175.583C103.648 175.114 104.516 174.88 105.491 174.88ZM116.641 185.406C115.792 185.406 115.032 185.241 114.361 184.912C113.702 184.583 113.189 184.082 112.822 183.411C112.455 182.727 112.271 181.859 112.271 180.808V175.032H115.235V180.371C115.235 181.22 115.412 181.847 115.767 182.252C116.134 182.645 116.647 182.841 117.306 182.841C117.762 182.841 118.167 182.746 118.522 182.556C118.877 182.353 119.155 182.049 119.358 181.644C119.561 181.226 119.662 180.707 119.662 180.086V175.032H122.626V185.254H119.814V182.442L120.327 183.259C119.985 183.968 119.478 184.507 118.807 184.874C118.148 185.229 117.426 185.406 116.641 185.406ZM131.585 174.88C132.396 174.88 133.118 175.045 133.751 175.374C134.397 175.691 134.904 176.185 135.271 176.856C135.638 177.515 135.822 178.363 135.822 179.402V185.254H132.858V179.858C132.858 179.035 132.674 178.427 132.307 178.034C131.952 177.641 131.446 177.445 130.787 177.445C130.318 177.445 129.894 177.546 129.514 177.749C129.147 177.939 128.855 178.237 128.64 178.642C128.437 179.047 128.336 179.567 128.336 180.2V185.254H125.372V175.032H128.203V177.863L127.671 177.008C128.038 176.324 128.564 175.798 129.248 175.431C129.932 175.064 130.711 174.88 131.585 174.88ZM138.509 185.254V175.032H141.473V185.254H138.509ZM139.991 173.607C139.446 173.607 139.003 173.449 138.661 173.132C138.319 172.815 138.148 172.423 138.148 171.954C138.148 171.485 138.319 171.093 138.661 170.776C139.003 170.459 139.446 170.301 139.991 170.301C140.535 170.301 140.979 170.453 141.321 170.757C141.663 171.048 141.834 171.428 141.834 171.897C141.834 172.391 141.663 172.803 141.321 173.132C140.991 173.449 140.548 173.607 139.991 173.607ZM148.403 185.406C147.2 185.406 146.263 185.102 145.591 184.494C144.92 183.873 144.584 182.955 144.584 181.739V172.771H147.548V181.701C147.548 182.132 147.662 182.467 147.89 182.708C148.118 182.936 148.429 183.05 148.821 183.05C149.29 183.05 149.689 182.923 150.018 182.67L150.816 184.76C150.512 184.975 150.145 185.14 149.714 185.254C149.296 185.355 148.859 185.406 148.403 185.406ZM143.007 177.54V175.26H150.094V177.54H143.007ZM158.75 185.254V183.259L158.56 182.822V179.25C158.56 178.617 158.364 178.123 157.971 177.768C157.591 177.413 157.002 177.236 156.204 177.236C155.66 177.236 155.121 177.325 154.589 177.502C154.07 177.667 153.627 177.895 153.259 178.186L152.195 176.115C152.753 175.722 153.424 175.418 154.209 175.203C154.995 174.988 155.793 174.88 156.603 174.88C158.161 174.88 159.371 175.247 160.232 175.982C161.094 176.717 161.524 177.863 161.524 179.421V185.254H158.75ZM155.634 185.406C154.836 185.406 154.152 185.273 153.582 185.007C153.012 184.728 152.575 184.355 152.271 183.886C151.967 183.417 151.815 182.892 151.815 182.309C151.815 181.701 151.961 181.169 152.252 180.713C152.556 180.257 153.031 179.902 153.677 179.649C154.323 179.383 155.166 179.25 156.204 179.25H158.921V180.979H156.527C155.831 180.979 155.349 181.093 155.083 181.321C154.83 181.549 154.703 181.834 154.703 182.176C154.703 182.556 154.849 182.86 155.14 183.088C155.444 183.303 155.856 183.411 156.375 183.411C156.869 183.411 157.313 183.297 157.705 183.069C158.098 182.828 158.383 182.48 158.56 182.024L159.016 183.392C158.801 184.051 158.408 184.551 157.838 184.893C157.268 185.235 156.534 185.406 155.634 185.406ZM156.907 173.873C155.919 173.873 155.096 173.613 154.437 173.094C153.791 172.575 153.449 171.872 153.411 170.985H155.273C155.299 171.403 155.463 171.732 155.767 171.973C156.084 172.214 156.464 172.334 156.907 172.334C157.351 172.334 157.731 172.214 158.047 171.973C158.364 171.732 158.529 171.403 158.541 170.985H160.403C160.365 171.872 160.017 172.575 159.358 173.094C158.712 173.613 157.895 173.873 156.907 173.873ZM168.387 185.406C167.184 185.406 166.246 185.102 165.575 184.494C164.904 183.873 164.568 182.955 164.568 181.739V172.771H167.532V181.701C167.532 182.132 167.646 182.467 167.874 182.708C168.102 182.936 168.412 183.05 168.805 183.05C169.274 183.05 169.673 182.923 170.002 182.67L170.8 184.76C170.496 184.975 170.129 185.14 169.698 185.254C169.28 185.355 168.843 185.406 168.387 185.406ZM162.991 177.54V175.26H170.078V177.54H162.991ZM166.753 190.308L167.513 187.876L167.836 188.883C167.405 188.883 167.076 188.782 166.848 188.579C166.633 188.389 166.525 188.123 166.525 187.781C166.525 187.439 166.639 187.16 166.867 186.945C167.108 186.742 167.431 186.641 167.836 186.641C168.241 186.641 168.558 186.749 168.786 186.964C169.027 187.179 169.147 187.452 169.147 187.781C169.147 187.933 169.122 188.11 169.071 188.313C169.033 188.516 168.944 188.75 168.805 189.016L168.14 190.308H166.753ZM172.464 185.254V175.032H175.428V185.254H172.464ZM173.946 173.607C173.401 173.607 172.958 173.449 172.616 173.132C172.274 172.815 172.103 172.423 172.103 171.954C172.103 171.485 172.274 171.093 172.616 170.776C172.958 170.459 173.401 170.301 173.946 170.301C174.49 170.301 174.934 170.453 175.276 170.757C175.618 171.048 175.789 171.428 175.789 171.897C175.789 172.391 175.618 172.803 175.276 173.132C174.946 173.449 174.503 173.607 173.946 173.607ZM186.333 185.254L182.039 175.032H185.098L188.67 183.829H187.15L190.855 175.032H193.705L189.392 185.254H186.333ZM199.228 185.406C198.379 185.406 197.619 185.241 196.948 184.912C196.289 184.583 195.776 184.082 195.409 183.411C195.042 182.727 194.858 181.859 194.858 180.808V175.032H197.822V180.371C197.822 181.22 197.999 181.847 198.354 182.252C198.721 182.645 199.234 182.841 199.893 182.841C200.349 182.841 200.754 182.746 201.109 182.556C201.464 182.353 201.742 182.049 201.945 181.644C202.148 181.226 202.249 180.707 202.249 180.086V175.032H205.213V185.254H202.401V182.442L202.914 183.259C202.572 183.968 202.065 184.507 201.394 184.874C200.735 185.229 200.013 185.406 199.228 185.406ZM207.959 185.254V171.156H210.923V185.254H207.959ZM219.887 174.88C220.697 174.88 221.419 175.045 222.053 175.374C222.699 175.691 223.205 176.185 223.573 176.856C223.94 177.515 224.124 178.363 224.124 179.402V185.254H221.16V179.858C221.16 179.035 220.976 178.427 220.609 178.034C220.254 177.641 219.747 177.445 219.089 177.445C218.62 177.445 218.196 177.546 217.816 177.749C217.448 177.939 217.157 178.237 216.942 178.642C216.739 179.047 216.638 179.567 216.638 180.2V185.254H213.674V175.032H216.505V177.863L215.973 177.008C216.34 176.324 216.866 175.798 217.55 175.431C218.234 175.064 219.013 174.88 219.887 174.88ZM231.958 185.406C230.792 185.406 229.766 185.178 228.88 184.722C228.006 184.266 227.328 183.645 226.847 182.86C226.365 182.062 226.125 181.156 226.125 180.143C226.125 179.117 226.359 178.211 226.828 177.426C227.309 176.628 227.961 176.007 228.785 175.564C229.608 175.108 230.539 174.88 231.578 174.88C232.578 174.88 233.478 175.095 234.276 175.526C235.086 175.944 235.726 176.552 236.195 177.35C236.663 178.135 236.898 179.079 236.898 180.181C236.898 180.295 236.891 180.428 236.879 180.58C236.866 180.719 236.853 180.852 236.841 180.979H228.538V179.25H235.283L234.143 179.763C234.143 179.231 234.035 178.769 233.82 178.376C233.604 177.983 233.307 177.679 232.927 177.464C232.547 177.236 232.103 177.122 231.597 177.122C231.09 177.122 230.64 177.236 230.248 177.464C229.868 177.679 229.57 177.99 229.355 178.395C229.139 178.788 229.032 179.256 229.032 179.801V180.257C229.032 180.814 229.152 181.308 229.393 181.739C229.646 182.157 229.994 182.48 230.438 182.708C230.894 182.923 231.426 183.031 232.034 183.031C232.578 183.031 233.053 182.949 233.459 182.784C233.877 182.619 234.257 182.372 234.599 182.043L236.176 183.753C235.707 184.285 235.118 184.697 234.409 184.988C233.699 185.267 232.882 185.406 231.958 185.406ZM238.871 185.254V175.032H241.702V177.92L241.303 177.084C241.607 176.362 242.095 175.817 242.766 175.45C243.437 175.07 244.254 174.88 245.217 174.88V177.616C245.09 177.603 244.976 177.597 244.875 177.597C244.774 177.584 244.666 177.578 244.552 177.578C243.741 177.578 243.083 177.812 242.576 178.281C242.082 178.737 241.835 179.453 241.835 180.428V185.254H238.871ZM252.581 185.254V183.259L252.391 182.822V179.25C252.391 178.617 252.195 178.123 251.802 177.768C251.422 177.413 250.833 177.236 250.035 177.236C249.491 177.236 248.952 177.325 248.42 177.502C247.901 177.667 247.458 177.895 247.09 178.186L246.026 176.115C246.584 175.722 247.255 175.418 248.04 175.203C248.826 174.988 249.624 174.88 250.434 174.88C251.992 174.88 253.202 175.247 254.063 175.982C254.925 176.717 255.355 177.863 255.355 179.421V185.254H252.581ZM249.465 185.406C248.667 185.406 247.983 185.273 247.413 185.007C246.843 184.728 246.406 184.355 246.102 183.886C245.798 183.417 245.646 182.892 245.646 182.309C245.646 181.701 245.792 181.169 246.083 180.713C246.387 180.257 246.862 179.902 247.508 179.649C248.154 179.383 248.997 179.25 250.035 179.25H252.752V180.979H250.358C249.662 180.979 249.18 181.093 248.914 181.321C248.661 181.549 248.534 181.834 248.534 182.176C248.534 182.556 248.68 182.86 248.971 183.088C249.275 183.303 249.687 183.411 250.206 183.411C250.7 183.411 251.144 183.297 251.536 183.069C251.929 182.828 252.214 182.48 252.391 182.024L252.847 183.392C252.632 184.051 252.239 184.551 251.669 184.893C251.099 185.235 250.365 185.406 249.465 185.406ZM264.08 185.406C263.181 185.406 262.408 185.216 261.762 184.836C261.116 184.456 260.622 183.88 260.28 183.107C259.938 182.322 259.767 181.334 259.767 180.143C259.767 178.94 259.944 177.952 260.299 177.179C260.666 176.406 261.173 175.83 261.819 175.45C262.465 175.07 263.219 174.88 264.08 174.88C265.043 174.88 265.904 175.095 266.664 175.526C267.437 175.957 268.045 176.565 268.488 177.35C268.944 178.135 269.172 179.066 269.172 180.143C269.172 181.207 268.944 182.132 268.488 182.917C268.045 183.702 267.437 184.317 266.664 184.76C265.904 185.191 265.043 185.406 264.08 185.406ZM258.038 185.254V171.156H261.002V177.103L260.812 180.124L260.869 183.164V185.254H258.038ZM263.567 182.974C264.061 182.974 264.498 182.86 264.878 182.632C265.271 182.404 265.581 182.081 265.809 181.663C266.05 181.232 266.17 180.726 266.17 180.143C266.17 179.548 266.05 179.041 265.809 178.623C265.581 178.205 265.271 177.882 264.878 177.654C264.498 177.426 264.061 177.312 263.567 177.312C263.073 177.312 262.63 177.426 262.237 177.654C261.844 177.882 261.534 178.205 261.306 178.623C261.078 179.041 260.964 179.548 260.964 180.143C260.964 180.726 261.078 181.232 261.306 181.663C261.534 182.081 261.844 182.404 262.237 182.632C262.63 182.86 263.073 182.974 263.567 182.974ZM271.156 185.254V175.032H274.12V185.254H271.156ZM272.638 173.607C272.093 173.607 271.65 173.449 271.308 173.132C270.966 172.815 270.795 172.423 270.795 171.954C270.795 171.485 270.966 171.093 271.308 170.776C271.65 170.459 272.093 170.301 272.638 170.301C273.183 170.301 273.626 170.453 273.968 170.757C274.31 171.048 274.481 171.428 274.481 171.897C274.481 172.391 274.31 172.803 273.968 173.132C273.639 173.449 273.195 173.607 272.638 173.607ZM276.871 185.254V171.156H279.835V185.254H276.871ZM287.659 185.406C286.493 185.406 285.467 185.178 284.581 184.722C283.707 184.266 283.029 183.645 282.548 182.86C282.066 182.062 281.826 181.156 281.826 180.143C281.826 179.117 282.06 178.211 282.529 177.426C283.01 176.628 283.662 176.007 284.486 175.564C285.309 175.108 286.24 174.88 287.279 174.88C288.279 174.88 289.179 175.095 289.977 175.526C290.787 175.944 291.427 176.552 291.896 177.35C292.364 178.135 292.599 179.079 292.599 180.181C292.599 180.295 292.592 180.428 292.58 180.58C292.567 180.719 292.554 180.852 292.542 180.979H284.239V179.25H290.984L289.844 179.763C289.844 179.231 289.736 178.769 289.521 178.376C289.305 177.983 289.008 177.679 288.628 177.464C288.248 177.236 287.804 177.122 287.298 177.122C286.791 177.122 286.341 177.236 285.949 177.464C285.569 177.679 285.271 177.99 285.056 178.395C284.84 178.788 284.733 179.256 284.733 179.801V180.257C284.733 180.814 284.853 181.308 285.094 181.739C285.347 182.157 285.695 182.48 286.139 182.708C286.595 182.923 287.127 183.031 287.735 183.031C288.279 183.031 288.754 182.949 289.16 182.784C289.578 182.619 289.958 182.372 290.3 182.043L291.877 183.753C291.408 184.285 290.819 184.697 290.11 184.988C289.4 185.267 288.583 185.406 287.659 185.406Z" fill="white"/>
</svg>
