<svg width="315" height="204" viewBox="0 0 315 204" fill="none" xmlns="http://www.w3.org/2000/svg">
<rect y="0.468018" width="22" height="21.841" fill="#9BC53F"/>
<rect y="56.0632" width="22" height="21.841" fill="#4C9869"/>
<rect y="111.658" width="22" height="21.841" fill="#305C93"/>
<rect y="167.254" width="22" height="21.841" fill="#84367E"/>
<path d="M70.567 18.468L64.829 5.16802H68.154L73.17 16.948H71.213L76.305 5.16802H79.364L73.607 18.468H70.567ZM84.2259 18.62C83.3773 18.62 82.6173 18.4554 81.9459 18.126C81.2873 17.7967 80.7743 17.2964 80.4069 16.625C80.0396 15.941 79.8559 15.0734 79.8559 14.022V8.24602H82.8199V13.585C82.8199 14.4337 82.9973 15.0607 83.3519 15.466C83.7193 15.8587 84.2323 16.055 84.8909 16.055C85.3469 16.055 85.7523 15.96 86.1069 15.77C86.4616 15.5674 86.7403 15.2634 86.9429 14.858C87.1456 14.44 87.2469 13.9207 87.2469 13.3V8.24602H90.2109V18.468H87.3989V15.656L87.9119 16.473C87.5699 17.1824 87.0633 17.7207 86.3919 18.088C85.7333 18.4427 85.0113 18.62 84.2259 18.62ZM92.9569 18.468V4.37002H95.9209V18.468H92.9569ZM104.885 8.09402C105.695 8.09402 106.417 8.25868 107.051 8.58802C107.697 8.90468 108.203 9.39868 108.571 10.07C108.938 10.7287 109.122 11.5774 109.122 12.616V18.468H106.158V13.072C106.158 12.2487 105.974 11.6407 105.607 11.248C105.252 10.8554 104.745 10.659 104.087 10.659C103.618 10.659 103.194 10.7604 102.814 10.963C102.446 11.153 102.155 11.4507 101.94 11.856C101.737 12.2614 101.636 12.7807 101.636 13.414V18.468H98.6717V8.24602H101.503V11.077L100.971 10.222C101.338 9.53802 101.864 9.01235 102.548 8.64502C103.232 8.27768 104.011 8.09402 104.885 8.09402ZM116.956 18.62C115.79 18.62 114.764 18.392 113.878 17.936C113.004 17.48 112.326 16.8594 111.845 16.074C111.363 15.276 111.123 14.3704 111.123 13.357C111.123 12.331 111.357 11.4254 111.826 10.64C112.307 9.84202 112.959 9.22135 113.783 8.77802C114.606 8.32202 115.537 8.09402 116.576 8.09402C117.576 8.09402 118.476 8.30935 119.274 8.74002C120.084 9.15802 120.724 9.76602 121.193 10.564C121.661 11.3494 121.896 12.293 121.896 13.395C121.896 13.509 121.889 13.642 121.877 13.794C121.864 13.9334 121.851 14.0664 121.839 14.193H113.536V12.464H120.281L119.141 12.977C119.141 12.445 119.033 11.9827 118.818 11.59C118.602 11.1974 118.305 10.8934 117.925 10.678C117.545 10.45 117.101 10.336 116.595 10.336C116.088 10.336 115.638 10.45 115.246 10.678C114.866 10.8934 114.568 11.2037 114.353 11.609C114.137 12.0017 114.03 12.4704 114.03 13.015V13.471C114.03 14.0284 114.15 14.5224 114.391 14.953C114.644 15.371 114.992 15.694 115.436 15.922C115.892 16.1374 116.424 16.245 117.032 16.245C117.576 16.245 118.051 16.1627 118.457 15.998C118.875 15.8334 119.255 15.5864 119.597 15.257L121.174 16.967C120.705 17.499 120.116 17.9107 119.407 18.202C118.697 18.4807 117.88 18.62 116.956 18.62ZM123.869 18.468V8.24602H126.7V11.134L126.301 10.298C126.605 9.57602 127.093 9.03135 127.764 8.66402C128.435 8.28402 129.252 8.09402 130.215 8.09402V10.83C130.088 10.8174 129.974 10.811 129.873 10.811C129.772 10.7984 129.664 10.792 129.55 10.792C128.739 10.792 128.081 11.0264 127.574 11.495C127.08 11.951 126.833 12.6667 126.833 13.642V18.468H123.869ZM137.579 18.468V16.473L137.389 16.036V12.464C137.389 11.8307 137.193 11.3367 136.8 10.982C136.42 10.6274 135.831 10.45 135.033 10.45C134.489 10.45 133.95 10.5387 133.418 10.716C132.899 10.8807 132.456 11.1087 132.088 11.4L131.024 9.32902C131.582 8.93635 132.253 8.63235 133.038 8.41702C133.824 8.20168 134.622 8.09402 135.432 8.09402C136.99 8.09402 138.2 8.46135 139.061 9.19602C139.923 9.93068 140.353 11.077 140.353 12.635V18.468H137.579ZM134.463 18.62C133.665 18.62 132.981 18.487 132.411 18.221C131.841 17.9424 131.404 17.5687 131.1 17.1C130.796 16.6314 130.644 16.1057 130.644 15.523C130.644 14.915 130.79 14.383 131.081 13.927C131.385 13.471 131.86 13.1164 132.506 12.863C133.152 12.597 133.995 12.464 135.033 12.464H137.75V14.193H135.356C134.66 14.193 134.178 14.307 133.912 14.535C133.659 14.763 133.532 15.048 133.532 15.39C133.532 15.77 133.678 16.074 133.969 16.302C134.273 16.5174 134.685 16.625 135.204 16.625C135.698 16.625 136.142 16.511 136.534 16.283C136.927 16.0424 137.212 15.694 137.389 15.238L137.845 16.606C137.63 17.2647 137.237 17.765 136.667 18.107C136.097 18.449 135.363 18.62 134.463 18.62ZM149.078 18.62C148.179 18.62 147.406 18.43 146.76 18.05C146.114 17.67 145.62 17.0937 145.278 16.321C144.936 15.5357 144.765 14.5477 144.765 13.357C144.765 12.1537 144.942 11.1657 145.297 10.393C145.664 9.62035 146.171 9.04402 146.817 8.66402C147.463 8.28402 148.217 8.09402 149.078 8.09402C150.041 8.09402 150.902 8.30935 151.662 8.74002C152.435 9.17068 153.043 9.77868 153.486 10.564C153.942 11.3494 154.17 12.2804 154.17 13.357C154.17 14.421 153.942 15.3457 153.486 16.131C153.043 16.9164 152.435 17.5307 151.662 17.974C150.902 18.4047 150.041 18.62 149.078 18.62ZM143.036 18.468V4.37002H146V10.317L145.81 13.338L145.867 16.378V18.468H143.036ZM148.565 16.188C149.059 16.188 149.496 16.074 149.876 15.846C150.269 15.618 150.579 15.295 150.807 14.877C151.048 14.4464 151.168 13.9397 151.168 13.357C151.168 12.7617 151.048 12.255 150.807 11.837C150.579 11.419 150.269 11.096 149.876 10.868C149.496 10.64 149.059 10.526 148.565 10.526C148.071 10.526 147.628 10.64 147.235 10.868C146.842 11.096 146.532 11.419 146.304 11.837C146.076 12.255 145.962 12.7617 145.962 13.357C145.962 13.9397 146.076 14.4464 146.304 14.877C146.532 15.295 146.842 15.618 147.235 15.846C147.628 16.074 148.071 16.188 148.565 16.188ZM156.154 18.468V4.37002H159.118V18.468H156.154ZM166.942 18.62C165.777 18.62 164.751 18.392 163.864 17.936C162.99 17.48 162.312 16.8594 161.831 16.074C161.35 15.276 161.109 14.3704 161.109 13.357C161.109 12.331 161.343 11.4254 161.812 10.64C162.293 9.84202 162.946 9.22135 163.769 8.77802C164.592 8.32202 165.523 8.09402 166.562 8.09402C167.563 8.09402 168.462 8.30935 169.26 8.74002C170.071 9.15802 170.71 9.76602 171.179 10.564C171.648 11.3494 171.882 12.293 171.882 13.395C171.882 13.509 171.876 13.642 171.863 13.794C171.85 13.9334 171.838 14.0664 171.825 14.193H163.522V12.464H170.267L169.127 12.977C169.127 12.445 169.019 11.9827 168.804 11.59C168.589 11.1974 168.291 10.8934 167.911 10.678C167.531 10.45 167.088 10.336 166.581 10.336C166.074 10.336 165.625 10.45 165.232 10.678C164.852 10.8934 164.554 11.2037 164.339 11.609C164.124 12.0017 164.016 12.4704 164.016 13.015V13.471C164.016 14.0284 164.136 14.5224 164.377 14.953C164.63 15.371 164.979 15.694 165.422 15.922C165.878 16.1374 166.41 16.245 167.018 16.245C167.563 16.245 168.038 16.1627 168.443 15.998C168.861 15.8334 169.241 15.5864 169.583 15.257L171.16 16.967C170.691 17.499 170.102 17.9107 169.393 18.202C168.684 18.4807 167.867 18.62 166.942 18.62ZM179.236 18.468V8.24602H182.2V18.468H179.236ZM180.718 6.82102C180.173 6.82102 179.73 6.66268 179.388 6.34602C179.046 6.02935 178.875 5.63668 178.875 5.16802C178.875 4.69935 179.046 4.30668 179.388 3.99002C179.73 3.67335 180.173 3.51502 180.718 3.51502C181.263 3.51502 181.706 3.66702 182.048 3.97102C182.39 4.26235 182.561 4.64235 182.561 5.11102C182.561 5.60502 182.39 6.01668 182.048 6.34602C181.719 6.66268 181.275 6.82102 180.718 6.82102ZM191.164 8.09402C191.975 8.09402 192.697 8.25868 193.33 8.58802C193.976 8.90468 194.483 9.39868 194.85 10.07C195.217 10.7287 195.401 11.5774 195.401 12.616V18.468H192.437V13.072C192.437 12.2487 192.253 11.6407 191.886 11.248C191.531 10.8554 191.025 10.659 190.366 10.659C189.897 10.659 189.473 10.7604 189.093 10.963C188.726 11.153 188.434 11.4507 188.219 11.856C188.016 12.2614 187.915 12.7807 187.915 13.414V18.468H184.951V8.24602H187.782V11.077L187.25 10.222C187.617 9.53802 188.143 9.01235 188.827 8.64502C189.511 8.27768 190.29 8.09402 191.164 8.09402ZM202.551 18.62C201.588 18.62 200.721 18.4047 199.948 17.974C199.175 17.5307 198.561 16.9164 198.105 16.131C197.662 15.3457 197.44 14.421 197.44 13.357C197.44 12.2804 197.662 11.3494 198.105 10.564C198.561 9.77868 199.175 9.17068 199.948 8.74002C200.721 8.30935 201.588 8.09402 202.551 8.09402C203.412 8.09402 204.166 8.28402 204.812 8.66402C205.458 9.04402 205.958 9.62035 206.313 10.393C206.668 11.1657 206.845 12.1537 206.845 13.357C206.845 14.5477 206.674 15.5357 206.332 16.321C205.99 17.0937 205.496 17.67 204.85 18.05C204.217 18.43 203.45 18.62 202.551 18.62ZM203.064 16.188C203.545 16.188 203.982 16.074 204.375 15.846C204.768 15.618 205.078 15.295 205.306 14.877C205.547 14.4464 205.667 13.9397 205.667 13.357C205.667 12.7617 205.547 12.255 205.306 11.837C205.078 11.419 204.768 11.096 204.375 10.868C203.982 10.64 203.545 10.526 203.064 10.526C202.57 10.526 202.127 10.64 201.734 10.868C201.341 11.096 201.025 11.419 200.784 11.837C200.556 12.255 200.442 12.7617 200.442 13.357C200.442 13.9397 200.556 14.4464 200.784 14.877C201.025 15.295 201.341 15.618 201.734 15.846C202.127 16.074 202.57 16.188 203.064 16.188ZM205.743 18.468V16.378L205.8 13.338L205.61 10.317V4.37002H208.574V18.468H205.743ZM211.317 18.468V8.24602H214.281V18.468H211.317ZM212.799 6.82102C212.255 6.82102 211.811 6.66268 211.469 6.34602C211.127 6.02935 210.956 5.63668 210.956 5.16802C210.956 4.69935 211.127 4.30668 211.469 3.99002C211.811 3.67335 212.255 3.51502 212.799 3.51502C213.344 3.51502 213.787 3.66702 214.129 3.97102C214.471 4.26235 214.642 4.64235 214.642 5.11102C214.642 5.60502 214.471 6.01668 214.129 6.34602C213.8 6.66268 213.357 6.82102 212.799 6.82102ZM219.806 18.468L215.512 8.24602H218.571L222.143 17.043H220.623L224.328 8.24602H227.178L222.865 18.468H219.806ZM228.388 18.468V8.24602H231.352V18.468H228.388ZM229.87 6.82102C229.325 6.82102 228.882 6.66268 228.54 6.34602C228.198 6.02935 228.027 5.63668 228.027 5.16802C228.027 4.69935 228.198 4.30668 228.54 3.99002C228.882 3.67335 229.325 3.51502 229.87 3.51502C230.414 3.51502 230.858 3.66702 231.2 3.97102C231.542 4.26235 231.713 4.64235 231.713 5.11102C231.713 5.60502 231.542 6.01668 231.2 6.34602C230.87 6.66268 230.427 6.82102 229.87 6.82102ZM238.491 18.62C237.529 18.62 236.661 18.4047 235.888 17.974C235.116 17.5307 234.501 16.9164 234.045 16.131C233.602 15.3457 233.38 14.421 233.38 13.357C233.38 12.2804 233.602 11.3494 234.045 10.564C234.501 9.77868 235.116 9.17068 235.888 8.74002C236.661 8.30935 237.529 8.09402 238.491 8.09402C239.353 8.09402 240.106 8.28402 240.752 8.66402C241.398 9.04402 241.899 9.62035 242.253 10.393C242.608 11.1657 242.785 12.1537 242.785 13.357C242.785 14.5477 242.614 15.5357 242.272 16.321C241.93 17.0937 241.436 17.67 240.79 18.05C240.157 18.43 239.391 18.62 238.491 18.62ZM239.004 16.188C239.486 16.188 239.923 16.074 240.315 15.846C240.708 15.618 241.018 15.295 241.246 14.877C241.487 14.4464 241.607 13.9397 241.607 13.357C241.607 12.7617 241.487 12.255 241.246 11.837C241.018 11.419 240.708 11.096 240.315 10.868C239.923 10.64 239.486 10.526 239.004 10.526C238.51 10.526 238.067 10.64 237.674 10.868C237.282 11.096 236.965 11.419 236.724 11.837C236.496 12.255 236.382 12.7617 236.382 13.357C236.382 13.9397 236.496 14.4464 236.724 14.877C236.965 15.295 237.282 15.618 237.674 15.846C238.067 16.074 238.51 16.188 239.004 16.188ZM241.683 18.468V16.378L241.74 13.338L241.55 10.317V4.37002H244.514V18.468H241.683ZM251.571 18.62C250.722 18.62 249.962 18.4554 249.291 18.126C248.632 17.7967 248.119 17.2964 247.752 16.625C247.384 15.941 247.201 15.0734 247.201 14.022V8.24602H250.165V13.585C250.165 14.4337 250.342 15.0607 250.697 15.466C251.064 15.8587 251.577 16.055 252.236 16.055C252.692 16.055 253.097 15.96 253.452 15.77C253.806 15.5674 254.085 15.2634 254.288 14.858C254.49 14.44 254.592 13.9207 254.592 13.3V8.24602H257.556V18.468H254.744V15.656L255.257 16.473C254.915 17.1824 254.408 17.7207 253.737 18.088C253.078 18.4427 252.356 18.62 251.571 18.62ZM266.572 18.468V16.473L266.382 16.036V12.464C266.382 11.8307 266.185 11.3367 265.793 10.982C265.413 10.6274 264.824 10.45 264.026 10.45C263.481 10.45 262.943 10.5387 262.411 10.716C261.891 10.8807 261.448 11.1087 261.081 11.4L260.017 9.32902C260.574 8.93635 261.245 8.63235 262.031 8.41702C262.816 8.20168 263.614 8.09402 264.425 8.09402C265.983 8.09402 267.192 8.46135 268.054 9.19602C268.915 9.93068 269.346 11.077 269.346 12.635V18.468H266.572ZM263.456 18.62C262.658 18.62 261.974 18.487 261.404 18.221C260.834 17.9424 260.397 17.5687 260.093 17.1C259.789 16.6314 259.637 16.1057 259.637 15.523C259.637 14.915 259.782 14.383 260.074 13.927C260.378 13.471 260.853 13.1164 261.499 12.863C262.145 12.597 262.987 12.464 264.026 12.464H266.743V14.193H264.349C263.652 14.193 263.171 14.307 262.905 14.535C262.651 14.763 262.525 15.048 262.525 15.39C262.525 15.77 262.67 16.074 262.962 16.302C263.266 16.5174 263.677 16.625 264.197 16.625C264.691 16.625 265.134 16.511 265.527 16.283C265.919 16.0424 266.204 15.694 266.382 15.238L266.838 16.606C266.622 17.2647 266.23 17.765 265.66 18.107C265.09 18.449 264.355 18.62 263.456 18.62ZM272.028 18.468V4.37002H274.992V18.468H272.028ZM281.182 18.62C280.308 18.62 279.466 18.5187 278.655 18.316C277.857 18.1007 277.224 17.8347 276.755 17.518L277.743 15.39C278.212 15.6814 278.763 15.922 279.396 16.112C280.042 16.2894 280.675 16.378 281.296 16.378C281.98 16.378 282.461 16.2957 282.74 16.131C283.031 15.9664 283.177 15.7384 283.177 15.447C283.177 15.2064 283.063 15.029 282.835 14.915C282.62 14.7884 282.328 14.6934 281.961 14.63C281.594 14.5667 281.188 14.5034 280.745 14.44C280.314 14.3767 279.877 14.2944 279.434 14.193C278.991 14.079 278.585 13.9144 278.218 13.699C277.851 13.4837 277.553 13.1924 277.325 12.825C277.11 12.4577 277.002 11.9827 277.002 11.4C277.002 10.754 277.186 10.184 277.553 9.69002C277.933 9.19602 278.478 8.80968 279.187 8.53102C279.896 8.23968 280.745 8.09402 281.733 8.09402C282.43 8.09402 283.139 8.17002 283.861 8.32202C284.583 8.47402 285.185 8.69568 285.666 8.98702L284.678 11.096C284.184 10.8047 283.684 10.6084 283.177 10.507C282.683 10.393 282.202 10.336 281.733 10.336C281.074 10.336 280.593 10.4247 280.289 10.602C279.985 10.7794 279.833 11.0074 279.833 11.286C279.833 11.5394 279.941 11.7294 280.156 11.856C280.384 11.9827 280.682 12.084 281.049 12.16C281.416 12.236 281.815 12.3057 282.246 12.369C282.689 12.4197 283.133 12.502 283.576 12.616C284.019 12.73 284.418 12.8947 284.773 13.11C285.14 13.3127 285.438 13.5977 285.666 13.965C285.894 14.3197 286.008 14.7884 286.008 15.371C286.008 16.0044 285.818 16.568 285.438 17.062C285.058 17.5434 284.507 17.9234 283.785 18.202C283.076 18.4807 282.208 18.62 281.182 18.62Z" fill="white"/>
<path d="M70.567 74.0632L64.829 60.7632H68.154L73.17 72.5432H71.213L76.305 60.7632H79.364L73.607 74.0632H70.567ZM84.2259 74.2152C83.3773 74.2152 82.6173 74.0506 81.9459 73.7212C81.2873 73.3919 80.7743 72.8916 80.4069 72.2202C80.0396 71.5362 79.8559 70.6686 79.8559 69.6172V63.8412H82.8199V69.1802C82.8199 70.0289 82.9973 70.6559 83.3519 71.0612C83.7193 71.4539 84.2323 71.6502 84.8909 71.6502C85.3469 71.6502 85.7523 71.5552 86.1069 71.3652C86.4616 71.1626 86.7403 70.8586 86.9429 70.4532C87.1456 70.0352 87.2469 69.5159 87.2469 68.8952V63.8412H90.2109V74.0632H87.3989V71.2512L87.9119 72.0682C87.5699 72.7776 87.0633 73.3159 86.3919 73.6832C85.7333 74.0379 85.0113 74.2152 84.2259 74.2152ZM92.9569 74.0632V59.9652H95.9209V74.0632H92.9569ZM104.885 63.6892C105.695 63.6892 106.417 63.8539 107.051 64.1832C107.697 64.4999 108.203 64.9939 108.571 65.6652C108.938 66.3239 109.122 67.1726 109.122 68.2112V74.0632H106.158V68.6672C106.158 67.8439 105.974 67.2359 105.607 66.8432C105.252 66.4506 104.745 66.2542 104.087 66.2542C103.618 66.2542 103.194 66.3556 102.814 66.5582C102.446 66.7482 102.155 67.0459 101.94 67.4512C101.737 67.8566 101.636 68.3759 101.636 69.0092V74.0632H98.6717V63.8412H101.503V66.6722L100.971 65.8172C101.338 65.1332 101.864 64.6076 102.548 64.2402C103.232 63.8729 104.011 63.6892 104.885 63.6892ZM116.956 74.2152C115.79 74.2152 114.764 73.9872 113.878 73.5312C113.004 73.0752 112.326 72.4546 111.845 71.6692C111.363 70.8712 111.123 69.9656 111.123 68.9522C111.123 67.9262 111.357 67.0206 111.826 66.2352C112.307 65.4372 112.959 64.8166 113.783 64.3732C114.606 63.9172 115.537 63.6892 116.576 63.6892C117.576 63.6892 118.476 63.9046 119.274 64.3352C120.084 64.7532 120.724 65.3612 121.193 66.1592C121.661 66.9446 121.896 67.8882 121.896 68.9902C121.896 69.1042 121.889 69.2372 121.877 69.3892C121.864 69.5286 121.851 69.6616 121.839 69.7882H113.536V68.0592H120.281L119.141 68.5722C119.141 68.0402 119.033 67.5779 118.818 67.1852C118.602 66.7926 118.305 66.4886 117.925 66.2732C117.545 66.0452 117.101 65.9312 116.595 65.9312C116.088 65.9312 115.638 66.0452 115.246 66.2732C114.866 66.4886 114.568 66.7989 114.353 67.2042C114.137 67.5969 114.03 68.0656 114.03 68.6102V69.0662C114.03 69.6236 114.15 70.1176 114.391 70.5482C114.644 70.9662 114.992 71.2892 115.436 71.5172C115.892 71.7326 116.424 71.8402 117.032 71.8402C117.576 71.8402 118.051 71.7579 118.457 71.5932C118.875 71.4286 119.255 71.1816 119.597 70.8522L121.174 72.5622C120.705 73.0942 120.116 73.5059 119.407 73.7972C118.697 74.0759 117.88 74.2152 116.956 74.2152ZM123.869 74.0632V63.8412H126.7V66.7292L126.301 65.8932C126.605 65.1712 127.093 64.6266 127.764 64.2592C128.435 63.8792 129.252 63.6892 130.215 63.6892V66.4252C130.088 66.4126 129.974 66.4062 129.873 66.4062C129.772 66.3936 129.664 66.3872 129.55 66.3872C128.739 66.3872 128.081 66.6216 127.574 67.0902C127.08 67.5462 126.833 68.2619 126.833 69.2372V74.0632H123.869ZM137.579 74.0632V72.0682L137.389 71.6312V68.0592C137.389 67.4259 137.193 66.9319 136.8 66.5772C136.42 66.2226 135.831 66.0452 135.033 66.0452C134.489 66.0452 133.95 66.1339 133.418 66.3112C132.899 66.4759 132.456 66.7039 132.088 66.9952L131.024 64.9242C131.582 64.5316 132.253 64.2276 133.038 64.0122C133.824 63.7969 134.622 63.6892 135.432 63.6892C136.99 63.6892 138.2 64.0566 139.061 64.7912C139.923 65.5259 140.353 66.6722 140.353 68.2302V74.0632H137.579ZM134.463 74.2152C133.665 74.2152 132.981 74.0822 132.411 73.8162C131.841 73.5376 131.404 73.1639 131.1 72.6952C130.796 72.2266 130.644 71.7009 130.644 71.1182C130.644 70.5102 130.79 69.9782 131.081 69.5222C131.385 69.0662 131.86 68.7116 132.506 68.4582C133.152 68.1922 133.995 68.0592 135.033 68.0592H137.75V69.7882H135.356C134.66 69.7882 134.178 69.9022 133.912 70.1302C133.659 70.3582 133.532 70.6432 133.532 70.9852C133.532 71.3652 133.678 71.6692 133.969 71.8972C134.273 72.1126 134.685 72.2202 135.204 72.2202C135.698 72.2202 136.142 72.1062 136.534 71.8782C136.927 71.6376 137.212 71.2892 137.389 70.8332L137.845 72.2012C137.63 72.8599 137.237 73.3602 136.667 73.7022C136.097 74.0442 135.363 74.2152 134.463 74.2152ZM149.078 74.2152C148.179 74.2152 147.406 74.0252 146.76 73.6452C146.114 73.2652 145.62 72.6889 145.278 71.9162C144.936 71.1309 144.765 70.1429 144.765 68.9522C144.765 67.7489 144.942 66.7609 145.297 65.9882C145.664 65.2156 146.171 64.6392 146.817 64.2592C147.463 63.8792 148.217 63.6892 149.078 63.6892C150.041 63.6892 150.902 63.9046 151.662 64.3352C152.435 64.7659 153.043 65.3739 153.486 66.1592C153.942 66.9446 154.17 67.8756 154.17 68.9522C154.17 70.0162 153.942 70.9409 153.486 71.7262C153.043 72.5116 152.435 73.1259 151.662 73.5692C150.902 73.9999 150.041 74.2152 149.078 74.2152ZM143.036 74.0632V59.9652H146V65.9122L145.81 68.9332L145.867 71.9732V74.0632H143.036ZM148.565 71.7832C149.059 71.7832 149.496 71.6692 149.876 71.4412C150.269 71.2132 150.579 70.8902 150.807 70.4722C151.048 70.0416 151.168 69.5349 151.168 68.9522C151.168 68.3569 151.048 67.8502 150.807 67.4322C150.579 67.0142 150.269 66.6912 149.876 66.4632C149.496 66.2352 149.059 66.1212 148.565 66.1212C148.071 66.1212 147.628 66.2352 147.235 66.4632C146.842 66.6912 146.532 67.0142 146.304 67.4322C146.076 67.8502 145.962 68.3569 145.962 68.9522C145.962 69.5349 146.076 70.0416 146.304 70.4722C146.532 70.8902 146.842 71.2132 147.235 71.4412C147.628 71.6692 148.071 71.7832 148.565 71.7832ZM156.154 74.0632V59.9652H159.118V74.0632H156.154ZM166.942 74.2152C165.777 74.2152 164.751 73.9872 163.864 73.5312C162.99 73.0752 162.312 72.4546 161.831 71.6692C161.35 70.8712 161.109 69.9656 161.109 68.9522C161.109 67.9262 161.343 67.0206 161.812 66.2352C162.293 65.4372 162.946 64.8166 163.769 64.3732C164.592 63.9172 165.523 63.6892 166.562 63.6892C167.563 63.6892 168.462 63.9046 169.26 64.3352C170.071 64.7532 170.71 65.3612 171.179 66.1592C171.648 66.9446 171.882 67.8882 171.882 68.9902C171.882 69.1042 171.876 69.2372 171.863 69.3892C171.85 69.5286 171.838 69.6616 171.825 69.7882H163.522V68.0592H170.267L169.127 68.5722C169.127 68.0402 169.019 67.5779 168.804 67.1852C168.589 66.7926 168.291 66.4886 167.911 66.2732C167.531 66.0452 167.088 65.9312 166.581 65.9312C166.074 65.9312 165.625 66.0452 165.232 66.2732C164.852 66.4886 164.554 66.7989 164.339 67.2042C164.124 67.5969 164.016 68.0656 164.016 68.6102V69.0662C164.016 69.6236 164.136 70.1176 164.377 70.5482C164.63 70.9662 164.979 71.2892 165.422 71.5172C165.878 71.7326 166.41 71.8402 167.018 71.8402C167.563 71.8402 168.038 71.7579 168.443 71.5932C168.861 71.4286 169.241 71.1816 169.583 70.8522L171.16 72.5622C170.691 73.0942 170.102 73.5059 169.393 73.7972C168.684 74.0759 167.867 74.2152 166.942 74.2152ZM185.506 74.0632V72.0682L185.316 71.6312V68.0592C185.316 67.4259 185.12 66.9319 184.727 66.5772C184.347 66.2226 183.758 66.0452 182.96 66.0452C182.415 66.0452 181.877 66.1339 181.345 66.3112C180.826 66.4759 180.382 66.7039 180.015 66.9952L178.951 64.9242C179.508 64.5316 180.18 64.2276 180.965 64.0122C181.75 63.7969 182.548 63.6892 183.359 63.6892C184.917 63.6892 186.127 64.0566 186.988 64.7912C187.849 65.5259 188.28 66.6722 188.28 68.2302V74.0632H185.506ZM182.39 74.2152C181.592 74.2152 180.908 74.0822 180.338 73.8162C179.768 73.5376 179.331 73.1639 179.027 72.6952C178.723 72.2266 178.571 71.7009 178.571 71.1182C178.571 70.5102 178.717 69.9782 179.008 69.5222C179.312 69.0662 179.787 68.7116 180.433 68.4582C181.079 68.1922 181.921 68.0592 182.96 68.0592H185.677V69.7882H183.283C182.586 69.7882 182.105 69.9022 181.839 70.1302C181.586 70.3582 181.459 70.6432 181.459 70.9852C181.459 71.3652 181.605 71.6692 181.896 71.8972C182.2 72.1126 182.612 72.2202 183.131 72.2202C183.625 72.2202 184.068 72.1062 184.461 71.8782C184.854 71.6376 185.139 71.2892 185.316 70.8332L185.772 72.2012C185.557 72.8599 185.164 73.3602 184.594 73.7022C184.024 74.0442 183.289 74.2152 182.39 74.2152ZM195.844 77.9012C194.881 77.9012 193.95 77.7809 193.051 77.5402C192.164 77.3122 191.423 76.9639 190.828 76.4952L192.006 74.3672C192.437 74.7219 192.981 75.0006 193.64 75.2032C194.311 75.4186 194.97 75.5262 195.616 75.5262C196.667 75.5262 197.427 75.2919 197.896 74.8232C198.377 74.3546 198.618 73.6579 198.618 72.7332V71.1942L198.808 68.6292L198.77 66.0452V63.8412H201.582V72.3532C201.582 74.2532 201.088 75.6529 200.1 76.5522C199.112 77.4516 197.693 77.9012 195.844 77.9012ZM195.388 73.5692C194.438 73.5692 193.577 73.3666 192.804 72.9612C192.044 72.5432 191.43 71.9669 190.961 71.2322C190.505 70.4849 190.277 69.6172 190.277 68.6292C190.277 67.6286 190.505 66.7609 190.961 66.0262C191.43 65.2789 192.044 64.7026 192.804 64.2972C193.577 63.8919 194.438 63.6892 195.388 63.6892C196.249 63.6892 197.009 63.8666 197.668 64.2212C198.327 64.5632 198.84 65.1016 199.207 65.8362C199.574 66.5582 199.758 67.4892 199.758 68.6292C199.758 69.7566 199.574 70.6876 199.207 71.4222C198.84 72.1442 198.327 72.6826 197.668 73.0372C197.009 73.3919 196.249 73.5692 195.388 73.5692ZM195.977 71.1372C196.496 71.1372 196.959 71.0359 197.364 70.8332C197.769 70.6179 198.086 70.3202 198.314 69.9402C198.542 69.5602 198.656 69.1232 198.656 68.6292C198.656 68.1226 198.542 67.6856 198.314 67.3182C198.086 66.9382 197.769 66.6469 197.364 66.4442C196.959 66.2289 196.496 66.1212 195.977 66.1212C195.458 66.1212 194.995 66.2289 194.59 66.4442C194.185 66.6469 193.862 66.9382 193.621 67.3182C193.393 67.6856 193.279 68.1226 193.279 68.6292C193.279 69.1232 193.393 69.5602 193.621 69.9402C193.862 70.3202 194.185 70.6179 194.59 70.8332C194.995 71.0359 195.458 71.1372 195.977 71.1372ZM209.414 74.2152C208.248 74.2152 207.222 73.9872 206.336 73.5312C205.462 73.0752 204.784 72.4546 204.303 71.6692C203.821 70.8712 203.581 69.9656 203.581 68.9522C203.581 67.9262 203.815 67.0206 204.284 66.2352C204.765 65.4372 205.417 64.8166 206.241 64.3732C207.064 63.9172 207.995 63.6892 209.034 63.6892C210.034 63.6892 210.934 63.9046 211.732 64.3352C212.542 64.7532 213.182 65.3612 213.651 66.1592C214.119 66.9446 214.354 67.8882 214.354 68.9902C214.354 69.1042 214.347 69.2372 214.335 69.3892C214.322 69.5286 214.309 69.6616 214.297 69.7882H205.994V68.0592H212.739L211.599 68.5722C211.599 68.0402 211.491 67.5779 211.276 67.1852C211.06 66.7926 210.763 66.4886 210.383 66.2732C210.003 66.0452 209.559 65.9312 209.053 65.9312C208.546 65.9312 208.096 66.0452 207.704 66.2732C207.324 66.4886 207.026 66.7989 206.811 67.2042C206.595 67.5969 206.488 68.0656 206.488 68.6102V69.0662C206.488 69.6236 206.608 70.1176 206.849 70.5482C207.102 70.9662 207.45 71.2892 207.894 71.5172C208.35 71.7326 208.882 71.8402 209.49 71.8402C210.034 71.8402 210.509 71.7579 210.915 71.5932C211.333 71.4286 211.713 71.1816 212.055 70.8522L213.632 72.5622C213.163 73.0942 212.574 73.5059 211.865 73.7972C211.155 74.0759 210.338 74.2152 209.414 74.2152ZM226.515 77.9012C225.552 77.9012 224.621 77.7809 223.722 77.5402C222.835 77.3122 222.094 76.9639 221.499 76.4952L222.677 74.3672C223.108 74.7219 223.652 75.0006 224.311 75.2032C224.982 75.4186 225.641 75.5262 226.287 75.5262C227.338 75.5262 228.098 75.2919 228.567 74.8232C229.048 74.3546 229.289 73.6579 229.289 72.7332V71.1942L229.479 68.6292L229.441 66.0452V63.8412H232.253V72.3532C232.253 74.2532 231.759 75.6529 230.771 76.5522C229.783 77.4516 228.364 77.9012 226.515 77.9012ZM226.059 73.5692C225.109 73.5692 224.248 73.3666 223.475 72.9612C222.715 72.5432 222.101 71.9669 221.632 71.2322C221.176 70.4849 220.948 69.6172 220.948 68.6292C220.948 67.6286 221.176 66.7609 221.632 66.0262C222.101 65.2789 222.715 64.7026 223.475 64.2972C224.248 63.8919 225.109 63.6892 226.059 63.6892C226.92 63.6892 227.68 63.8666 228.339 64.2212C228.998 64.5632 229.511 65.1016 229.878 65.8362C230.245 66.5582 230.429 67.4892 230.429 68.6292C230.429 69.7566 230.245 70.6876 229.878 71.4222C229.511 72.1442 228.998 72.6826 228.339 73.0372C227.68 73.3919 226.92 73.5692 226.059 73.5692ZM226.648 71.1372C227.167 71.1372 227.63 71.0359 228.035 70.8332C228.44 70.6179 228.757 70.3202 228.985 69.9402C229.213 69.5602 229.327 69.1232 229.327 68.6292C229.327 68.1226 229.213 67.6856 228.985 67.3182C228.757 66.9382 228.44 66.6469 228.035 66.4442C227.63 66.2289 227.167 66.1212 226.648 66.1212C226.129 66.1212 225.666 66.2289 225.261 66.4442C224.856 66.6469 224.533 66.9382 224.292 67.3182C224.064 67.6856 223.95 68.1226 223.95 68.6292C223.95 69.1232 224.064 69.5602 224.292 69.9402C224.533 70.3202 224.856 70.6179 225.261 70.8332C225.666 71.0359 226.129 71.1372 226.648 71.1372ZM235.012 74.0632V63.8412H237.843V66.7292L237.444 65.8932C237.748 65.1712 238.235 64.6266 238.907 64.2592C239.578 63.8792 240.395 63.6892 241.358 63.6892V66.4252C241.231 66.4126 241.117 66.4062 241.016 66.4062C240.914 66.3936 240.807 66.3872 240.693 66.3872C239.882 66.3872 239.223 66.6216 238.717 67.0902C238.223 67.5462 237.976 68.2619 237.976 69.2372V74.0632H235.012ZM247.91 74.2152C246.82 74.2152 245.851 73.9872 245.003 73.5312C244.167 73.0752 243.502 72.4546 243.008 71.6692C242.526 70.8712 242.286 69.9656 242.286 68.9522C242.286 67.9262 242.526 67.0206 243.008 66.2352C243.502 65.4372 244.167 64.8166 245.003 64.3732C245.851 63.9172 246.82 63.6892 247.91 63.6892C248.986 63.6892 249.949 63.9172 250.798 64.3732C251.646 64.8166 252.311 65.4309 252.793 66.2162C253.274 67.0016 253.515 67.9136 253.515 68.9522C253.515 69.9656 253.274 70.8712 252.793 71.6692C252.311 72.4546 251.646 73.0752 250.798 73.5312C249.949 73.9872 248.986 74.2152 247.91 74.2152ZM247.91 71.7832C248.404 71.7832 248.847 71.6692 249.24 71.4412C249.632 71.2132 249.943 70.8902 250.171 70.4722C250.399 70.0416 250.513 69.5349 250.513 68.9522C250.513 68.3569 250.399 67.8502 250.171 67.4322C249.943 67.0142 249.632 66.6912 249.24 66.4632C248.847 66.2352 248.404 66.1212 247.91 66.1212C247.416 66.1212 246.972 66.2352 246.58 66.4632C246.187 66.6912 245.87 67.0142 245.63 67.4322C245.402 67.8502 245.288 68.3569 245.288 68.9522C245.288 69.5349 245.402 70.0416 245.63 70.4722C245.87 70.8902 246.187 71.2132 246.58 71.4412C246.972 71.6692 247.416 71.7832 247.91 71.7832ZM259.809 74.2152C258.96 74.2152 258.2 74.0506 257.529 73.7212C256.87 73.3919 256.357 72.8916 255.99 72.2202C255.623 71.5362 255.439 70.6686 255.439 69.6172V63.8412H258.403V69.1802C258.403 70.0289 258.58 70.6559 258.935 71.0612C259.302 71.4539 259.815 71.6502 260.474 71.6502C260.93 71.6502 261.335 71.5552 261.69 71.3652C262.045 71.1626 262.323 70.8586 262.526 70.4532C262.729 70.0352 262.83 69.5159 262.83 68.8952V63.8412H265.794V74.0632H262.982V71.2512L263.495 72.0682C263.153 72.7776 262.646 73.3159 261.975 73.6832C261.316 74.0379 260.594 74.2152 259.809 74.2152ZM274.582 74.2152C273.721 74.2152 272.967 74.0252 272.321 73.6452C271.675 73.2652 271.168 72.6889 270.801 71.9162C270.446 71.1309 270.269 70.1429 270.269 68.9522C270.269 67.7489 270.44 66.7609 270.782 65.9882C271.124 65.2156 271.618 64.6392 272.264 64.2592C272.91 63.8792 273.683 63.6892 274.582 63.6892C275.545 63.6892 276.406 63.9109 277.166 64.3542C277.939 64.7849 278.547 65.3929 278.99 66.1782C279.446 66.9636 279.674 67.8882 279.674 68.9522C279.674 70.0289 279.446 70.9599 278.99 71.7452C278.547 72.5306 277.939 73.1386 277.166 73.5692C276.406 73.9999 275.545 74.2152 274.582 74.2152ZM268.54 77.7492V63.8412H271.371V65.9312L271.314 68.9712L271.504 71.9922V77.7492H268.54ZM274.069 71.7832C274.563 71.7832 275 71.6692 275.38 71.4412C275.773 71.2132 276.083 70.8902 276.311 70.4722C276.552 70.0416 276.672 69.5349 276.672 68.9522C276.672 68.3569 276.552 67.8502 276.311 67.4322C276.083 67.0142 275.773 66.6912 275.38 66.4632C275 66.2352 274.563 66.1212 274.069 66.1212C273.575 66.1212 273.132 66.2352 272.739 66.4632C272.346 66.6912 272.036 67.0142 271.808 67.4322C271.58 67.8502 271.466 68.3569 271.466 68.9522C271.466 69.5349 271.58 70.0416 271.808 70.4722C272.036 70.8902 272.346 71.2132 272.739 71.4412C273.132 71.6692 273.575 71.7832 274.069 71.7832ZM285.097 74.2152C284.223 74.2152 283.381 74.1139 282.57 73.9112C281.772 73.6959 281.139 73.4299 280.67 73.1132L281.658 70.9852C282.127 71.2766 282.678 71.5172 283.311 71.7072C283.957 71.8846 284.59 71.9732 285.211 71.9732C285.895 71.9732 286.376 71.8909 286.655 71.7262C286.946 71.5616 287.092 71.3336 287.092 71.0422C287.092 70.8016 286.978 70.6242 286.75 70.5102C286.535 70.3836 286.243 70.2886 285.876 70.2252C285.509 70.1619 285.103 70.0986 284.66 70.0352C284.229 69.9719 283.792 69.8896 283.349 69.7882C282.906 69.6742 282.5 69.5096 282.133 69.2942C281.766 69.0789 281.468 68.7876 281.24 68.4202C281.025 68.0529 280.917 67.5779 280.917 66.9952C280.917 66.3492 281.101 65.7792 281.468 65.2852C281.848 64.7912 282.393 64.4049 283.102 64.1262C283.811 63.8349 284.66 63.6892 285.648 63.6892C286.345 63.6892 287.054 63.7652 287.776 63.9172C288.498 64.0692 289.1 64.2909 289.581 64.5822L288.593 66.6912C288.099 66.3999 287.599 66.2036 287.092 66.1022C286.598 65.9882 286.117 65.9312 285.648 65.9312C284.989 65.9312 284.508 66.0199 284.204 66.1972C283.9 66.3746 283.748 66.6026 283.748 66.8812C283.748 67.1346 283.856 67.3246 284.071 67.4512C284.299 67.5779 284.597 67.6792 284.964 67.7552C285.331 67.8312 285.73 67.9009 286.161 67.9642C286.604 68.0149 287.048 68.0972 287.491 68.2112C287.934 68.3252 288.333 68.4899 288.688 68.7052C289.055 68.9079 289.353 69.1929 289.581 69.5602C289.809 69.9149 289.923 70.3836 289.923 70.9662C289.923 71.5996 289.733 72.1632 289.353 72.6572C288.973 73.1386 288.422 73.5186 287.7 73.7972C286.991 74.0759 286.123 74.2152 285.097 74.2152Z" fill="white"/>
<path d="M70.567 129.658L64.829 116.358H68.154L73.17 128.138H71.213L76.305 116.358H79.364L73.607 129.658H70.567ZM84.2259 129.81C83.3773 129.81 82.6173 129.646 81.9459 129.316C81.2873 128.987 80.7743 128.487 80.4069 127.815C80.0396 127.131 79.8559 126.264 79.8559 125.212V119.436H82.8199V124.775C82.8199 125.624 82.9973 126.251 83.3519 126.656C83.7193 127.049 84.2323 127.245 84.8909 127.245C85.3469 127.245 85.7523 127.15 86.1069 126.96C86.4616 126.758 86.7403 126.454 86.9429 126.048C87.1456 125.63 87.2469 125.111 87.2469 124.49V119.436H90.2109V129.658H87.3989V126.846L87.9119 127.663C87.5699 128.373 87.0633 128.911 86.3919 129.278C85.7333 129.633 85.0113 129.81 84.2259 129.81ZM92.9569 129.658V115.56H95.9209V129.658H92.9569ZM104.885 119.284C105.695 119.284 106.417 119.449 107.051 119.778C107.697 120.095 108.203 120.589 108.571 121.26C108.938 121.919 109.122 122.768 109.122 123.806V129.658H106.158V124.262C106.158 123.439 105.974 122.831 105.607 122.438C105.252 122.046 104.745 121.849 104.087 121.849C103.618 121.849 103.194 121.951 102.814 122.153C102.446 122.343 102.155 122.641 101.94 123.046C101.737 123.452 101.636 123.971 101.636 124.604V129.658H98.6717V119.436H101.503V122.267L100.971 121.412C101.338 120.728 101.864 120.203 102.548 119.835C103.232 119.468 104.011 119.284 104.885 119.284ZM116.956 129.81C115.79 129.81 114.764 129.582 113.878 129.126C113.004 128.67 112.326 128.05 111.845 127.264C111.363 126.466 111.123 125.561 111.123 124.547C111.123 123.521 111.357 122.616 111.826 121.83C112.307 121.032 112.959 120.412 113.783 119.968C114.606 119.512 115.537 119.284 116.576 119.284C117.576 119.284 118.476 119.5 119.274 119.93C120.084 120.348 120.724 120.956 121.193 121.754C121.661 122.54 121.896 123.483 121.896 124.585C121.896 124.699 121.889 124.832 121.877 124.984C121.864 125.124 121.851 125.257 121.839 125.383H113.536V123.654H120.281L119.141 124.167C119.141 123.635 119.033 123.173 118.818 122.78C118.602 122.388 118.305 122.084 117.925 121.868C117.545 121.64 117.101 121.526 116.595 121.526C116.088 121.526 115.638 121.64 115.246 121.868C114.866 122.084 114.568 122.394 114.353 122.799C114.137 123.192 114.03 123.661 114.03 124.205V124.661C114.03 125.219 114.15 125.713 114.391 126.143C114.644 126.561 114.992 126.884 115.436 127.112C115.892 127.328 116.424 127.435 117.032 127.435C117.576 127.435 118.051 127.353 118.457 127.188C118.875 127.024 119.255 126.777 119.597 126.447L121.174 128.157C120.705 128.689 120.116 129.101 119.407 129.392C118.697 129.671 117.88 129.81 116.956 129.81ZM123.869 129.658V119.436H126.7V122.324L126.301 121.488C126.605 120.766 127.093 120.222 127.764 119.854C128.435 119.474 129.252 119.284 130.215 119.284V122.02C130.088 122.008 129.974 122.001 129.873 122.001C129.772 121.989 129.664 121.982 129.55 121.982C128.739 121.982 128.081 122.217 127.574 122.685C127.08 123.141 126.833 123.857 126.833 124.832V129.658H123.869ZM137.579 129.658V127.663L137.389 127.226V123.654C137.389 123.021 137.193 122.527 136.8 122.172C136.42 121.818 135.831 121.64 135.033 121.64C134.489 121.64 133.95 121.729 133.418 121.906C132.899 122.071 132.456 122.299 132.088 122.59L131.024 120.519C131.582 120.127 132.253 119.823 133.038 119.607C133.824 119.392 134.622 119.284 135.432 119.284C136.99 119.284 138.2 119.652 139.061 120.386C139.923 121.121 140.353 122.267 140.353 123.825V129.658H137.579ZM134.463 129.81C133.665 129.81 132.981 129.677 132.411 129.411C131.841 129.133 131.404 128.759 131.1 128.29C130.796 127.822 130.644 127.296 130.644 126.713C130.644 126.105 130.79 125.573 131.081 125.117C131.385 124.661 131.86 124.307 132.506 124.053C133.152 123.787 133.995 123.654 135.033 123.654H137.75V125.383H135.356C134.66 125.383 134.178 125.497 133.912 125.725C133.659 125.953 133.532 126.238 133.532 126.58C133.532 126.96 133.678 127.264 133.969 127.492C134.273 127.708 134.685 127.815 135.204 127.815C135.698 127.815 136.142 127.701 136.534 127.473C136.927 127.233 137.212 126.884 137.389 126.428L137.845 127.796C137.63 128.455 137.237 128.955 136.667 129.297C136.097 129.639 135.363 129.81 134.463 129.81ZM149.078 129.81C148.179 129.81 147.406 129.62 146.76 129.24C146.114 128.86 145.62 128.284 145.278 127.511C144.936 126.726 144.765 125.738 144.765 124.547C144.765 123.344 144.942 122.356 145.297 121.583C145.664 120.811 146.171 120.234 146.817 119.854C147.463 119.474 148.217 119.284 149.078 119.284C150.041 119.284 150.902 119.5 151.662 119.93C152.435 120.361 153.043 120.969 153.486 121.754C153.942 122.54 154.17 123.471 154.17 124.547C154.17 125.611 153.942 126.536 153.486 127.321C153.043 128.107 152.435 128.721 151.662 129.164C150.902 129.595 150.041 129.81 149.078 129.81ZM143.036 129.658V115.56H146V121.507L145.81 124.528L145.867 127.568V129.658H143.036ZM148.565 127.378C149.059 127.378 149.496 127.264 149.876 127.036C150.269 126.808 150.579 126.485 150.807 126.067C151.048 125.637 151.168 125.13 151.168 124.547C151.168 123.952 151.048 123.445 150.807 123.027C150.579 122.609 150.269 122.286 149.876 122.058C149.496 121.83 149.059 121.716 148.565 121.716C148.071 121.716 147.628 121.83 147.235 122.058C146.842 122.286 146.532 122.609 146.304 123.027C146.076 123.445 145.962 123.952 145.962 124.547C145.962 125.13 146.076 125.637 146.304 126.067C146.532 126.485 146.842 126.808 147.235 127.036C147.628 127.264 148.071 127.378 148.565 127.378ZM156.154 129.658V115.56H159.118V129.658H156.154ZM166.942 129.81C165.777 129.81 164.751 129.582 163.864 129.126C162.99 128.67 162.312 128.05 161.831 127.264C161.35 126.466 161.109 125.561 161.109 124.547C161.109 123.521 161.343 122.616 161.812 121.83C162.293 121.032 162.946 120.412 163.769 119.968C164.592 119.512 165.523 119.284 166.562 119.284C167.563 119.284 168.462 119.5 169.26 119.93C170.071 120.348 170.71 120.956 171.179 121.754C171.648 122.54 171.882 123.483 171.882 124.585C171.882 124.699 171.876 124.832 171.863 124.984C171.85 125.124 171.838 125.257 171.825 125.383H163.522V123.654H170.267L169.127 124.167C169.127 123.635 169.019 123.173 168.804 122.78C168.589 122.388 168.291 122.084 167.911 121.868C167.531 121.64 167.088 121.526 166.581 121.526C166.074 121.526 165.625 121.64 165.232 121.868C164.852 122.084 164.554 122.394 164.339 122.799C164.124 123.192 164.016 123.661 164.016 124.205V124.661C164.016 125.219 164.136 125.713 164.377 126.143C164.63 126.561 164.979 126.884 165.422 127.112C165.878 127.328 166.41 127.435 167.018 127.435C167.563 127.435 168.038 127.353 168.443 127.188C168.861 127.024 169.241 126.777 169.583 126.447L171.16 128.157C170.691 128.689 170.102 129.101 169.393 129.392C168.684 129.671 167.867 129.81 166.942 129.81ZM179.597 129.658V119.208C179.597 118.056 179.939 117.137 180.623 116.453C181.307 115.757 182.282 115.408 183.549 115.408C183.98 115.408 184.391 115.453 184.784 115.541C185.189 115.63 185.531 115.769 185.81 115.959L185.031 118.106C184.866 117.992 184.683 117.904 184.48 117.84C184.277 117.777 184.062 117.745 183.834 117.745C183.403 117.745 183.068 117.872 182.827 118.125C182.599 118.366 182.485 118.733 182.485 119.227V120.177L182.561 121.45V129.658H179.597ZM178.02 121.944V119.664H185.107V121.944H178.02ZM192.668 129.658V127.663L192.478 127.226V123.654C192.478 123.021 192.282 122.527 191.889 122.172C191.509 121.818 190.92 121.64 190.122 121.64C189.578 121.64 189.039 121.729 188.507 121.906C187.988 122.071 187.545 122.299 187.177 122.59L186.113 120.519C186.671 120.127 187.342 119.823 188.127 119.607C188.913 119.392 189.711 119.284 190.521 119.284C192.079 119.284 193.289 119.652 194.15 120.386C195.012 121.121 195.442 122.267 195.442 123.825V129.658H192.668ZM189.552 129.81C188.754 129.81 188.07 129.677 187.5 129.411C186.93 129.133 186.493 128.759 186.189 128.29C185.885 127.822 185.733 127.296 185.733 126.713C185.733 126.105 185.879 125.573 186.17 125.117C186.474 124.661 186.949 124.307 187.595 124.053C188.241 123.787 189.084 123.654 190.122 123.654H192.839V125.383H190.445C189.749 125.383 189.267 125.497 189.001 125.725C188.748 125.953 188.621 126.238 188.621 126.58C188.621 126.96 188.767 127.264 189.058 127.492C189.362 127.708 189.774 127.815 190.293 127.815C190.787 127.815 191.231 127.701 191.623 127.473C192.016 127.233 192.301 126.884 192.478 126.428L192.934 127.796C192.719 128.455 192.326 128.955 191.756 129.297C191.186 129.639 190.452 129.81 189.552 129.81ZM211.216 119.284C212.027 119.284 212.742 119.449 213.363 119.778C213.996 120.095 214.49 120.589 214.845 121.26C215.212 121.919 215.396 122.768 215.396 123.806V129.658H212.432V124.262C212.432 123.439 212.261 122.831 211.919 122.438C211.577 122.046 211.096 121.849 210.475 121.849C210.044 121.849 209.658 121.951 209.316 122.153C208.974 122.343 208.708 122.635 208.518 123.027C208.328 123.42 208.233 123.92 208.233 124.528V129.658H205.269V124.262C205.269 123.439 205.098 122.831 204.756 122.438C204.427 122.046 203.952 121.849 203.331 121.849C202.9 121.849 202.514 121.951 202.172 122.153C201.83 122.343 201.564 122.635 201.374 123.027C201.184 123.42 201.089 123.92 201.089 124.528V129.658H198.125V119.436H200.956V122.229L200.424 121.412C200.779 120.716 201.279 120.19 201.925 119.835C202.584 119.468 203.331 119.284 204.167 119.284C205.104 119.284 205.921 119.525 206.618 120.006C207.327 120.475 207.796 121.197 208.024 122.172L206.979 121.887C207.321 121.089 207.866 120.456 208.613 119.987C209.373 119.519 210.241 119.284 211.216 119.284ZM218.053 129.658V119.436H221.017V129.658H218.053ZM219.535 118.011C218.99 118.011 218.547 117.853 218.205 117.536C217.863 117.22 217.692 116.827 217.692 116.358C217.692 115.89 217.863 115.497 218.205 115.18C218.547 114.864 218.99 114.705 219.535 114.705C220.079 114.705 220.523 114.857 220.865 115.161C221.207 115.453 221.378 115.833 221.378 116.301C221.378 116.795 221.207 117.207 220.865 117.536C220.535 117.853 220.092 118.011 219.535 118.011ZM223.767 129.658V115.56H226.731V129.658H223.767ZM229.482 129.658V119.436H232.446V129.658H229.482ZM230.964 118.011C230.42 118.011 229.976 117.853 229.634 117.536C229.292 117.22 229.121 116.827 229.121 116.358C229.121 115.89 229.292 115.497 229.634 115.18C229.976 114.864 230.42 114.705 230.964 114.705C231.509 114.705 231.952 114.857 232.294 115.161C232.636 115.453 232.807 115.833 232.807 116.301C232.807 116.795 232.636 117.207 232.294 117.536C231.965 117.853 231.522 118.011 230.964 118.011ZM240.27 129.81C239.105 129.81 238.079 129.582 237.192 129.126C236.318 128.67 235.64 128.05 235.159 127.264C234.678 126.466 234.437 125.561 234.437 124.547C234.437 123.521 234.671 122.616 235.14 121.83C235.621 121.032 236.274 120.412 237.097 119.968C237.92 119.512 238.851 119.284 239.89 119.284C240.891 119.284 241.79 119.5 242.588 119.93C243.399 120.348 244.038 120.956 244.507 121.754C244.976 122.54 245.21 123.483 245.21 124.585C245.21 124.699 245.204 124.832 245.191 124.984C245.178 125.124 245.166 125.257 245.153 125.383H236.85V123.654H243.595L242.455 124.167C242.455 123.635 242.347 123.173 242.132 122.78C241.917 122.388 241.619 122.084 241.239 121.868C240.859 121.64 240.416 121.526 239.909 121.526C239.402 121.526 238.953 121.64 238.56 121.868C238.18 122.084 237.882 122.394 237.667 122.799C237.452 123.192 237.344 123.661 237.344 124.205V124.661C237.344 125.219 237.464 125.713 237.705 126.143C237.958 126.561 238.307 126.884 238.75 127.112C239.206 127.328 239.738 127.435 240.346 127.435C240.891 127.435 241.366 127.353 241.771 127.188C242.189 127.024 242.569 126.777 242.911 126.447L244.488 128.157C244.019 128.689 243.43 129.101 242.721 129.392C242.012 129.671 241.195 129.81 240.27 129.81ZM250.622 129.81C249.748 129.81 248.906 129.709 248.095 129.506C247.297 129.291 246.664 129.025 246.195 128.708L247.183 126.58C247.652 126.872 248.203 127.112 248.836 127.302C249.482 127.48 250.116 127.568 250.736 127.568C251.42 127.568 251.902 127.486 252.18 127.321C252.472 127.157 252.617 126.929 252.617 126.637C252.617 126.397 252.503 126.219 252.275 126.105C252.06 125.979 251.769 125.884 251.401 125.82C251.034 125.757 250.629 125.694 250.185 125.63C249.755 125.567 249.318 125.485 248.874 125.383C248.431 125.269 248.026 125.105 247.658 124.889C247.291 124.674 246.993 124.383 246.765 124.015C246.55 123.648 246.442 123.173 246.442 122.59C246.442 121.944 246.626 121.374 246.993 120.88C247.373 120.386 247.918 120 248.627 119.721C249.337 119.43 250.185 119.284 251.173 119.284C251.87 119.284 252.579 119.36 253.301 119.512C254.023 119.664 254.625 119.886 255.106 120.177L254.118 122.286C253.624 121.995 253.124 121.799 252.617 121.697C252.123 121.583 251.642 121.526 251.173 121.526C250.515 121.526 250.033 121.615 249.729 121.792C249.425 121.97 249.273 122.198 249.273 122.476C249.273 122.73 249.381 122.92 249.596 123.046C249.824 123.173 250.122 123.274 250.489 123.35C250.857 123.426 251.256 123.496 251.686 123.559C252.13 123.61 252.573 123.692 253.016 123.806C253.46 123.92 253.859 124.085 254.213 124.3C254.581 124.503 254.878 124.788 255.106 125.155C255.334 125.51 255.448 125.979 255.448 126.561C255.448 127.195 255.258 127.758 254.878 128.252C254.498 128.734 253.947 129.114 253.225 129.392C252.516 129.671 251.648 129.81 250.622 129.81Z" fill="white"/>
<path d="M70.567 185.254L64.829 171.954H68.154L73.17 183.734H71.213L76.305 171.954H79.364L73.607 185.254H70.567ZM84.2259 185.406C83.3773 185.406 82.6173 185.241 81.9459 184.912C81.2873 184.583 80.7743 184.082 80.4069 183.411C80.0396 182.727 79.8559 181.859 79.8559 180.808V175.032H82.8199V180.371C82.8199 181.22 82.9973 181.847 83.3519 182.252C83.7193 182.645 84.2323 182.841 84.8909 182.841C85.3469 182.841 85.7523 182.746 86.1069 182.556C86.4616 182.353 86.7403 182.049 86.9429 181.644C87.1456 181.226 87.2469 180.707 87.2469 180.086V175.032H90.2109V185.254H87.3989V182.442L87.9119 183.259C87.5699 183.968 87.0633 184.507 86.3919 184.874C85.7333 185.229 85.0113 185.406 84.2259 185.406ZM92.9569 185.254V171.156H95.9209V185.254H92.9569ZM104.885 174.88C105.695 174.88 106.417 175.045 107.051 175.374C107.697 175.691 108.203 176.185 108.571 176.856C108.938 177.515 109.122 178.363 109.122 179.402V185.254H106.158V179.858C106.158 179.035 105.974 178.427 105.607 178.034C105.252 177.641 104.745 177.445 104.087 177.445C103.618 177.445 103.194 177.546 102.814 177.749C102.446 177.939 102.155 178.237 101.94 178.642C101.737 179.047 101.636 179.567 101.636 180.2V185.254H98.6717V175.032H101.503V177.863L100.971 177.008C101.338 176.324 101.864 175.798 102.548 175.431C103.232 175.064 104.011 174.88 104.885 174.88ZM116.956 185.406C115.79 185.406 114.764 185.178 113.878 184.722C113.004 184.266 112.326 183.645 111.845 182.86C111.363 182.062 111.123 181.156 111.123 180.143C111.123 179.117 111.357 178.211 111.826 177.426C112.307 176.628 112.959 176.007 113.783 175.564C114.606 175.108 115.537 174.88 116.576 174.88C117.576 174.88 118.476 175.095 119.274 175.526C120.084 175.944 120.724 176.552 121.193 177.35C121.661 178.135 121.896 179.079 121.896 180.181C121.896 180.295 121.889 180.428 121.877 180.58C121.864 180.719 121.851 180.852 121.839 180.979H113.536V179.25H120.281L119.141 179.763C119.141 179.231 119.033 178.769 118.818 178.376C118.602 177.983 118.305 177.679 117.925 177.464C117.545 177.236 117.101 177.122 116.595 177.122C116.088 177.122 115.638 177.236 115.246 177.464C114.866 177.679 114.568 177.99 114.353 178.395C114.137 178.788 114.03 179.256 114.03 179.801V180.257C114.03 180.814 114.15 181.308 114.391 181.739C114.644 182.157 114.992 182.48 115.436 182.708C115.892 182.923 116.424 183.031 117.032 183.031C117.576 183.031 118.051 182.949 118.457 182.784C118.875 182.619 119.255 182.372 119.597 182.043L121.174 183.753C120.705 184.285 120.116 184.697 119.407 184.988C118.697 185.267 117.88 185.406 116.956 185.406ZM123.869 185.254V175.032H126.7V177.92L126.301 177.084C126.605 176.362 127.093 175.817 127.764 175.45C128.435 175.07 129.252 174.88 130.215 174.88V177.616C130.088 177.603 129.974 177.597 129.873 177.597C129.772 177.584 129.664 177.578 129.55 177.578C128.739 177.578 128.081 177.812 127.574 178.281C127.08 178.737 126.833 179.453 126.833 180.428V185.254H123.869ZM137.579 185.254V183.259L137.389 182.822V179.25C137.389 178.617 137.193 178.123 136.8 177.768C136.42 177.413 135.831 177.236 135.033 177.236C134.489 177.236 133.95 177.325 133.418 177.502C132.899 177.667 132.456 177.895 132.088 178.186L131.024 176.115C131.582 175.722 132.253 175.418 133.038 175.203C133.824 174.988 134.622 174.88 135.432 174.88C136.99 174.88 138.2 175.247 139.061 175.982C139.923 176.717 140.353 177.863 140.353 179.421V185.254H137.579ZM134.463 185.406C133.665 185.406 132.981 185.273 132.411 185.007C131.841 184.728 131.404 184.355 131.1 183.886C130.796 183.417 130.644 182.892 130.644 182.309C130.644 181.701 130.79 181.169 131.081 180.713C131.385 180.257 131.86 179.902 132.506 179.649C133.152 179.383 133.995 179.25 135.033 179.25H137.75V180.979H135.356C134.66 180.979 134.178 181.093 133.912 181.321C133.659 181.549 133.532 181.834 133.532 182.176C133.532 182.556 133.678 182.86 133.969 183.088C134.273 183.303 134.685 183.411 135.204 183.411C135.698 183.411 136.142 183.297 136.534 183.069C136.927 182.828 137.212 182.48 137.389 182.024L137.845 183.392C137.63 184.051 137.237 184.551 136.667 184.893C136.097 185.235 135.363 185.406 134.463 185.406ZM149.078 185.406C148.179 185.406 147.406 185.216 146.76 184.836C146.114 184.456 145.62 183.88 145.278 183.107C144.936 182.322 144.765 181.334 144.765 180.143C144.765 178.94 144.942 177.952 145.297 177.179C145.664 176.406 146.171 175.83 146.817 175.45C147.463 175.07 148.217 174.88 149.078 174.88C150.041 174.88 150.902 175.095 151.662 175.526C152.435 175.957 153.043 176.565 153.486 177.35C153.942 178.135 154.17 179.066 154.17 180.143C154.17 181.207 153.942 182.132 153.486 182.917C153.043 183.702 152.435 184.317 151.662 184.76C150.902 185.191 150.041 185.406 149.078 185.406ZM143.036 185.254V171.156H146V177.103L145.81 180.124L145.867 183.164V185.254H143.036ZM148.565 182.974C149.059 182.974 149.496 182.86 149.876 182.632C150.269 182.404 150.579 182.081 150.807 181.663C151.048 181.232 151.168 180.726 151.168 180.143C151.168 179.548 151.048 179.041 150.807 178.623C150.579 178.205 150.269 177.882 149.876 177.654C149.496 177.426 149.059 177.312 148.565 177.312C148.071 177.312 147.628 177.426 147.235 177.654C146.842 177.882 146.532 178.205 146.304 178.623C146.076 179.041 145.962 179.548 145.962 180.143C145.962 180.726 146.076 181.232 146.304 181.663C146.532 182.081 146.842 182.404 147.235 182.632C147.628 182.86 148.071 182.974 148.565 182.974ZM156.154 185.254V171.156H159.118V185.254H156.154ZM166.942 185.406C165.777 185.406 164.751 185.178 163.864 184.722C162.99 184.266 162.312 183.645 161.831 182.86C161.35 182.062 161.109 181.156 161.109 180.143C161.109 179.117 161.343 178.211 161.812 177.426C162.293 176.628 162.946 176.007 163.769 175.564C164.592 175.108 165.523 174.88 166.562 174.88C167.563 174.88 168.462 175.095 169.26 175.526C170.071 175.944 170.71 176.552 171.179 177.35C171.648 178.135 171.882 179.079 171.882 180.181C171.882 180.295 171.876 180.428 171.863 180.58C171.85 180.719 171.838 180.852 171.825 180.979H163.522V179.25H170.267L169.127 179.763C169.127 179.231 169.019 178.769 168.804 178.376C168.589 177.983 168.291 177.679 167.911 177.464C167.531 177.236 167.088 177.122 166.581 177.122C166.074 177.122 165.625 177.236 165.232 177.464C164.852 177.679 164.554 177.99 164.339 178.395C164.124 178.788 164.016 179.256 164.016 179.801V180.257C164.016 180.814 164.136 181.308 164.377 181.739C164.63 182.157 164.979 182.48 165.422 182.708C165.878 182.923 166.41 183.031 167.018 183.031C167.563 183.031 168.038 182.949 168.443 182.784C168.861 182.619 169.241 182.372 169.583 182.043L171.16 183.753C170.691 184.285 170.102 184.697 169.393 184.988C168.684 185.267 167.867 185.406 166.942 185.406ZM184.176 185.406C183.074 185.406 182.092 185.184 181.231 184.741C180.37 184.285 179.692 183.658 179.198 182.86C178.717 182.062 178.476 181.156 178.476 180.143C178.476 179.117 178.717 178.211 179.198 177.426C179.692 176.628 180.37 176.007 181.231 175.564C182.092 175.108 183.074 174.88 184.176 174.88C185.253 174.88 186.19 175.108 186.988 175.564C187.786 176.007 188.375 176.647 188.755 177.483L186.456 178.718C186.19 178.237 185.854 177.882 185.449 177.654C185.056 177.426 184.626 177.312 184.157 177.312C183.65 177.312 183.194 177.426 182.789 177.654C182.384 177.882 182.061 178.205 181.82 178.623C181.592 179.041 181.478 179.548 181.478 180.143C181.478 180.738 181.592 181.245 181.82 181.663C182.061 182.081 182.384 182.404 182.789 182.632C183.194 182.86 183.65 182.974 184.157 182.974C184.626 182.974 185.056 182.866 185.449 182.651C185.854 182.423 186.19 182.062 186.456 181.568L188.755 182.822C188.375 183.645 187.786 184.285 186.988 184.741C186.19 185.184 185.253 185.406 184.176 185.406ZM195.196 185.406C194.107 185.406 193.138 185.178 192.289 184.722C191.453 184.266 190.788 183.645 190.294 182.86C189.813 182.062 189.572 181.156 189.572 180.143C189.572 179.117 189.813 178.211 190.294 177.426C190.788 176.628 191.453 176.007 192.289 175.564C193.138 175.108 194.107 174.88 195.196 174.88C196.273 174.88 197.235 175.108 198.084 175.564C198.933 176.007 199.598 176.622 200.079 177.407C200.56 178.192 200.801 179.104 200.801 180.143C200.801 181.156 200.56 182.062 200.079 182.86C199.598 183.645 198.933 184.266 198.084 184.722C197.235 185.178 196.273 185.406 195.196 185.406ZM195.196 182.974C195.69 182.974 196.133 182.86 196.526 182.632C196.919 182.404 197.229 182.081 197.457 181.663C197.685 181.232 197.799 180.726 197.799 180.143C197.799 179.548 197.685 179.041 197.457 178.623C197.229 178.205 196.919 177.882 196.526 177.654C196.133 177.426 195.69 177.312 195.196 177.312C194.702 177.312 194.259 177.426 193.866 177.654C193.473 177.882 193.157 178.205 192.916 178.623C192.688 179.041 192.574 179.548 192.574 180.143C192.574 180.726 192.688 181.232 192.916 181.663C193.157 182.081 193.473 182.404 193.866 182.632C194.259 182.86 194.702 182.974 195.196 182.974ZM215.873 174.88C216.684 174.88 217.399 175.045 218.02 175.374C218.653 175.691 219.147 176.185 219.502 176.856C219.869 177.515 220.053 178.363 220.053 179.402V185.254H217.089V179.858C217.089 179.035 216.918 178.427 216.576 178.034C216.234 177.641 215.753 177.445 215.132 177.445C214.701 177.445 214.315 177.546 213.973 177.749C213.631 177.939 213.365 178.23 213.175 178.623C212.985 179.016 212.89 179.516 212.89 180.124V185.254H209.926V179.858C209.926 179.035 209.755 178.427 209.413 178.034C209.084 177.641 208.609 177.445 207.988 177.445C207.557 177.445 207.171 177.546 206.829 177.749C206.487 177.939 206.221 178.23 206.031 178.623C205.841 179.016 205.746 179.516 205.746 180.124V185.254H202.782V175.032H205.613V177.825L205.081 177.008C205.436 176.311 205.936 175.786 206.582 175.431C207.241 175.064 207.988 174.88 208.824 174.88C209.761 174.88 210.578 175.121 211.275 175.602C211.984 176.071 212.453 176.793 212.681 177.768L211.636 177.483C211.978 176.685 212.523 176.052 213.27 175.583C214.03 175.114 214.898 174.88 215.873 174.88ZM235.801 174.88C236.611 174.88 237.327 175.045 237.948 175.374C238.581 175.691 239.075 176.185 239.43 176.856C239.797 177.515 239.981 178.363 239.981 179.402V185.254H237.017V179.858C237.017 179.035 236.846 178.427 236.504 178.034C236.162 177.641 235.68 177.445 235.06 177.445C234.629 177.445 234.243 177.546 233.901 177.749C233.559 177.939 233.293 178.23 233.103 178.623C232.913 179.016 232.818 179.516 232.818 180.124V185.254H229.854V179.858C229.854 179.035 229.683 178.427 229.341 178.034C229.011 177.641 228.536 177.445 227.916 177.445C227.485 177.445 227.099 177.546 226.757 177.749C226.415 177.939 226.149 178.23 225.959 178.623C225.769 179.016 225.674 179.516 225.674 180.124V185.254H222.71V175.032H225.541V177.825L225.009 177.008C225.363 176.311 225.864 175.786 226.51 175.431C227.168 175.064 227.916 174.88 228.752 174.88C229.689 174.88 230.506 175.121 231.203 175.602C231.912 176.071 232.381 176.793 232.609 177.768L231.564 177.483C231.906 176.685 232.45 176.052 233.198 175.583C233.958 175.114 234.825 174.88 235.801 174.88ZM246.951 185.406C246.102 185.406 245.342 185.241 244.671 184.912C244.012 184.583 243.499 184.082 243.132 183.411C242.764 182.727 242.581 181.859 242.581 180.808V175.032H245.545V180.371C245.545 181.22 245.722 181.847 246.077 182.252C246.444 182.645 246.957 182.841 247.616 182.841C248.072 182.841 248.477 182.746 248.832 182.556C249.186 182.353 249.465 182.049 249.668 181.644C249.87 181.226 249.972 180.707 249.972 180.086V175.032H252.936V185.254H250.124V182.442L250.637 183.259C250.295 183.968 249.788 184.507 249.117 184.874C248.458 185.229 247.736 185.406 246.951 185.406ZM261.894 174.88C262.705 174.88 263.427 175.045 264.06 175.374C264.706 175.691 265.213 176.185 265.58 176.856C265.948 177.515 266.131 178.363 266.131 179.402V185.254H263.167V179.858C263.167 179.035 262.984 178.427 262.616 178.034C262.262 177.641 261.755 177.445 261.096 177.445C260.628 177.445 260.203 177.546 259.823 177.749C259.456 177.939 259.165 178.237 258.949 178.642C258.747 179.047 258.645 179.567 258.645 180.2V185.254H255.681V175.032H258.512V177.863L257.98 177.008C258.348 176.324 258.873 175.798 259.557 175.431C260.241 175.064 261.02 174.88 261.894 174.88ZM268.818 185.254V175.032H271.782V185.254H268.818ZM270.3 173.607C269.756 173.607 269.312 173.449 268.97 173.132C268.628 172.815 268.457 172.423 268.457 171.954C268.457 171.485 268.628 171.093 268.97 170.776C269.312 170.459 269.756 170.301 270.3 170.301C270.845 170.301 271.288 170.453 271.63 170.757C271.972 171.048 272.143 171.428 272.143 171.897C272.143 172.391 271.972 172.803 271.63 173.132C271.301 173.449 270.858 173.607 270.3 173.607ZM278.713 185.406C277.51 185.406 276.572 185.102 275.901 184.494C275.23 183.873 274.894 182.955 274.894 181.739V172.771H277.858V181.701C277.858 182.132 277.972 182.467 278.2 182.708C278.428 182.936 278.738 183.05 279.131 183.05C279.6 183.05 279.999 182.923 280.328 182.67L281.126 184.76C280.822 184.975 280.455 185.14 280.024 185.254C279.606 185.355 279.169 185.406 278.713 185.406ZM273.317 177.54V175.26H280.404V177.54H273.317ZM282.79 185.254V175.032H285.754V185.254H282.79ZM284.272 173.607C283.727 173.607 283.284 173.449 282.942 173.132C282.6 172.815 282.429 172.423 282.429 171.954C282.429 171.485 282.6 171.093 282.942 170.776C283.284 170.459 283.727 170.301 284.272 170.301C284.817 170.301 285.26 170.453 285.602 170.757C285.944 171.048 286.115 171.428 286.115 171.897C286.115 172.391 285.944 172.803 285.602 173.132C285.273 173.449 284.829 173.607 284.272 173.607ZM293.578 185.406C292.412 185.406 291.386 185.178 290.5 184.722C289.626 184.266 288.948 183.645 288.467 182.86C287.985 182.062 287.745 181.156 287.745 180.143C287.745 179.117 287.979 178.211 288.448 177.426C288.929 176.628 289.581 176.007 290.405 175.564C291.228 175.108 292.159 174.88 293.198 174.88C294.198 174.88 295.098 175.095 295.896 175.526C296.706 175.944 297.346 176.552 297.815 177.35C298.283 178.135 298.518 179.079 298.518 180.181C298.518 180.295 298.511 180.428 298.499 180.58C298.486 180.719 298.473 180.852 298.461 180.979H290.158V179.25H296.903L295.763 179.763C295.763 179.231 295.655 178.769 295.44 178.376C295.224 177.983 294.927 177.679 294.547 177.464C294.167 177.236 293.723 177.122 293.217 177.122C292.71 177.122 292.26 177.236 291.868 177.464C291.488 177.679 291.19 177.99 290.975 178.395C290.759 178.788 290.652 179.256 290.652 179.801V180.257C290.652 180.814 290.772 181.308 291.013 181.739C291.266 182.157 291.614 182.48 292.058 182.708C292.514 182.923 293.046 183.031 293.654 183.031C294.198 183.031 294.673 182.949 295.079 182.784C295.497 182.619 295.877 182.372 296.219 182.043L297.796 183.753C297.327 184.285 296.738 184.697 296.029 184.988C295.319 185.267 294.502 185.406 293.578 185.406ZM303.93 185.406C303.056 185.406 302.214 185.305 301.403 185.102C300.605 184.887 299.972 184.621 299.503 184.304L300.491 182.176C300.96 182.467 301.511 182.708 302.144 182.898C302.79 183.075 303.423 183.164 304.044 183.164C304.728 183.164 305.209 183.082 305.488 182.917C305.779 182.752 305.925 182.524 305.925 182.233C305.925 181.992 305.811 181.815 305.583 181.701C305.368 181.574 305.076 181.479 304.709 181.416C304.342 181.353 303.936 181.289 303.493 181.226C303.062 181.163 302.625 181.08 302.182 180.979C301.739 180.865 301.333 180.7 300.966 180.485C300.599 180.27 300.301 179.978 300.073 179.611C299.858 179.244 299.75 178.769 299.75 178.186C299.75 177.54 299.934 176.97 300.301 176.476C300.681 175.982 301.226 175.596 301.935 175.317C302.644 175.026 303.493 174.88 304.481 174.88C305.178 174.88 305.887 174.956 306.609 175.108C307.331 175.26 307.933 175.482 308.414 175.773L307.426 177.882C306.932 177.591 306.432 177.394 305.925 177.293C305.431 177.179 304.95 177.122 304.481 177.122C303.822 177.122 303.341 177.211 303.037 177.388C302.733 177.565 302.581 177.793 302.581 178.072C302.581 178.325 302.689 178.515 302.904 178.642C303.132 178.769 303.43 178.87 303.797 178.946C304.164 179.022 304.563 179.092 304.994 179.155C305.437 179.206 305.881 179.288 306.324 179.402C306.767 179.516 307.166 179.681 307.521 179.896C307.888 180.099 308.186 180.384 308.414 180.751C308.642 181.106 308.756 181.574 308.756 182.157C308.756 182.79 308.566 183.354 308.186 183.848C307.806 184.329 307.255 184.709 306.533 184.988C305.824 185.267 304.956 185.406 303.93 185.406Z" fill="white"/>
</svg>
