<svg width="351" height="350" viewBox="0 0 351 350" fill="none" xmlns="http://www.w3.org/2000/svg">
<path d="M342 175.155C342 266.349 267.517 340.387 175.5 340.387C83.4829 340.387 9 266.349 9 175.155C9 83.9615 83.4829 9.92334 175.5 9.92334C267.517 9.92334 342 83.9615 342 175.155Z" stroke="black" stroke-width="18"/>
<mask id="path-2-inside-1_105_55" fill="white">
<path d="M275.571 318.287C256.638 331.333 235.301 340.55 212.78 345.41C190.259 350.271 166.995 350.68 144.314 346.614L175.5 175.155L275.571 318.287Z"/>
</mask>
<path d="M275.571 318.287C256.638 331.333 235.301 340.55 212.78 345.41C190.259 350.271 166.995 350.68 144.314 346.614L175.5 175.155L275.571 318.287Z" stroke="#318EA0" stroke-width="36" mask="url(#path-2-inside-1_105_55)"/>
<mask id="path-3-inside-2_105_55" fill="white">
<path d="M175.5 349.387C152.453 349.387 129.632 344.88 108.339 336.124C87.0464 327.368 67.6994 314.534 51.4028 298.355C35.1061 282.177 22.1788 262.969 13.3591 241.831C4.53944 220.692 -2.01483e-06 198.035 0 175.155L175.5 175.155L175.5 349.387Z"/>
</mask>
<path d="M175.5 349.387C152.453 349.387 129.632 344.88 108.339 336.124C87.0464 327.368 67.6994 314.534 51.4028 298.355C35.1061 282.177 22.1788 262.969 13.3591 241.831C4.53944 220.692 -2.01483e-06 198.035 0 175.155L175.5 175.155L175.5 349.387Z" stroke="#305C93" stroke-width="36" mask="url(#path-3-inside-2_105_55)"/>
<mask id="path-4-inside-3_105_55" fill="white">
<path d="M0 175.155C2.15477e-06 150.686 5.19174 126.49 15.2371 104.145C25.2825 81.8003 39.9562 61.8064 58.3027 45.4659C76.6491 29.1254 98.2568 16.8046 121.719 9.30601C145.18 1.8074 169.97 -0.700877 194.473 1.94452C218.976 4.58992 242.644 12.3297 263.933 24.6597C285.223 36.9898 303.658 53.6336 318.038 73.5072C332.417 93.3809 342.419 116.039 347.391 140.005C352.364 163.972 352.196 188.709 346.898 212.607L175.5 175.155L0 175.155Z"/>
</mask>
<path d="M0 175.155C2.15477e-06 150.686 5.19174 126.49 15.2371 104.145C25.2825 81.8003 39.9562 61.8064 58.3027 45.4659C76.6491 29.1254 98.2568 16.8046 121.719 9.30601C145.18 1.8074 169.97 -0.700877 194.473 1.94452C218.976 4.58992 242.644 12.3297 263.933 24.6597C285.223 36.9898 303.658 53.6336 318.038 73.5072C332.417 93.3809 342.419 116.039 347.391 140.005C352.364 163.972 352.196 188.709 346.898 212.607L175.5 175.155L0 175.155Z" stroke="#84367E" stroke-width="36" mask="url(#path-4-inside-3_105_55)"/>
<mask id="path-5-inside-4_105_55" fill="white">
<path d="M351 175.155C351 198.035 346.461 220.692 337.641 241.831C328.821 262.969 315.894 282.177 299.597 298.355C283.301 314.534 263.954 327.368 242.661 336.124C221.368 344.88 198.547 349.387 175.5 349.387L175.5 175.155H351Z"/>
</mask>
<path d="M351 175.155C351 198.035 346.461 220.692 337.641 241.831C328.821 262.969 315.894 282.177 299.597 298.355C283.301 314.534 263.954 327.368 242.661 336.124C221.368 344.88 198.547 349.387 175.5 349.387L175.5 175.155H351Z" stroke="#4C9869" stroke-width="36" mask="url(#path-5-inside-4_105_55)"/>
<mask id="path-6-inside-5_105_55" fill="white">
<path d="M351 175.155C351 152.275 346.461 129.618 337.641 108.479C328.821 87.3407 315.894 68.1335 299.597 51.9546C283.301 35.7757 263.954 22.9419 242.661 14.1859C221.368 5.42997 198.547 0.923339 175.5 0.92334L175.5 175.155H351Z"/>
</mask>
<path d="M351 175.155C351 152.275 346.461 129.618 337.641 108.479C328.821 87.3407 315.894 68.1335 299.597 51.9546C283.301 35.7757 263.954 22.9419 242.661 14.1859C221.368 5.42997 198.547 0.923339 175.5 0.92334L175.5 175.155H351Z" stroke="#9BC53F" stroke-width="36" mask="url(#path-6-inside-5_105_55)"/>
<ellipse cx="176" cy="175.651" rx="158" ry="156.858" fill="#242424"/>
</svg>
