<svg xmlns="http://www.w3.org/2000/svg" viewBox="0 0 31.5 31.61"><defs><style>.cls-1{fill:#057bbe;}</style></defs><title>Icon_Teens_Color_Small</title><g id="Layer_2" data-name="Layer 2"><g id="Layer_1-2" data-name="Layer 1"><path class="cls-1" d="M22.73,29.7l-6.22-4.41-4.88,5.85a1.3,1.3,0,0,1-2.3-.76L8.9,22.77,1.28,22.6a1.31,1.31,0,0,1-.84-2.28l5.68-5.08L1.5,9.18A1.31,1.31,0,0,1,2.76,7.1l7.51,1.28L12.13,1A1.31,1.31,0,0,1,14.54.67l3.69,6.67,6.94-3.15a1.3,1.3,0,0,1,1.74,1.69l-2.91,7,6.79,3.46a1.3,1.3,0,0,1-.23,2.41l-7.33,2.12,1.53,7.46A1.3,1.3,0,0,1,22.73,29.7Z"/></g></g></svg>