<svg width="33" height="29" viewBox="0 0 33 29" fill="none" xmlns="http://www.w3.org/2000/svg">
<path d="M1.21212 12.437C2.00303 8.22083 6.60453 0.0766198 18.7275 1.08578C19.6946 1.20859 21.6714 2.52612 22.0061 5C22.0061 6.15799 21.3632 7.44198 21.0061 9C20.8946 10.0001 21.4302 11.9792 24.4653 11.895C26.5061 11.8383 28.0449 10.297 29.4955 10.9813C30.165 11.2971 31.4482 12.1709 31.8946 14.1921L32.0061 15.9817C31.9661 18.3698 30.5061 22.5 27.0751 25.0881C20.6226 29.9554 -0.734991 31.9325 1.11289 12.9483C1.11073 12.9102 1.21974 12.3915 1.21212 12.437Z" fill="#84367E" stroke="#84367E"/>
</svg>
